<?xml version="1.0" encoding="UTF-8" standalone="no"?>
<!-- Created with Inkscape (http://www.inkscape.org/) -->
<svg
   xmlns:svg="http://www.w3.org/2000/svg"
   xmlns="http://www.w3.org/2000/svg"
   version="1.0"
   width="665.68042"
   height="596.98999"
   id="svg1901">
  <defs
     id="defs1903" />
  <g
     transform="translate(-5.5609155,-9.3847561)"
     style="opacity:1"
     id="layer1">
    <path
       d="M 574.91188,550.82605 L 574.91188,379.10011 L 431.72276,235.91099 L 182.46762,235.91099 L 33.343854,86.787219 L 33.343854,57.871599"
       style="fill:none;fill-opacity:1;fill-rule:evenodd;stroke:#fac303;stroke-width:9;stroke-linecap:round;stroke-miterlimit:4;stroke-dasharray:none;stroke-opacity:1"
       id="path3442" />
    <path
       d="M 82.967604,128.70856 C 82.969294,132.40579 79.972574,135.40388 76.275344,135.40388 C 72.578114,135.40388 69.581394,132.40579 69.583084,128.70856 C 69.581394,125.01133 72.578114,122.01324 76.275344,122.01324 C 79.972574,122.01324 82.969294,125.01133 82.967604,128.70856 z "
       style="fill:#ffffff;fill-opacity:1;fill-rule:evenodd;stroke:#000000;stroke-width:3.70000005;stroke-linecap:round;stroke-miterlimit:4;stroke-dasharray:none;stroke-opacity:1"
       id="path3465" />
    <path
       d="M 143.57676,189.82279 C 143.57845,193.52002 140.58173,196.51811 136.8845,196.51811 C 133.18727,196.51811 130.19055,193.52002 130.19224,189.82279 C 130.19055,186.12556 133.18727,183.12747 136.8845,183.12747 C 140.58173,183.12747 143.57845,186.12556 143.57676,189.82279 z "
       style="fill:#ffffff;fill-opacity:1;fill-rule:evenodd;stroke:#000000;stroke-width:3.70000005;stroke-linecap:round;stroke-miterlimit:4;stroke-dasharray:none;stroke-opacity:1"
       id="path3469" />
    <path
       d="M 377.42706,236.54234 C 377.42875,240.23957 374.43203,243.23766 370.7348,243.23766 C 367.03757,243.23766 364.04085,240.23957 364.04254,236.54234 C 364.04085,232.84511 367.03757,229.84702 370.7348,229.84702 C 374.43203,229.84702 377.42875,232.84511 377.42706,236.54234 z "
       style="fill:#ffffff;fill-opacity:1;fill-rule:evenodd;stroke:#000000;stroke-width:3.70000005;stroke-linecap:round;stroke-miterlimit:4;stroke-dasharray:none;stroke-opacity:1"
       id="path3479" />
    <path
       d="M 582.48804,551.20487 C 582.48973,554.9021 579.49301,557.90019 575.79578,557.90019 C 572.09855,557.90019 569.10183,554.9021 569.10352,551.20487 C 569.10183,547.50764 572.09855,544.50955 575.79578,544.50955 C 579.49301,544.50955 582.48973,547.50764 582.48804,551.20487 z "
       style="fill:#ffffff;fill-opacity:1;fill-rule:evenodd;stroke:#000000;stroke-width:3.70000005;stroke-linecap:round;stroke-miterlimit:4;stroke-dasharray:none;stroke-opacity:1"
       id="path3491" />
    <path
       d="M 35.147384,65.371969 C 35.148924,66.139889 34.740124,66.850139 34.075344,67.234539 C 33.410554,67.618939 32.591074,67.618939 31.926284,67.234539 C 31.261504,66.850139 30.852704,66.139889 30.854244,65.371969 C 30.852704,64.604049 31.261504,63.893809 31.926284,63.509399 C 32.591074,63.124999 33.410554,63.124999 34.075344,63.509399 C 34.740124,63.893809 35.148924,64.604049 35.147384,65.371969 L 35.147384,65.371969 z "
       style="fill:#ffffff;fill-opacity:1;fill-rule:evenodd;stroke:#ffffff;stroke-width:3.70000005;stroke-linecap:round;stroke-miterlimit:4;stroke-dasharray:none;stroke-opacity:1"
       id="path3717" />
    <path
       d="M 107.52124,158.66314 C 107.52278,159.43106 107.11398,160.14131 106.4492,160.52571 C 105.78441,160.91011 104.96493,160.91011 104.30014,160.52571 C 103.63536,160.14131 103.22656,159.43106 103.2281,158.66314 C 103.22656,157.89522 103.63536,157.18498 104.30014,156.80057 C 104.96493,156.41617 105.78441,156.41617 106.4492,156.80057 C 107.11398,157.18498 107.52278,157.89522 107.52124,158.66314 L 107.52124,158.66314 z "
       style="fill:#ffffff;fill-opacity:1;fill-rule:evenodd;stroke:#ffffff;stroke-width:3.70000005;stroke-linecap:round;stroke-miterlimit:4;stroke-dasharray:none;stroke-opacity:1"
       id="path3719" />
    <path
       d="M 164.59484,215.58883 C 164.59638,216.35675 164.18758,217.06699 163.5228,217.4514 C 162.85801,217.8358 162.03853,217.8358 161.37374,217.4514 C 160.70896,217.06699 160.30016,216.35675 160.3017,215.58883 C 160.30016,214.82091 160.70896,214.11067 161.37374,213.72626 C 162.03853,213.34186 162.85801,213.34186 163.5228,213.72626 C 164.18758,214.11067 164.59638,214.82091 164.59484,215.58883 L 164.59484,215.58883 z "
       style="fill:#ffffff;fill-opacity:1;fill-rule:evenodd;stroke:#ffffff;stroke-width:3.70000005;stroke-linecap:round;stroke-miterlimit:4;stroke-dasharray:none;stroke-opacity:1"
       id="path3721" />
    <path
       d="M 276.06876,235.87853 C 276.0703,236.64645 275.6615,237.3567 274.99672,237.7411 C 274.33193,238.1255 273.51245,238.1255 272.84766,237.7411 C 272.18288,237.3567 271.77408,236.64645 271.77562,235.87853 C 271.77408,235.11061 272.18288,234.40037 272.84766,234.01596 C 273.51245,233.63156 274.33193,233.63156 274.99672,234.01596 C 275.6615,234.40037 276.0703,235.11061 276.06876,235.87853 L 276.06876,235.87853 z "
       style="fill:#ffffff;fill-opacity:1;fill-rule:evenodd;stroke:#ffffff;stroke-width:3.70000005;stroke-linecap:round;stroke-miterlimit:4;stroke-dasharray:none;stroke-opacity:1"
       id="path3723" />
    <path
       d="M 442.74393,245.17912 C 442.74547,245.94704 442.33667,246.65729 441.67189,247.04169 C 441.0071,247.42609 440.18762,247.42609 439.52283,247.04169 C 438.85805,246.65729 438.44925,245.94704 438.45079,245.17912 C 438.44925,244.4112 438.85805,243.70096 439.52283,243.31655 C 440.18762,242.93215 441.0071,242.93215 441.67189,243.31655 C 442.33667,243.70096 442.74547,244.4112 442.74393,245.17912 L 442.74393,245.17912 z "
       style="fill:#ffffff;fill-opacity:1;fill-rule:evenodd;stroke:#ffffff;stroke-width:3.70000005;stroke-linecap:round;stroke-miterlimit:4;stroke-dasharray:none;stroke-opacity:1"
       id="path3725" />
    <path
       d="M 473.04851,275.4837 C 473.05005,276.25162 472.64125,276.96187 471.97647,277.34627 C 471.31168,277.73067 470.4922,277.73067 469.82741,277.34627 C 469.16263,276.96187 468.75383,276.25162 468.75537,275.4837 C 468.75383,274.71578 469.16263,274.00554 469.82741,273.62113 C 470.4922,273.23673 471.31168,273.23673 471.97647,273.62113 C 472.64125,274.00554 473.05005,274.71578 473.04851,275.4837 L 473.04851,275.4837 z "
       style="fill:#ffffff;fill-opacity:1;fill-rule:evenodd;stroke:#ffffff;stroke-width:3.70000005;stroke-linecap:round;stroke-miterlimit:4;stroke-dasharray:none;stroke-opacity:1"
       id="path3727" />
    <path
       d="M 577.09422,412.86445 C 577.09576,413.63237 576.68696,414.34261 576.02218,414.72702 C 575.35739,415.11142 574.53791,415.11142 573.87312,414.72702 C 573.20834,414.34261 572.79954,413.63237 572.80108,412.86445 C 572.79954,412.09653 573.20834,411.38629 573.87312,411.00188 C 574.53791,410.61748 575.35739,410.61748 576.02218,411.00188 C 576.68696,411.38629 577.09576,412.09653 577.09422,412.86445 L 577.09422,412.86445 z "
       style="fill:#ffffff;fill-opacity:1;fill-rule:evenodd;stroke:#ffffff;stroke-width:3.70000005;stroke-linecap:round;stroke-miterlimit:4;stroke-dasharray:none;stroke-opacity:1"
       id="path3729" />
    <path
       d="M 577.09422,475.49391 C 577.09576,476.26183 576.68696,476.97207 576.02218,477.35648 C 575.35739,477.74088 574.53791,477.74088 573.87312,477.35648 C 573.20834,476.97207 572.79954,476.26183 572.80108,475.49391 C 572.79954,474.72599 573.20834,474.01575 573.87312,473.63134 C 574.53791,473.24694 575.35739,473.24694 576.02218,473.63134 C 576.68696,474.01575 577.09576,474.72599 577.09422,475.49391 L 577.09422,475.49391 z "
       style="fill:#ffffff;fill-opacity:1;fill-rule:evenodd;stroke:#ffffff;stroke-width:3.70000005;stroke-linecap:round;stroke-miterlimit:4;stroke-dasharray:none;stroke-opacity:1"
       id="path3731" />
    <rect
       width="30.526741"
       height="30.526741"
       rx="3.2829957"
       ry="3.2829957"
       x="561.41779"
       y="563.4046"
       style="fill:#fac303;fill-opacity:1;fill-rule:evenodd;stroke:none;stroke-width:1;stroke-linecap:round;stroke-miterlimit:4;stroke-dasharray:none;stroke-opacity:1"
       id="rect4002" />
    <text
       x="567.55615"
       y="589.76953"
       style="font-size:32px;font-style:normal;font-weight:bold;fill:#ffffff;fill-opacity:1;stroke:none;stroke-width:1px;stroke-linecap:butt;stroke-linejoin:miter;stroke-opacity:1;font-family:Arial"
       id="text4004"
       xml:space="preserve"><tspan
         x="567.55615"
         y="589.76953"
         id="tspan4006">5</tspan></text>
    <rect
       width="30.526741"
       height="30.526741"
       rx="3.2829957"
       ry="3.2829957"
       x="17.654612"
       y="19.259905"
       style="fill:#fac303;fill-opacity:1;fill-rule:evenodd;stroke:none;stroke-width:1;stroke-linecap:round;stroke-miterlimit:4;stroke-dasharray:none;stroke-opacity:1"
       id="rect4026" />
    <text
       x="23.792978"
       y="45.624836"
       style="font-size:32px;font-style:normal;font-weight:bold;fill:#ffffff;fill-opacity:1;stroke:none;stroke-width:1px;stroke-linecap:butt;stroke-linejoin:miter;stroke-opacity:1;font-family:Arial"
       id="text4028"
       xml:space="preserve"><tspan
         x="23.792978"
         y="45.624836"
         id="tspan4030">5</tspan></text>
    <text
       x="40.561562"
       y="68.62532"
       style="font-size:15px;font-style:normal;font-weight:normal;fill:#fac303;fill-opacity:1;stroke:none;stroke-width:1px;stroke-linecap:butt;stroke-linejoin:miter;stroke-opacity:1;font-family:Sans"
       id="text4204"
       xml:space="preserve"><tspan
         x="40.561562"
         y="68.62532"
         id="tspan4206">Politecnico</tspan></text>
    <text
       x="170.87126"
       y="215.60249"
       style="font-size:15px;font-style:normal;font-weight:normal;fill:#fac303;fill-opacity:1;stroke:none;stroke-width:1px;stroke-linecap:butt;stroke-linejoin:miter;stroke-opacity:1;font-family:Sans"
       id="text4208"
       xml:space="preserve"><tspan
         x="170.87126"
         y="215.60249"
         id="tspan4210">Misterios</tspan></text>
    <text
       x="264.31036"
       y="203.48067"
       style="font-size:15px;font-style:normal;font-weight:normal;fill:#fac303;fill-opacity:1;stroke:none;stroke-width:1px;stroke-linecap:butt;stroke-linejoin:miter;stroke-opacity:1;font-family:Sans"
       id="text4212"
       xml:space="preserve"><tspan
         x="264.31036"
         y="203.48067"
         id="tspan4214">Valle</tspan><tspan
         x="264.31036"
         y="222.23067"
         id="tspan4216">Gomez</tspan></text>
    <text
       x="459.7749"
       y="234.79543"
       style="font-size:15px;font-style:normal;font-weight:normal;fill:#fac303;fill-opacity:1;stroke:none;stroke-width:1px;stroke-linecap:butt;stroke-linejoin:miter;stroke-opacity:1;font-family:Sans"
       id="text4218"
       xml:space="preserve"><tspan
         x="459.7749"
         y="234.79543"
         id="tspan4222">Eduardo</tspan><tspan
         x="459.7749"
         y="253.54543"
         id="tspan4226">Molina</tspan></text>
    <text
       x="485.02869"
       y="277.7269"
       style="font-size:15px;font-style:normal;font-weight:normal;fill:#fac303;fill-opacity:1;stroke:none;stroke-width:1px;stroke-linecap:butt;stroke-linejoin:miter;stroke-opacity:1;font-family:Sans"
       id="text4228"
       xml:space="preserve"><tspan
         x="485.02869"
         y="277.7269"
         id="tspan4232">Aragon</tspan></text>
    <text
       x="584.54901"
       y="407.53146"
       style="font-size:15px;font-style:normal;font-weight:normal;fill:#fac303;fill-opacity:1;stroke:none;stroke-width:1px;stroke-linecap:butt;stroke-linejoin:miter;stroke-opacity:1;font-family:Sans"
       id="text4236"
       xml:space="preserve"><tspan
         x="584.54901"
         y="407.53146"
         id="tspan4238">Terminal</tspan><tspan
         x="584.54901"
         y="426.28146"
         id="tspan4240">Aerea</tspan></text>
    <text
       x="584.54901"
       y="481.53146"
       style="font-size:15px;font-style:normal;font-weight:normal;fill:#fac303;fill-opacity:1;stroke:none;stroke-width:1px;stroke-linecap:butt;stroke-linejoin:miter;stroke-opacity:1;font-family:Sans"
       id="text4242"
       xml:space="preserve"><tspan
         x="584.54901"
         y="481.53146"
         id="tspan4246">Hangares</tspan></text>
    <path
       d="M 521.25651,319.34422 C 521.2582,323.04145 518.26148,326.03954 514.56425,326.03954 C 510.86702,326.03954 507.8703,323.04145 507.87199,319.34422 C 507.8703,315.64699 510.86702,312.6489 514.56425,312.6489 C 518.26148,312.6489 521.2582,315.64699 521.25651,319.34422 z "
       style="fill:#ffffff;fill-opacity:1;fill-rule:evenodd;stroke:#000000;stroke-width:3.70000005;stroke-linecap:round;stroke-miterlimit:4;stroke-dasharray:none;stroke-opacity:1"
       id="path4681" />
    <text
       x="125.8249"
       y="109.49021"
       style="font-size:15px;font-style:normal;font-weight:normal;text-align:center;text-anchor:middle;fill:#000000;fill-opacity:1;stroke:none;stroke-width:1px;stroke-linecap:butt;stroke-linejoin:miter;stroke-opacity:1;font-family:Sans"
       id="text4693"
       xml:space="preserve"><tspan
         x="125.8249"
         y="109.49021"
         id="tspan4695">Instituto del</tspan><tspan
         x="125.8249"
         y="128.2402"
         id="tspan4697">Petroleo</tspan></text>
    <text
       x="344.52292"
       y="218.58673"
       style="font-size:15px;font-style:normal;font-weight:normal;text-align:start;text-anchor:start;fill:#000000;fill-opacity:1;stroke:none;stroke-width:1px;stroke-linecap:butt;stroke-linejoin:miter;stroke-opacity:1;font-family:Sans"
       id="text4719"
       xml:space="preserve"><tspan
         x="344.52292"
         y="218.58673"
         id="tspan4721">Consulado</tspan></text>
    <text
       x="588.94226"
       y="555.43127"
       style="font-size:15px;font-style:normal;font-weight:normal;text-align:start;text-anchor:start;fill:#000000;fill-opacity:1;stroke:none;stroke-width:1px;stroke-linecap:butt;stroke-linejoin:miter;stroke-opacity:1;font-family:Sans"
       id="text4777"
       xml:space="preserve"><tspan
         x="588.94226"
         y="555.43127"
         id="tspan4779">Pantitlan</tspan></text>
    <text
       x="531.86865"
       y="324.61148"
       style="font-size:15px;font-style:normal;font-weight:normal;text-align:start;text-anchor:start;fill:#000000;fill-opacity:1;stroke:none;stroke-width:1px;stroke-linecap:butt;stroke-linejoin:miter;stroke-opacity:1;font-family:Sans"
       id="text4781"
       xml:space="preserve"><tspan
         x="531.86865"
         y="324.61148"
         id="tspan4783">Oceania</tspan></text>
    <text
       x="150.91949"
       y="190.23239"
       style="font-size:15px;font-style:normal;font-weight:normal;text-align:start;text-anchor:start;fill:#000000;fill-opacity:1;stroke:none;stroke-width:1px;stroke-linecap:butt;stroke-linejoin:miter;stroke-opacity:1;font-family:Sans"
       id="text4803"
       xml:space="preserve"><tspan
         x="150.91949"
         y="190.23239"
         id="tspan4805">La Raza</tspan></text>
    <text
       x="13.014108"
       y="164.8882"
       style="font-size:15px;font-style:normal;font-weight:normal;fill:#fac303;fill-opacity:1;stroke:none;stroke-width:1px;stroke-linecap:butt;stroke-linejoin:miter;stroke-opacity:1;font-family:Sans"
       id="text4807"
       xml:space="preserve"><tspan
         x="13.014108"
         y="164.8882"
         id="tspan4809">Autobuses</tspan><tspan
         x="13.014108"
         y="183.6382"
         id="tspan4811">del Norte</tspan></text>
  </g>
</svg>
