<?xml version="1.0" encoding="UTF-8" standalone="no"?>
<!-- Created with Inkscape (http://www.inkscape.org/) -->
<svg
   xmlns:svg="http://www.w3.org/2000/svg"
   xmlns="http://www.w3.org/2000/svg"
   version="1.0"
   width="180.99998"
   height="421"
   id="svg1901">
  <defs
     id="defs1903" />
  <g
     transform="translate(-8.0714283,-36.147896)"
     style="opacity:1"
     id="layer1">
    <path
       d="M 116.95047,409.87384 L 69.220759,362.14413 L 69.220759,125.01082 L 35.759459,91.549523"
       style="fill:none;fill-opacity:1;fill-rule:evenodd;stroke:#8f1e74;stroke-width:9;stroke-linecap:round;stroke-miterlimit:4;stroke-dasharray:none;stroke-opacity:1"
       id="path3440" />
    <path
       d="M 42.199189,92.054613 C 42.200879,95.751843 39.204159,98.749933 35.506929,98.749933 C 31.809699,98.749933 28.812979,95.751843 28.814669,92.054613 C 28.812979,88.357383 31.809699,85.359293 35.506929,85.359293 C 39.204159,85.359293 42.200879,88.357383 42.199189,92.054613 z "
       style="fill:#ffffff;fill-opacity:1;fill-rule:evenodd;stroke:#000000;stroke-width:3.70000005;stroke-linecap:round;stroke-miterlimit:4;stroke-dasharray:none;stroke-opacity:1"
       id="path3491" />
    <path
       d="M 71.971209,134.07078 C 71.972749,134.8387 71.563949,135.54894 70.899169,135.93335 C 70.234379,136.31775 69.414899,136.31775 68.750109,135.93335 C 68.085329,135.54894 67.676529,134.8387 67.678069,134.07078 C 67.676529,133.30286 68.085329,132.59262 68.750109,132.20821 C 69.414899,131.82381 70.234379,131.82381 70.899169,132.20821 C 71.563949,132.59262 71.972749,133.30286 71.971209,134.07078 L 71.971209,134.07078 z "
       style="fill:#ffffff;fill-opacity:1;fill-rule:evenodd;stroke:#ffffff;stroke-width:3.70000005;stroke-linecap:round;stroke-miterlimit:4;stroke-dasharray:none;stroke-opacity:1"
       id="path3653" />
    <path
       d="M 72.328349,168.71368 C 72.329889,169.4816 71.921089,170.19185 71.256309,170.57625 C 70.591519,170.96065 69.772039,170.96065 69.107249,170.57625 C 68.442469,170.19185 68.033669,169.4816 68.035209,168.71368 C 68.033669,167.94576 68.442469,167.23552 69.107249,166.85111 C 69.772039,166.46671 70.591519,166.46671 71.256309,166.85111 C 71.921089,167.23552 72.329889,167.94576 72.328349,168.71368 L 72.328349,168.71368 z "
       style="fill:#ffffff;fill-opacity:1;fill-rule:evenodd;stroke:#ffffff;stroke-width:3.70000005;stroke-linecap:round;stroke-miterlimit:4;stroke-dasharray:none;stroke-opacity:1"
       id="path3655" />
    <path
       d="M 71.614059,202.99938 C 71.615599,203.7673 71.206799,204.47754 70.542019,204.86195 C 69.877229,205.24635 69.057749,205.24635 68.392959,204.86195 C 67.728179,204.47754 67.319379,203.7673 67.320919,202.99938 C 67.319379,202.23146 67.728179,201.52122 68.392959,201.13681 C 69.057749,200.75241 69.877229,200.75241 70.542019,201.13681 C 71.206799,201.52122 71.615599,202.23146 71.614059,202.99938 L 71.614059,202.99938 z "
       style="fill:#ffffff;fill-opacity:1;fill-rule:evenodd;stroke:#ffffff;stroke-width:3.70000005;stroke-linecap:round;stroke-miterlimit:4;stroke-dasharray:none;stroke-opacity:1"
       id="path3657" />
    <path
       d="M 71.614059,271.92798 C 71.615599,272.6959 71.206799,273.40615 70.542019,273.79055 C 69.877229,274.17495 69.057749,274.17495 68.392959,273.79055 C 67.728179,273.40615 67.319379,272.6959 67.320919,271.92798 C 67.319379,271.16006 67.728179,270.44982 68.392959,270.06541 C 69.057749,269.68101 69.877229,269.68101 70.542019,270.06541 C 71.206799,270.44982 71.615599,271.16006 71.614059,271.92798 L 71.614059,271.92798 z "
       style="fill:#ffffff;fill-opacity:1;fill-rule:evenodd;stroke:#ffffff;stroke-width:3.70000005;stroke-linecap:round;stroke-miterlimit:4;stroke-dasharray:none;stroke-opacity:1"
       id="path3661" />
    <path
       d="M 71.614059,306.57088 C 71.615599,307.3388 71.206799,308.04904 70.542019,308.43345 C 69.877229,308.81785 69.057749,308.81785 68.392959,308.43345 C 67.728179,308.04904 67.319379,307.3388 67.320919,306.57088 C 67.319379,305.80296 67.728179,305.09272 68.392959,304.70831 C 69.057749,304.32391 69.877229,304.32391 70.542019,304.70831 C 71.206799,305.09272 71.615599,305.80296 71.614059,306.57088 L 71.614059,306.57088 z "
       style="fill:#ffffff;fill-opacity:1;fill-rule:evenodd;stroke:#ffffff;stroke-width:3.70000005;stroke-linecap:round;stroke-miterlimit:4;stroke-dasharray:none;stroke-opacity:1"
       id="path3663" />
    <path
       d="M 71.614059,341.57088 C 71.615599,342.3388 71.206799,343.04904 70.542019,343.43345 C 69.877229,343.81785 69.057749,343.81785 68.392959,343.43345 C 67.728179,343.04904 67.319379,342.3388 67.320919,341.57088 C 67.319379,340.80296 67.728179,340.09272 68.392959,339.70831 C 69.057749,339.32391 69.877229,339.32391 70.542019,339.70831 C 71.206799,340.09272 71.615599,340.80296 71.614059,341.57088 L 71.614059,341.57088 z "
       style="fill:#ffffff;fill-opacity:1;fill-rule:evenodd;stroke:#ffffff;stroke-width:3.70000005;stroke-linecap:round;stroke-miterlimit:4;stroke-dasharray:none;stroke-opacity:1"
       id="path3665" />
    <path
       d="M 87.32835,377.64228 C 87.32989,378.4102 86.92109,379.12044 86.25631,379.50485 C 85.59152,379.88925 84.77204,379.88925 84.10725,379.50485 C 83.44247,379.12044 83.03367,378.4102 83.03521,377.64228 C 83.03367,376.87436 83.44247,376.16412 84.10725,375.77971 C 84.77204,375.39531 85.59152,375.39531 86.25631,375.77971 C 86.92109,376.16412 87.32989,376.87436 87.32835,377.64228 L 87.32835,377.64228 z "
       style="fill:#ffffff;fill-opacity:1;fill-rule:evenodd;stroke:#ffffff;stroke-width:3.70000005;stroke-linecap:round;stroke-miterlimit:4;stroke-dasharray:none;stroke-opacity:1"
       id="path3667" />
    <path
       d="M 113.39978,404.07088 C 113.40132,404.8388 112.99252,405.54904 112.32774,405.93345 C 111.66295,406.31785 110.84347,406.31785 110.17868,405.93345 C 109.5139,405.54904 109.1051,404.8388 109.10664,404.07088 C 109.1051,403.30296 109.5139,402.59272 110.17868,402.20831 C 110.84347,401.82391 111.66295,401.82391 112.32774,402.20831 C 112.99252,402.59272 113.40132,403.30296 113.39978,404.07088 L 113.39978,404.07088 z "
       style="fill:#ffffff;fill-opacity:1;fill-rule:evenodd;stroke:#ffffff;stroke-width:3.70000005;stroke-linecap:round;stroke-miterlimit:4;stroke-dasharray:none;stroke-opacity:1"
       id="path3669" />
    <rect
       width="30.526741"
       height="30.526741"
       rx="3.2829957"
       ry="3.2829957"
       x="120.43327"
       y="414.92484"
       style="fill:#8f1e74;fill-opacity:1;fill-rule:evenodd;stroke:none;stroke-width:1;stroke-linecap:round;stroke-miterlimit:4;stroke-dasharray:none;stroke-opacity:1"
       id="rect3984" />
    <text
       x="124.20444"
       y="441.64133"
       style="font-size:32px;font-style:normal;font-weight:bold;fill:#ffffff;fill-opacity:1;stroke:none;stroke-width:1px;stroke-linecap:butt;stroke-linejoin:miter;stroke-opacity:1;font-family:Arial"
       id="text3986"
       xml:space="preserve"><tspan
         x="124.20444"
         y="441.64133"
         id="tspan3988">A</tspan></text>
    <rect
       width="30.526741"
       height="30.526741"
       rx="3.2829957"
       ry="3.2829957"
       x="18.923344"
       y="49.201038"
       style="fill:#8f1e74;fill-opacity:1;fill-rule:evenodd;stroke:none;stroke-width:1;stroke-linecap:round;stroke-miterlimit:4;stroke-dasharray:none;stroke-opacity:1"
       id="rect3990" />
    <text
       x="22.694584"
       y="75.917526"
       style="font-size:32px;font-style:normal;font-weight:bold;fill:#ffffff;fill-opacity:1;stroke:none;stroke-width:1px;stroke-linecap:butt;stroke-linejoin:miter;stroke-opacity:1;font-family:Arial"
       id="text3992"
       xml:space="preserve"><tspan
         x="22.694584"
         y="75.917526"
         id="tspan3994">A</tspan></text>
    <text
       x="80.949318"
       y="128.44717"
       style="font-size:15px;font-style:normal;font-weight:normal;fill:#8f1e74;fill-opacity:1;stroke:none;stroke-width:1px;stroke-linecap:butt;stroke-linejoin:miter;stroke-opacity:1;font-family:Sans"
       id="text4250"
       xml:space="preserve"><tspan
         x="80.949318"
         y="128.44717"
         id="tspan4252">Agricola</tspan><tspan
         x="80.949318"
         y="147.19717"
         id="tspan4254">Oriental</tspan></text>
    <text
       x="80.22422"
       y="166.44717"
       style="font-size:15px;font-style:normal;font-weight:normal;fill:#8f1e74;fill-opacity:1;stroke:none;stroke-width:1px;stroke-linecap:butt;stroke-linejoin:miter;stroke-opacity:1;font-family:Sans"
       id="text4256"
       xml:space="preserve"><tspan
         x="80.22422"
         y="166.44717"
         id="tspan4260">Canal de</tspan><tspan
         x="80.22422"
         y="185.19717"
         id="tspan4264">San Juan</tspan></text>
    <text
       x="81.110451"
       y="208.44717"
       style="font-size:15px;font-style:normal;font-weight:normal;fill:#8f1e74;fill-opacity:1;stroke:none;stroke-width:1px;stroke-linecap:butt;stroke-linejoin:miter;stroke-opacity:1;font-family:Sans"
       id="text4266"
       xml:space="preserve"><tspan
         x="81.110451"
         y="208.44717"
         id="tspan4270">Tepalcates</tspan></text>
    <text
       x="80.22422"
       y="242.44717"
       style="font-size:15px;font-style:normal;font-weight:normal;fill:#8f1e74;fill-opacity:1;stroke:none;stroke-width:1px;stroke-linecap:butt;stroke-linejoin:miter;stroke-opacity:1;font-family:Sans"
       id="text4274"
       xml:space="preserve"><tspan
         x="80.22422"
         y="242.44717"
         id="tspan4276">Guelatao</tspan></text>
    <text
       x="79.594337"
       y="278.44717"
       style="font-size:15px;font-style:normal;font-weight:normal;fill:#8f1e74;fill-opacity:1;stroke:none;stroke-width:1px;stroke-linecap:butt;stroke-linejoin:miter;stroke-opacity:1;font-family:Sans"
       id="text4278"
       xml:space="preserve"><tspan
         x="79.594337"
         y="278.44717"
         id="tspan4280">Peñon Viejo</tspan></text>
    <text
       x="80.949318"
       y="314.44717"
       style="font-size:15px;font-style:normal;font-weight:normal;fill:#8f1e74;fill-opacity:1;stroke:none;stroke-width:1px;stroke-linecap:butt;stroke-linejoin:miter;stroke-opacity:1;font-family:Sans"
       id="text4282"
       xml:space="preserve"><tspan
         x="80.949318"
         y="314.44717"
         id="tspan4284">Acatitla</tspan></text>
    <text
       x="80.077736"
       y="348.44717"
       style="font-size:15px;font-style:normal;font-weight:normal;fill:#8f1e74;fill-opacity:1;stroke:none;stroke-width:1px;stroke-linecap:butt;stroke-linejoin:miter;stroke-opacity:1;font-family:Sans"
       id="text4286"
       xml:space="preserve"><tspan
         x="80.077736"
         y="348.44717"
         id="tspan4288">Santa Marta</tspan></text>
    <text
       x="99.110451"
       y="378.44717"
       style="font-size:15px;font-style:normal;font-weight:normal;fill:#8f1e74;fill-opacity:1;stroke:none;stroke-width:1px;stroke-linecap:butt;stroke-linejoin:miter;stroke-opacity:1;font-family:Sans"
       id="text4290"
       xml:space="preserve"><tspan
         x="99.110451"
         y="378.44717"
         id="tspan4292">Los Reyes</tspan></text>
    <text
       x="127.11045"
       y="410.44717"
       style="font-size:15px;font-style:normal;font-weight:normal;fill:#8f1e74;fill-opacity:1;stroke:none;stroke-width:1px;stroke-linecap:butt;stroke-linejoin:miter;stroke-opacity:1;font-family:Sans"
       id="text4294"
       xml:space="preserve"><tspan
         x="127.11045"
         y="410.44717"
         id="tspan4296">La Paz</tspan></text>
    <text
       x="52.694046"
       y="95.270897"
       style="font-size:15px;font-style:normal;font-weight:normal;text-align:start;text-anchor:start;fill:#000000;fill-opacity:1;stroke:none;stroke-width:1px;stroke-linecap:butt;stroke-linejoin:miter;stroke-opacity:1;font-family:Sans"
       id="text4777"
       xml:space="preserve"><tspan
         x="52.694046"
         y="95.270897"
         id="tspan4779">Pantitlan</tspan></text>
    <path
       d="M 71.614059,237.92798 C 71.615599,238.6959 71.206799,239.40615 70.542019,239.79055 C 69.877229,240.17495 69.057749,240.17495 68.392959,239.79055 C 67.728179,239.40615 67.319379,238.6959 67.320919,237.92798 C 67.319379,237.16006 67.728179,236.44982 68.392959,236.06541 C 69.057749,235.68101 69.877229,235.68101 70.542019,236.06541 C 71.206799,236.44982 71.615599,237.16006 71.614059,237.92798 L 71.614059,237.92798 z "
       style="fill:#ffffff;fill-opacity:1;fill-rule:evenodd;stroke:#ffffff;stroke-width:3.70000005;stroke-linecap:round;stroke-miterlimit:4;stroke-dasharray:none;stroke-opacity:1"
       id="path5032" />
  </g>
</svg>
