<?xml version="1.0" encoding="UTF-8" standalone="no"?>
<!-- Created with Inkscape (http://www.inkscape.org/) -->
<svg
   xmlns:svg="http://www.w3.org/2000/svg"
   xmlns="http://www.w3.org/2000/svg"
   version="1.0"
   width="158.14284"
   height="623.85712"
   id="svg1901">
  <defs
     id="defs1903" />
  <g
     transform="translate(-95.214279,-1.8621819)"
     style="opacity:1"
     id="layer1">
    <path
       d="M 120.1773,52.17332 L 120.1773,571.1019"
       style="fill:none;fill-opacity:1;fill-rule:evenodd;stroke:#96cfb8;stroke-width:9;stroke-linecap:round;stroke-miterlimit:4;stroke-dasharray:none;stroke-opacity:1"
       id="path3447" />
    <path
       d="M 127.23947,160.48125 C 127.24116,164.17848 124.24444,167.17657 120.54721,167.17657 C 116.84998,167.17657 113.85326,164.17848 113.85495,160.48125 C 113.85326,156.78402 116.84998,153.78593 120.54721,153.78593 C 124.24444,153.78593 127.24116,156.78402 127.23947,160.48125 z "
       style="fill:#ffffff;fill-opacity:1;fill-rule:evenodd;stroke:#000000;stroke-width:3.70000005;stroke-linecap:round;stroke-miterlimit:4;stroke-dasharray:none;stroke-opacity:1"
       id="path3479" />
    <path
       d="M 127.23947,52.9 C 127.24116,56.59723 124.24444,59.59532 120.54721,59.59532 C 116.84998,59.59532 113.85326,56.59723 113.85495,52.9 C 113.85326,49.20277 116.84998,46.20468 120.54721,46.20468 C 124.24444,46.20468 127.24116,49.20277 127.23947,52.9 z "
       style="fill:#ffffff;fill-opacity:1;fill-rule:evenodd;stroke:#000000;stroke-width:3.70000005;stroke-linecap:round;stroke-miterlimit:4;stroke-dasharray:none;stroke-opacity:1"
       id="path3481" />
    <path
       d="M 127.23948,289.78078 C 127.24117,293.47801 124.24445,296.4761 120.54722,296.4761 C 116.84999,296.4761 113.85327,293.47801 113.85496,289.78078 C 113.85327,286.08355 116.84999,283.08546 120.54722,283.08546 C 124.24445,283.08546 127.24117,286.08355 127.23948,289.78078 z "
       style="fill:#ffffff;fill-opacity:1;fill-rule:evenodd;stroke:#000000;stroke-width:3.70000005;stroke-linecap:round;stroke-miterlimit:4;stroke-dasharray:none;stroke-opacity:1"
       id="path3487" />
    <path
       d="M 126.7344,251.90006 C 126.73609,255.59729 123.73937,258.59538 120.04214,258.59538 C 116.34491,258.59538 113.34819,255.59729 113.34988,251.90006 C 113.34819,248.20283 116.34491,245.20474 120.04214,245.20474 C 123.73937,245.20474 126.73609,248.20283 126.7344,251.90006 z "
       style="fill:#ffffff;fill-opacity:1;fill-rule:evenodd;stroke:#000000;stroke-width:3.70000005;stroke-linecap:round;stroke-miterlimit:4;stroke-dasharray:none;stroke-opacity:1"
       id="path3489" />
    <path
       d="M 126.98694,570.35066 C 126.98863,574.04789 123.99191,577.04598 120.29468,577.04598 C 116.59745,577.04598 113.60073,574.04789 113.60242,570.35066 C 113.60073,566.65343 116.59745,563.65534 120.29468,563.65534 C 123.99191,563.65534 126.98863,566.65343 126.98694,570.35066 z "
       style="fill:#ffffff;fill-opacity:1;fill-rule:evenodd;stroke:#000000;stroke-width:3.70000005;stroke-linecap:round;stroke-miterlimit:4;stroke-dasharray:none;stroke-opacity:1"
       id="path3493" />
    <path
       d="M 127.23948,515.54988 C 127.24117,519.24711 124.24445,522.2452 120.54722,522.2452 C 116.84999,522.2452 113.85327,519.24711 113.85496,515.54988 C 113.85327,511.85265 116.84999,508.85456 120.54722,508.85456 C 124.24445,508.85456 127.24117,511.85265 127.23948,515.54988 z "
       style="fill:#ffffff;fill-opacity:1;fill-rule:evenodd;stroke:#000000;stroke-width:3.70000005;stroke-linecap:round;stroke-miterlimit:4;stroke-dasharray:none;stroke-opacity:1"
       id="path3495" />
    <path
       d="M 122.85584,82.24491 C 122.85738,83.01283 122.44858,83.72308 121.7838,84.10748 C 121.11901,84.49188 120.29953,84.49188 119.63474,84.10748 C 118.96996,83.72308 118.56116,83.01283 118.5627,82.24491 C 118.56116,81.47699 118.96996,80.76675 119.63474,80.38234 C 120.29953,79.99794 121.11901,79.99794 121.7838,80.38234 C 122.44858,80.76675 122.85738,81.47699 122.85584,82.24491 L 122.85584,82.24491 z "
       style="fill:#ffffff;fill-opacity:1;fill-rule:evenodd;stroke:#ffffff;stroke-width:3.70000005;stroke-linecap:round;stroke-miterlimit:4;stroke-dasharray:none;stroke-opacity:1"
       id="path3747" />
    <path
       d="M 122.85584,211.03936 C 122.85738,211.80728 122.44858,212.51753 121.7838,212.90193 C 121.11901,213.28633 120.29953,213.28633 119.63474,212.90193 C 118.96996,212.51753 118.56116,211.80728 118.5627,211.03936 C 118.56116,210.27144 118.96996,209.5612 119.63474,209.17679 C 120.29953,208.79239 121.11901,208.79239 121.7838,209.17679 C 122.44858,209.5612 122.85738,210.27144 122.85584,211.03936 L 122.85584,211.03936 z "
       style="fill:#ffffff;fill-opacity:1;fill-rule:evenodd;stroke:#ffffff;stroke-width:3.70000005;stroke-linecap:round;stroke-miterlimit:4;stroke-dasharray:none;stroke-opacity:1"
       id="path3749" />
    <path
       d="M 122.85584,110.52918 C 122.85738,111.2971 122.44858,112.00735 121.7838,112.39175 C 121.11901,112.77615 120.29953,112.77615 119.63474,112.39175 C 118.96996,112.00735 118.56116,111.2971 118.5627,110.52918 C 118.56116,109.76126 118.96996,109.05102 119.63474,108.66661 C 120.29953,108.28221 121.11901,108.28221 121.7838,108.66661 C 122.44858,109.05102 122.85738,109.76126 122.85584,110.52918 L 122.85584,110.52918 z "
       style="fill:#ffffff;fill-opacity:1;fill-rule:evenodd;stroke:#ffffff;stroke-width:3.70000005;stroke-linecap:round;stroke-miterlimit:4;stroke-dasharray:none;stroke-opacity:1"
       id="path3751" />
    <path
       d="M 122.85584,421.65617 C 122.85738,422.42409 122.44858,423.13433 121.7838,423.51874 C 121.11901,423.90314 120.29953,423.90314 119.63474,423.51874 C 118.96996,423.13433 118.56116,422.42409 118.5627,421.65617 C 118.56116,420.88825 118.96996,420.17801 119.63474,419.7936 C 120.29953,419.4092 121.11901,419.4092 121.7838,419.7936 C 122.44858,420.17801 122.85738,420.88825 122.85584,421.65617 L 122.85584,421.65617 z "
       style="fill:#ffffff;fill-opacity:1;fill-rule:evenodd;stroke:#ffffff;stroke-width:3.70000005;stroke-linecap:round;stroke-miterlimit:4;stroke-dasharray:none;stroke-opacity:1"
       id="path3753" />
    <rect
       width="30.526741"
       height="30.526741"
       rx="3.2829957"
       ry="3.2829957"
       x="105.36308"
       y="9.8688688"
       style="fill:#96cfb8;fill-opacity:1;fill-rule:evenodd;stroke:none;stroke-width:1;stroke-linecap:round;stroke-miterlimit:4;stroke-dasharray:none;stroke-opacity:1"
       id="rect4050" />
    <text
       x="111.79832"
       y="36.632236"
       style="font-size:32px;font-style:normal;font-weight:bold;fill:#ffffff;fill-opacity:1;stroke:none;stroke-width:1px;stroke-linecap:butt;stroke-linejoin:miter;stroke-opacity:1;font-family:Arial"
       id="text4052"
       xml:space="preserve"><tspan
         x="111.79832"
         y="36.632236"
         id="tspan4054">4</tspan></text>
    <rect
       width="30.526741"
       height="30.526741"
       rx="3.2829957"
       ry="3.2829957"
       x="105.36308"
       y="583.75732"
       style="fill:#96cfb8;fill-opacity:1;fill-rule:evenodd;stroke:none;stroke-width:1;stroke-linecap:round;stroke-miterlimit:4;stroke-dasharray:none;stroke-opacity:1"
       id="rect4062" />
    <text
       x="111.79832"
       y="610.52069"
       style="font-size:32px;font-style:normal;font-weight:bold;fill:#ffffff;fill-opacity:1;stroke:none;stroke-width:1px;stroke-linecap:butt;stroke-linejoin:miter;stroke-opacity:1;font-family:Arial"
       id="text4064"
       xml:space="preserve"><tspan
         x="111.79832"
         y="610.52069"
         id="tspan4066">4</tspan></text>
    <text
       x="134.64105"
       y="86.993179"
       style="font-size:15px;font-style:normal;font-weight:normal;fill:#96cfb8;fill-opacity:1;stroke:none;stroke-width:1px;stroke-linecap:butt;stroke-linejoin:miter;stroke-opacity:1;font-family:Sans"
       id="text4398"
       xml:space="preserve"><tspan
         x="134.64105"
         y="86.993179"
         id="tspan4400">Talisman</tspan></text>
    <text
       x="133.12494"
       y="112.99318"
       style="font-size:15px;font-style:normal;font-weight:normal;fill:#96cfb8;fill-opacity:1;stroke:none;stroke-width:1px;stroke-linecap:butt;stroke-linejoin:miter;stroke-opacity:1;font-family:Sans"
       id="text4402"
       xml:space="preserve"><tspan
         x="133.12494"
         y="112.99318"
         id="tspan4404">Bondojito</tspan></text>
    <text
       x="133.75482"
       y="204.99316"
       style="font-size:15px;font-style:normal;font-weight:normal;fill:#96cfb8;fill-opacity:1;stroke:none;stroke-width:1px;stroke-linecap:butt;stroke-linejoin:miter;stroke-opacity:1;font-family:Sans"
       id="text4406"
       xml:space="preserve"><tspan
         x="133.75482"
         y="204.99316"
         id="tspan4408">Canal del</tspan><tspan
         x="133.75482"
         y="223.74316"
         id="tspan4410">Norte</tspan></text>
    <text
       x="133.60834"
       y="420.03625"
       style="font-size:15px;font-style:normal;font-weight:normal;text-align:start;text-anchor:start;fill:#96cfb8;fill-opacity:1;stroke:none;stroke-width:1px;stroke-linecap:butt;stroke-linejoin:miter;stroke-opacity:1;font-family:Sans"
       id="text4412"
       xml:space="preserve"><tspan
         x="133.60834"
         y="420.03625"
         style="text-align:start;text-anchor:start"
         id="tspan4416">Fray</tspan><tspan
         x="133.60834"
         y="438.78625"
         style="text-align:start;text-anchor:start"
         id="tspan4420">Servando</tspan></text>
    <text
       x="133.12494"
       y="58.912472"
       style="font-size:15px;font-style:normal;font-weight:normal;text-align:start;text-anchor:start;fill:#000000;fill-opacity:1;stroke:none;stroke-width:1px;stroke-linecap:butt;stroke-linejoin:miter;stroke-opacity:1;font-family:Sans"
       id="text4711"
       xml:space="preserve"><tspan
         x="133.12494"
         y="58.912472"
         id="tspan4715">Martin Carrera</tspan></text>
    <text
       x="133.75482"
       y="166.50531"
       style="font-size:15px;font-style:normal;font-weight:normal;text-align:start;text-anchor:start;fill:#000000;fill-opacity:1;stroke:none;stroke-width:1px;stroke-linecap:butt;stroke-linejoin:miter;stroke-opacity:1;font-family:Sans"
       id="text4719"
       xml:space="preserve"><tspan
         x="133.75482"
         y="166.50531"
         id="tspan4721">Consulado</tspan></text>
    <text
       x="133.12494"
       y="257.39664"
       style="font-size:15px;font-style:normal;font-weight:normal;text-align:start;text-anchor:start;fill:#000000;fill-opacity:1;stroke:none;stroke-width:1px;stroke-linecap:butt;stroke-linejoin:miter;stroke-opacity:1;font-family:Sans"
       id="text4791"
       xml:space="preserve"><tspan
         x="133.12494"
         y="257.39664"
         id="tspan4795">Morelos</tspan></text>
    <text
       x="133.75482"
       y="294.12976"
       style="font-size:15px;font-style:normal;font-weight:normal;text-align:start;text-anchor:start;fill:#000000;fill-opacity:1;stroke:none;stroke-width:1px;stroke-linecap:butt;stroke-linejoin:miter;stroke-opacity:1;font-family:Sans"
       id="text4799"
       xml:space="preserve"><tspan
         x="133.75482"
         y="294.12976"
         id="tspan4801">Candelaria</tspan></text>
    <text
       x="133.60834"
       y="576.34711"
       style="font-size:15px;font-style:normal;font-weight:normal;text-align:start;text-anchor:start;fill:#000000;fill-opacity:1;stroke:none;stroke-width:1px;stroke-linecap:butt;stroke-linejoin:miter;stroke-opacity:1;font-family:Sans"
       id="text4769"
       xml:space="preserve"><tspan
         x="133.60834"
         y="576.34711"
         id="tspan4773">Santa Anita</tspan></text>
    <text
       x="135.37347"
       y="520.98993"
       style="font-size:15px;font-style:normal;font-weight:normal;text-align:start;text-anchor:start;fill:#000000;fill-opacity:1;stroke:none;stroke-width:1px;stroke-linecap:butt;stroke-linejoin:miter;stroke-opacity:1;font-family:Sans"
       id="text4817"
       xml:space="preserve"><tspan
         x="135.37347"
         y="520.98993"
         id="tspan4819">Jamaica</tspan></text>
  </g>
</svg>
