<?xml version="1.0" encoding="UTF-8" standalone="no"?>
<!-- Created with Inkscape (http://www.inkscape.org/) -->
<svg
   xmlns:svg="http://www.w3.org/2000/svg"
   xmlns="http://www.w3.org/2000/svg"
   version="1.0"
   width="534.36053"
   height="700.02557"
   id="svg1901">
  <defs
     id="defs1903" />
  <g
     transform="translate(-57.078693,-1.3035354)"
     style="opacity:1"
     id="layer1">
    <path
       d="M 429.04007,647.30659 L 429.04007,628.61877"
       style="fill:#03923f;fill-opacity:1;fill-rule:evenodd;stroke:#000000;stroke-width:1;stroke-linecap:round;stroke-miterlimit:4;stroke-dasharray:none;stroke-opacity:1"
       id="path4564" />
    <path
       d="M 505.75959,627.41066 L 382.18816,627.41066 L 354.86673,600.08924 L 354.86673,430.62495 L 331.56316,407.32138 L 242.90244,407.32138 L 85.447089,249.86602 L 85.447089,56.33923"
       style="fill:none;fill-opacity:1;fill-rule:evenodd;stroke:#03923f;stroke-width:9;stroke-linecap:round;stroke-miterlimit:4;stroke-dasharray:none;stroke-opacity:1"
       id="path3449" />
    <path
       d="M 92.154199,93.36419 C 92.155889,97.06142 89.159169,100.05951 85.461939,100.05951 C 81.764709,100.05951 78.767989,97.06142 78.769679,93.36419 C 78.767989,89.66696 81.764709,86.66887 85.461939,86.66887 C 89.159169,86.66887 92.155889,89.66696 92.154199,93.36419 z "
       style="fill:#ffffff;fill-opacity:1;fill-rule:evenodd;stroke:#000000;stroke-width:3.70000005;stroke-linecap:round;stroke-miterlimit:4;stroke-dasharray:none;stroke-opacity:1"
       id="path3475" />
    <path
       d="M 92.154199,57.50377 C 92.155889,61.201 89.159169,64.19909 85.461939,64.19909 C 81.764709,64.19909 78.767989,61.201 78.769679,57.50377 C 78.767989,53.80654 81.764709,50.80845 85.461939,50.80845 C 89.159169,50.80845 92.155889,53.80654 92.154199,57.50377 z "
       style="fill:#ffffff;fill-opacity:1;fill-rule:evenodd;stroke:#000000;stroke-width:3.70000005;stroke-linecap:round;stroke-miterlimit:4;stroke-dasharray:none;stroke-opacity:1"
       id="path3477" />
    <path
       d="M 307.56923,407.01657 C 307.57092,410.7138 304.5742,413.71189 300.87697,413.71189 C 297.17974,413.71189 294.18302,410.7138 294.18471,407.01657 C 294.18302,403.31934 297.17974,400.32125 300.87697,400.32125 C 304.5742,400.32125 307.57092,403.31934 307.56923,407.01657 z "
       style="fill:#ffffff;fill-opacity:1;fill-rule:evenodd;stroke:#000000;stroke-width:3.70000005;stroke-linecap:round;stroke-miterlimit:4;stroke-dasharray:none;stroke-opacity:1"
       id="path3493" />
    <path
       d="M 194.68468,351.71071 C 194.68637,355.40794 191.68965,358.40603 187.99242,358.40603 C 184.29519,358.40603 181.29847,355.40794 181.30016,351.71071 C 181.29847,348.01348 184.29519,345.01539 187.99242,345.01539 C 191.68965,345.01539 194.68637,348.01348 194.68468,351.71071 z "
       style="fill:#ffffff;fill-opacity:1;fill-rule:evenodd;stroke:#000000;stroke-width:3.70000005;stroke-linecap:round;stroke-miterlimit:4;stroke-dasharray:none;stroke-opacity:1"
       id="path3497" />
    <path
       d="M 92.659279,216.85534 C 92.660969,220.55257 89.664249,223.55066 85.967019,223.55066 C 82.269789,223.55066 79.273069,220.55257 79.274759,216.85534 C 79.273069,213.15811 82.269789,210.16002 85.967019,210.16002 C 89.664249,210.16002 92.660969,213.15811 92.659279,216.85534 z "
       style="fill:#ffffff;fill-opacity:1;fill-rule:evenodd;stroke:#000000;stroke-width:3.70000005;stroke-linecap:round;stroke-miterlimit:4;stroke-dasharray:none;stroke-opacity:1"
       id="path3501" />
    <path
       d="M 88.239779,152.27981 C 88.241319,153.04773 87.832519,153.75797 87.167739,154.14238 C 86.502949,154.52678 85.683469,154.52678 85.018679,154.14238 C 84.353899,153.75797 83.945099,153.04773 83.946639,152.27981 C 83.945099,151.51189 84.353899,150.80165 85.018679,150.41724 C 85.683469,150.03284 86.502949,150.03284 87.167739,150.41724 C 87.832519,150.80165 88.241319,151.51189 88.239779,152.27981 L 88.239779,152.27981 z "
       style="fill:#ffffff;fill-opacity:1;fill-rule:evenodd;stroke:#ffffff;stroke-width:3.70000005;stroke-linecap:round;stroke-miterlimit:4;stroke-dasharray:none;stroke-opacity:1"
       id="path3538" />
    <path
       d="M 100.86668,262.38644 C 100.86822,263.15436 100.45942,263.86461 99.794639,264.24901 C 99.129849,264.63341 98.310369,264.63341 97.645579,264.24901 C 96.980799,263.86461 96.571999,263.15436 96.573539,262.38644 C 96.571999,261.61852 96.980799,260.90828 97.645579,260.52387 C 98.310369,260.13947 99.129849,260.13947 99.794639,260.52387 C 100.45942,260.90828 100.86822,261.61852 100.86668,262.38644 L 100.86668,262.38644 z "
       style="fill:#ffffff;fill-opacity:1;fill-rule:evenodd;stroke:#ffffff;stroke-width:3.70000005;stroke-linecap:round;stroke-miterlimit:4;stroke-dasharray:none;stroke-opacity:1"
       id="path3540" />
    <path
       d="M 131.67638,293.70117 C 131.67792,294.46909 131.26912,295.17934 130.60434,295.56374 C 129.93955,295.94814 129.12007,295.94814 128.45528,295.56374 C 127.7905,295.17934 127.3817,294.46909 127.38324,293.70117 C 127.3817,292.93325 127.7905,292.22301 128.45528,291.8386 C 129.12007,291.4542 129.93955,291.4542 130.60434,291.8386 C 131.26912,292.22301 131.67792,292.93325 131.67638,293.70117 L 131.67638,293.70117 z "
       style="fill:#ffffff;fill-opacity:1;fill-rule:evenodd;stroke:#ffffff;stroke-width:3.70000005;stroke-linecap:round;stroke-miterlimit:4;stroke-dasharray:none;stroke-opacity:1"
       id="path3542" />
    <path
       d="M 228.65102,390.67586 C 228.65256,391.44378 228.24376,392.15403 227.57898,392.53843 C 226.91419,392.92283 226.09471,392.92283 225.42992,392.53843 C 224.76514,392.15403 224.35634,391.44378 224.35788,390.67586 C 224.35634,389.90794 224.76514,389.1977 225.42992,388.81329 C 226.09471,388.42889 226.91419,388.42889 227.57898,388.81329 C 228.24376,389.1977 228.65256,389.90794 228.65102,390.67586 L 228.65102,390.67586 z "
       style="fill:#ffffff;fill-opacity:1;fill-rule:evenodd;stroke:#ffffff;stroke-width:3.70000005;stroke-linecap:round;stroke-miterlimit:4;stroke-dasharray:none;stroke-opacity:1"
       id="path3544" />
    <path
       d="M 356.94039,443.70886 C 356.94193,444.47678 356.53313,445.18703 355.86835,445.57143 C 355.20356,445.95583 354.38408,445.95583 353.71929,445.57143 C 353.05451,445.18703 352.64571,444.47678 352.64725,443.70886 C 352.64571,442.94094 353.05451,442.2307 353.71929,441.84629 C 354.38408,441.46189 355.20356,441.46189 355.86835,441.84629 C 356.53313,442.2307 356.94193,442.94094 356.94039,443.70886 L 356.94039,443.70886 z "
       style="fill:#ffffff;fill-opacity:1;fill-rule:evenodd;stroke:#ffffff;stroke-width:3.70000005;stroke-linecap:round;stroke-miterlimit:4;stroke-dasharray:none;stroke-opacity:1"
       id="path3546" />
    <path
       d="M 356.94039,477.54896 C 356.94193,478.31688 356.53313,479.02712 355.86835,479.41153 C 355.20356,479.79593 354.38408,479.79593 353.71929,479.41153 C 353.05451,479.02712 352.64571,478.31688 352.64725,477.54896 C 352.64571,476.78104 353.05451,476.0708 353.71929,475.68639 C 354.38408,475.30199 355.20356,475.30199 355.86835,475.68639 C 356.53313,476.0708 356.94193,476.78104 356.94039,477.54896 L 356.94039,477.54896 z "
       style="fill:#ffffff;fill-opacity:1;fill-rule:evenodd;stroke:#ffffff;stroke-width:3.70000005;stroke-linecap:round;stroke-miterlimit:4;stroke-dasharray:none;stroke-opacity:1"
       id="path3548" />
    <path
       d="M 356.94039,512.39926 C 356.94193,513.16718 356.53313,513.87742 355.86835,514.26183 C 355.20356,514.64623 354.38408,514.64623 353.71929,514.26183 C 353.05451,513.87742 352.64571,513.16718 352.64725,512.39926 C 352.64571,511.63134 353.05451,510.9211 353.71929,510.53669 C 354.38408,510.15229 355.20356,510.15229 355.86835,510.53669 C 356.53313,510.9211 356.94193,511.63134 356.94039,512.39926 L 356.94039,512.39926 z "
       style="fill:#ffffff;fill-opacity:1;fill-rule:evenodd;stroke:#ffffff;stroke-width:3.70000005;stroke-linecap:round;stroke-miterlimit:4;stroke-dasharray:none;stroke-opacity:1"
       id="path3550" />
    <path
       d="M 356.94039,547.75456 C 356.94193,548.52248 356.53313,549.23272 355.86835,549.61713 C 355.20356,550.00153 354.38408,550.00153 353.71929,549.61713 C 353.05451,549.23272 352.64571,548.52248 352.64725,547.75456 C 352.64571,546.98664 353.05451,546.2764 353.71929,545.89199 C 354.38408,545.50759 355.20356,545.50759 355.86835,545.89199 C 356.53313,546.2764 356.94193,546.98664 356.94039,547.75456 L 356.94039,547.75456 z "
       style="fill:#ffffff;fill-opacity:1;fill-rule:evenodd;stroke:#ffffff;stroke-width:3.70000005;stroke-linecap:round;stroke-miterlimit:4;stroke-dasharray:none;stroke-opacity:1"
       id="path3552" />
    <path
       d="M 356.94039,582.09976 C 356.94193,582.86768 356.53313,583.57793 355.86835,583.96233 C 355.20356,584.34673 354.38408,584.34673 353.71929,583.96233 C 353.05451,583.57793 352.64571,582.86768 352.64725,582.09976 C 352.64571,581.33184 353.05451,580.6216 353.71929,580.23719 C 354.38408,579.85279 355.20356,579.85279 355.86835,580.23719 C 356.53313,580.6216 356.94193,581.33184 356.94039,582.09976 L 356.94039,582.09976 z "
       style="fill:#ffffff;fill-opacity:1;fill-rule:evenodd;stroke:#ffffff;stroke-width:3.70000005;stroke-linecap:round;stroke-miterlimit:4;stroke-dasharray:none;stroke-opacity:1"
       id="path3554" />
    <path
       d="M 369.5673,612.90946 C 369.56884,613.67738 369.16004,614.38762 368.49526,614.77203 C 367.83047,615.15643 367.01099,615.15643 366.3462,614.77203 C 365.68142,614.38762 365.27262,613.67738 365.27416,612.90946 C 365.27262,612.14154 365.68142,611.4313 366.3462,611.04689 C 367.01099,610.66249 367.83047,610.66249 368.49526,611.04689 C 369.16004,611.4313 369.56884,612.14154 369.5673,612.90946 L 369.5673,612.90946 z "
       style="fill:#ffffff;fill-opacity:1;fill-rule:evenodd;stroke:#ffffff;stroke-width:3.70000005;stroke-linecap:round;stroke-miterlimit:4;stroke-dasharray:none;stroke-opacity:1"
       id="path3556" />
    <path
       d="M 396.84142,627.05156 C 396.84296,627.81948 396.43416,628.52972 395.76938,628.91413 C 395.10459,629.29853 394.28511,629.29853 393.62032,628.91413 C 392.95554,628.52972 392.54674,627.81948 392.54828,627.05156 C 392.54674,626.28364 392.95554,625.5734 393.62032,625.18899 C 394.28511,624.80459 395.10459,624.80459 395.76938,625.18899 C 396.43416,625.5734 396.84296,626.28364 396.84142,627.05156 L 396.84142,627.05156 z "
       style="fill:#ffffff;fill-opacity:1;fill-rule:evenodd;stroke:#ffffff;stroke-width:3.70000005;stroke-linecap:round;stroke-miterlimit:4;stroke-dasharray:none;stroke-opacity:1"
       id="path3558" />
    <path
       d="M 431.69168,627.05156 C 431.69322,627.81948 431.28442,628.52972 430.61964,628.91413 C 429.95485,629.29853 429.13537,629.29853 428.47058,628.91413 C 427.8058,628.52972 427.397,627.81948 427.39854,627.05156 C 427.397,626.28364 427.8058,625.5734 428.47058,625.18899 C 429.13537,624.80459 429.95485,624.80459 430.61964,625.18899 C 431.28442,625.5734 431.69322,626.28364 431.69168,627.05156 L 431.69168,627.05156 z "
       style="fill:#ffffff;fill-opacity:1;fill-rule:evenodd;stroke:#ffffff;stroke-width:3.70000005;stroke-linecap:round;stroke-miterlimit:4;stroke-dasharray:none;stroke-opacity:1"
       id="path3560" />
    <path
       d="M 466.03687,627.05156 C 466.03841,627.81948 465.62961,628.52972 464.96483,628.91413 C 464.30004,629.29853 463.48056,629.29853 462.81577,628.91413 C 462.15099,628.52972 461.74219,627.81948 461.74373,627.05156 C 461.74219,626.28364 462.15099,625.5734 462.81577,625.18899 C 463.48056,624.80459 464.30004,624.80459 464.96483,625.18899 C 465.62961,625.5734 466.03841,626.28364 466.03687,627.05156 L 466.03687,627.05156 z "
       style="fill:#ffffff;fill-opacity:1;fill-rule:evenodd;stroke:#ffffff;stroke-width:3.70000005;stroke-linecap:round;stroke-miterlimit:4;stroke-dasharray:none;stroke-opacity:1"
       id="path3562" />
    <path
       d="M 500.38206,627.05156 C 500.3836,627.81948 499.9748,628.52972 499.31002,628.91413 C 498.64523,629.29853 497.82575,629.29853 497.16096,628.91413 C 496.49618,628.52972 496.08738,627.81948 496.08892,627.05156 C 496.08738,626.28364 496.49618,625.5734 497.16096,625.18899 C 497.82575,624.80459 498.64523,624.80459 499.31002,625.18899 C 499.9748,625.5734 500.3836,626.28364 500.38206,627.05156 L 500.38206,627.05156 z "
       style="fill:#ffffff;fill-opacity:1;fill-rule:evenodd;stroke:#ffffff;stroke-width:3.70000005;stroke-linecap:round;stroke-miterlimit:4;stroke-dasharray:none;stroke-opacity:1"
       id="path3564" />
    <rect
       width="30.526741"
       height="30.526741"
       rx="3.2829957"
       ry="3.2829957"
       x="514.46014"
       y="600.59998"
       style="fill:#03923f;fill-opacity:1;fill-rule:evenodd;stroke:none;stroke-width:1;stroke-linecap:round;stroke-miterlimit:4;stroke-dasharray:none;stroke-opacity:1"
       id="rect4110" />
    <text
       x="520.89539"
       y="627.16022"
       style="font-size:32px;font-style:normal;font-weight:bold;fill:#ffffff;fill-opacity:1;stroke:none;stroke-width:1px;stroke-linecap:butt;stroke-linejoin:miter;stroke-opacity:1;font-family:Arial"
       id="text4112"
       xml:space="preserve"><tspan
         x="520.89539"
         y="627.16022"
         id="tspan4114">8</tspan></text>
    <rect
       width="30.526741"
       height="30.526741"
       rx="3.2829957"
       ry="3.2829957"
       x="70.548859"
       y="12.691212"
       style="fill:#03923f;fill-opacity:1;fill-rule:evenodd;stroke:none;stroke-width:1;stroke-linecap:round;stroke-miterlimit:4;stroke-dasharray:none;stroke-opacity:1"
       id="rect4116" />
    <text
       x="76.9841"
       y="39.251453"
       style="font-size:32px;font-style:normal;font-weight:bold;fill:#ffffff;fill-opacity:1;stroke:none;stroke-width:1px;stroke-linecap:butt;stroke-linejoin:miter;stroke-opacity:1;font-family:Arial"
       id="text4118"
       xml:space="preserve"><tspan
         x="76.9841"
         y="39.251453"
         id="tspan4120">8</tspan></text>
    <text
       x="527.78375"
       y="648.66864"
       style="font-size:15px;font-style:normal;font-weight:normal;text-align:center;text-anchor:middle;fill:#03923f;fill-opacity:1;stroke:none;stroke-width:1px;stroke-linecap:butt;stroke-linejoin:miter;stroke-opacity:1;font-family:Sans"
       id="text4528"
       xml:space="preserve"><tspan
         x="527.78375"
         y="648.66864"
         id="tspan4530">Constitucion</tspan><tspan
         x="527.78375"
         y="667.41864"
         id="tspan4532">de 1917</tspan></text>
    <text
       x="433.33447"
       y="664.32599"
       style="font-size:15px;font-style:normal;font-weight:normal;text-align:center;text-anchor:middle;fill:#03923f;fill-opacity:1;stroke:none;stroke-width:1px;stroke-linecap:butt;stroke-linejoin:miter;stroke-opacity:1;font-family:Sans"
       id="text4534"
       xml:space="preserve"><tspan
         x="433.33447"
         y="664.32599"
         id="tspan4538">C de la</tspan><tspan
         x="433.33447"
         y="683.07599"
         id="tspan4542">Estrella</tspan></text>
    <text
       x="441.92078"
       y="616.84882"
       style="font-size:15px;font-style:normal;font-weight:normal;text-align:start;text-anchor:start;fill:#03923f;fill-opacity:1;stroke:none;stroke-width:1px;stroke-linecap:butt;stroke-linejoin:miter;stroke-opacity:1;font-family:Sans"
       id="text4544"
       xml:space="preserve"><tspan
         x="441.92078"
         y="616.84882"
         id="tspan4548">UAM 1</tspan></text>
    <text
       x="301.00455"
       y="625.94019"
       style="font-size:15px;font-style:normal;font-weight:normal;text-align:start;text-anchor:start;fill:#03923f;fill-opacity:1;stroke:none;stroke-width:1px;stroke-linecap:butt;stroke-linejoin:miter;stroke-opacity:1;font-family:Sans"
       id="text4552"
       xml:space="preserve"><tspan
         x="301.00455"
         y="625.94019"
         id="tspan4554">Atlalilco</tspan></text>
    <text
       x="323.73294"
       y="647.65845"
       style="font-size:15px;font-style:normal;font-weight:normal;text-align:start;text-anchor:start;fill:#03923f;fill-opacity:1;stroke:none;stroke-width:1px;stroke-linecap:butt;stroke-linejoin:miter;stroke-opacity:1;font-family:Sans"
       id="text4556"
       xml:space="preserve"><tspan
         x="323.73294"
         y="647.65845"
         id="tspan4558">Iztapalapa</tspan></text>
    <text
       x="364.13904"
       y="586.03918"
       style="font-size:15px;font-style:normal;font-weight:normal;text-align:start;text-anchor:start;fill:#03923f;fill-opacity:1;stroke:none;stroke-width:1px;stroke-linecap:butt;stroke-linejoin:miter;stroke-opacity:1;font-family:Sans"
       id="text4560"
       xml:space="preserve"><tspan
         x="364.13904"
         y="586.03918"
         id="tspan4562">Escuadron 201</tspan></text>
    <text
       x="364.13904"
       y="553.04932"
       style="font-size:15px;font-style:normal;font-weight:normal;text-align:start;text-anchor:start;fill:#03923f;fill-opacity:1;stroke:none;stroke-width:1px;stroke-linecap:butt;stroke-linejoin:miter;stroke-opacity:1;font-family:Sans"
       id="text4567"
       xml:space="preserve"><tspan
         x="364.13904"
         y="553.04932"
         id="tspan4569">Aculco</tspan></text>
    <text
       x="364.13904"
       y="517.04932"
       style="font-size:15px;font-style:normal;font-weight:normal;text-align:start;text-anchor:start;fill:#03923f;fill-opacity:1;stroke:none;stroke-width:1px;stroke-linecap:butt;stroke-linejoin:miter;stroke-opacity:1;font-family:Sans"
       id="text4571"
       xml:space="preserve"><tspan
         x="364.13904"
         y="517.04932"
         id="tspan4573">Apatlaco</tspan></text>
    <text
       x="364.13904"
       y="484.05945"
       style="font-size:15px;font-style:normal;font-weight:normal;text-align:start;text-anchor:start;fill:#03923f;fill-opacity:1;stroke:none;stroke-width:1px;stroke-linecap:butt;stroke-linejoin:miter;stroke-opacity:1;font-family:Sans"
       id="text4575"
       xml:space="preserve"><tspan
         x="364.13904"
         y="484.05945"
         id="tspan4577">Iztacalco</tspan></text>
    <text
       x="364.13904"
       y="450.05945"
       style="font-size:15px;font-style:normal;font-weight:normal;text-align:start;text-anchor:start;fill:#03923f;fill-opacity:1;stroke:none;stroke-width:1px;stroke-linecap:butt;stroke-linejoin:miter;stroke-opacity:1;font-family:Sans"
       id="text4579"
       xml:space="preserve"><tspan
         x="364.13904"
         y="450.05945"
         id="tspan4581">Coyuya</tspan></text>
    <text
       x="230.79887"
       y="385.40967"
       style="font-size:15px;font-style:normal;font-weight:normal;text-align:start;text-anchor:start;fill:#03923f;fill-opacity:1;stroke:none;stroke-width:1px;stroke-linecap:butt;stroke-linejoin:miter;stroke-opacity:1;font-family:Sans"
       id="text4583"
       xml:space="preserve"><tspan
         x="230.79887"
         y="385.40967"
         id="tspan4585">La Viga</tspan></text>
    <text
       x="145.18846"
       y="292.47571"
       style="font-size:15px;font-style:normal;font-weight:normal;text-align:start;text-anchor:start;fill:#03923f;fill-opacity:1;stroke:none;stroke-width:1px;stroke-linecap:butt;stroke-linejoin:miter;stroke-opacity:1;font-family:Sans"
       id="text4587"
       xml:space="preserve"><tspan
         x="145.18846"
         y="292.47571"
         id="tspan4589">Obrera</tspan></text>
    <text
       x="110.33818"
       y="261.66602"
       style="font-size:15px;font-style:normal;font-weight:normal;text-align:start;text-anchor:start;fill:#03923f;fill-opacity:1;stroke:none;stroke-width:1px;stroke-linecap:butt;stroke-linejoin:miter;stroke-opacity:1;font-family:Sans"
       id="text4591"
       xml:space="preserve"><tspan
         x="110.33818"
         y="261.66602"
         id="tspan4593">Doctores</tspan></text>
    <text
       x="98.022018"
       y="149.59492"
       style="font-size:15px;font-style:normal;font-weight:normal;text-align:start;text-anchor:start;fill:#03923f;fill-opacity:1;stroke:none;stroke-width:1px;stroke-linecap:butt;stroke-linejoin:miter;stroke-opacity:1;font-family:Sans"
       id="text4595"
       xml:space="preserve"><tspan
         x="98.022018"
         y="149.59492"
         id="tspan4597">San Juan</tspan><tspan
         x="98.022018"
         y="168.34492"
         id="tspan4599">de Letran</tspan></text>
    <text
       x="98.486771"
       y="59.428635"
       style="font-size:15px;font-style:normal;font-weight:normal;text-align:start;text-anchor:start;fill:#000000;fill-opacity:1;stroke:none;stroke-width:1px;stroke-linecap:butt;stroke-linejoin:miter;stroke-opacity:1;font-family:Sans"
       id="text4729"
       xml:space="preserve"><tspan
         x="98.486771"
         y="59.428635"
         id="tspan4731">Garibaldi</tspan></text>
    <text
       x="99.118759"
       y="207.51859"
       style="font-size:15px;font-style:normal;font-weight:normal;text-align:start;text-anchor:start;fill:#000000;fill-opacity:1;stroke:none;stroke-width:1px;stroke-linecap:butt;stroke-linejoin:miter;stroke-opacity:1;font-family:Sans"
       id="text4749"
       xml:space="preserve"><tspan
         x="99.118759"
         y="207.51859"
         style="text-align:start;text-anchor:start"
         id="tspan4753">Salto del</tspan><tspan
         x="99.118759"
         y="226.26859"
         style="text-align:start;text-anchor:start"
         id="tspan4757">Agua</tspan></text>
    <text
       x="225.95508"
       y="431.42114"
       style="font-size:15px;font-style:normal;font-weight:normal;text-align:start;text-anchor:start;fill:#000000;fill-opacity:1;stroke:none;stroke-width:1px;stroke-linecap:butt;stroke-linejoin:miter;stroke-opacity:1;font-family:Sans"
       id="text4769"
       xml:space="preserve"><tspan
         x="225.95508"
         y="431.42114"
         id="tspan4773">Santa Anita</tspan></text>
    <text
       x="205.58742"
       y="350.46176"
       style="font-size:15px;font-style:normal;font-weight:normal;text-align:start;text-anchor:start;fill:#000000;fill-opacity:1;stroke:none;stroke-width:1px;stroke-linecap:butt;stroke-linejoin:miter;stroke-opacity:1;font-family:Sans"
       id="text4813"
       xml:space="preserve"><tspan
         x="205.58742"
         y="350.46176"
         id="tspan4815">Chabacano</tspan></text>
    <text
       x="98.486771"
       y="97.428635"
       style="font-size:15px;font-style:normal;font-weight:normal;text-align:start;text-anchor:start;fill:#000000;fill-opacity:1;stroke:none;stroke-width:1px;stroke-linecap:butt;stroke-linejoin:miter;stroke-opacity:1;font-family:Sans"
       id="text4763"
       xml:space="preserve"><tspan
         x="98.486771"
         y="97.428635"
         id="tspan4765">Bellas Artes</tspan></text>
  </g>
</svg>
