<?xml version="1.0" encoding="UTF-8" standalone="no"?>
<!-- Created with Inkscape (http://www.inkscape.org/) -->
<svg
   xmlns:svg="http://www.w3.org/2000/svg"
   xmlns="http://www.w3.org/2000/svg"
   version="1.0"
   width="175.28569"
   height="792.42859"
   id="svg1901">
  <defs
     id="defs1903" />
  <g
     transform="translate(-102.35714,20.994963)"
     style="opacity:1"
     id="layer1">
    <path
       d="M 134.13878,39.775347 L 134.13878,714.55722"
       style="fill:none;fill-opacity:1;fill-rule:evenodd;stroke:#ee953a;stroke-width:9;stroke-linecap:round;stroke-miterlimit:4;stroke-dasharray:none;stroke-opacity:1"
       id="path3434" />
    <path
       d="M 140.95732,543.71521 C 140.95901,547.41244 137.96229,550.41053 134.26506,550.41053 C 130.56783,550.41053 127.57111,547.41244 127.5728,543.71521 C 127.57111,540.01798 130.56783,537.01989 134.26506,537.01989 C 137.96229,537.01989 140.95901,540.01798 140.95732,543.71521 z "
       style="fill:#ffffff;fill-opacity:1;fill-rule:evenodd;stroke:#000000;stroke-width:3.70000005;stroke-linecap:round;stroke-miterlimit:4;stroke-dasharray:none;stroke-opacity:1"
       id="path3459" />
    <path
       d="M 140.1997,216.67831 C 140.20139,220.37554 137.20467,223.37363 133.50744,223.37363 C 129.81021,223.37363 126.81349,220.37554 126.81518,216.67831 C 126.81349,212.98108 129.81021,209.98299 133.50744,209.98299 C 137.20467,209.98299 140.20139,212.98108 140.1997,216.67831 z "
       style="fill:#ffffff;fill-opacity:1;fill-rule:evenodd;stroke:#000000;stroke-width:3.70000005;stroke-linecap:round;stroke-miterlimit:4;stroke-dasharray:none;stroke-opacity:1"
       id="path3461" />
    <path
       d="M 141.20985,40.406697 C 141.21154,44.103927 138.21482,47.102017 134.51759,47.102017 C 130.82036,47.102017 127.82364,44.103927 127.82533,40.406697 C 127.82364,36.709467 130.82036,33.711377 134.51759,33.711377 C 138.21482,33.711377 141.21154,36.709467 141.20985,40.406697 z "
       style="fill:#ffffff;fill-opacity:1;fill-rule:evenodd;stroke:#000000;stroke-width:3.70000005;stroke-linecap:round;stroke-miterlimit:4;stroke-dasharray:none;stroke-opacity:1"
       id="path3463" />
    <path
       d="M 136.21028,86.544647 C 136.21182,87.312567 135.80302,88.022807 135.13824,88.407217 C 134.47345,88.791617 133.65397,88.791617 132.98918,88.407217 C 132.3244,88.022807 131.9156,87.312567 131.91714,86.544647 C 131.9156,85.776727 132.3244,85.066487 132.98918,84.682077 C 133.65397,84.297677 134.47345,84.297677 135.13824,84.682077 C 135.80302,85.066487 136.21182,85.776727 136.21028,86.544647 L 136.21028,86.544647 z "
       style="fill:#ffffff;fill-opacity:1;fill-rule:evenodd;stroke:#ffffff;stroke-width:3.70000005;stroke-linecap:round;stroke-miterlimit:4;stroke-dasharray:none;stroke-opacity:1"
       id="path3605" />
    <path
       d="M 136.21028,117.97322 C 136.21182,118.74114 135.80302,119.45139 135.13824,119.83579 C 134.47345,120.22019 133.65397,120.22019 132.98918,119.83579 C 132.3244,119.45139 131.9156,118.74114 131.91714,117.97322 C 131.9156,117.2053 132.3244,116.49506 132.98918,116.11065 C 133.65397,115.72625 134.47345,115.72625 135.13824,116.11065 C 135.80302,116.49506 136.21182,117.2053 136.21028,117.97322 L 136.21028,117.97322 z "
       style="fill:#ffffff;fill-opacity:1;fill-rule:evenodd;stroke:#ffffff;stroke-width:3.70000005;stroke-linecap:round;stroke-miterlimit:4;stroke-dasharray:none;stroke-opacity:1"
       id="path3607" />
    <path
       d="M 136.21028,174.04464 C 136.21182,174.81256 135.80302,175.5228 135.13824,175.90721 C 134.47345,176.29161 133.65397,176.29161 132.98918,175.90721 C 132.3244,175.5228 131.9156,174.81256 131.91714,174.04464 C 131.9156,173.27672 132.3244,172.56648 132.98918,172.18207 C 133.65397,171.79767 134.47345,171.79767 135.13824,172.18207 C 135.80302,172.56648 136.21182,173.27672 136.21028,174.04464 L 136.21028,174.04464 z "
       style="fill:#ffffff;fill-opacity:1;fill-rule:evenodd;stroke:#ffffff;stroke-width:3.70000005;stroke-linecap:round;stroke-miterlimit:4;stroke-dasharray:none;stroke-opacity:1"
       id="path3609" />
    <path
       d="M 136.21028,292.61607 C 136.21182,293.38399 135.80302,294.09423 135.13824,294.47864 C 134.47345,294.86304 133.65397,294.86304 132.98918,294.47864 C 132.3244,294.09423 131.9156,293.38399 131.91714,292.61607 C 131.9156,291.84815 132.3244,291.13791 132.98918,290.7535 C 133.65397,290.3691 134.47345,290.3691 135.13824,290.7535 C 135.80302,291.13791 136.21182,291.84815 136.21028,292.61607 L 136.21028,292.61607 z "
       style="fill:#ffffff;fill-opacity:1;fill-rule:evenodd;stroke:#ffffff;stroke-width:3.70000005;stroke-linecap:round;stroke-miterlimit:4;stroke-dasharray:none;stroke-opacity:1"
       id="path3611" />
    <path
       d="M 136.21028,420.47323 C 136.21182,421.24115 135.80302,421.95139 135.13824,422.3358 C 134.47345,422.7202 133.65397,422.7202 132.98918,422.3358 C 132.3244,421.95139 131.9156,421.24115 131.91714,420.47323 C 131.9156,419.70531 132.3244,418.99507 132.98918,418.61066 C 133.65397,418.22626 134.47345,418.22626 135.13824,418.61066 C 135.80302,418.99507 136.21182,419.70531 136.21028,420.47323 L 136.21028,420.47323 z "
       style="fill:#ffffff;fill-opacity:1;fill-rule:evenodd;stroke:#ffffff;stroke-width:3.70000005;stroke-linecap:round;stroke-miterlimit:4;stroke-dasharray:none;stroke-opacity:1"
       id="path3615" />
    <path
       d="M 136.21028,482.97323 C 136.21182,483.74115 135.80302,484.4514 135.13824,484.8358 C 134.47345,485.2202 133.65397,485.2202 132.98918,484.8358 C 132.3244,484.4514 131.9156,483.74115 131.91714,482.97323 C 131.9156,482.20531 132.3244,481.49507 132.98918,481.11066 C 133.65397,480.72626 134.47345,480.72626 135.13824,481.11066 C 135.80302,481.49507 136.21182,482.20531 136.21028,482.97323 L 136.21028,482.97323 z "
       style="fill:#ffffff;fill-opacity:1;fill-rule:evenodd;stroke:#ffffff;stroke-width:3.70000005;stroke-linecap:round;stroke-miterlimit:4;stroke-dasharray:none;stroke-opacity:1"
       id="path3617" />
    <path
       d="M 136.21028,602.97326 C 136.21182,603.74118 135.80302,604.45143 135.13824,604.83583 C 134.47345,605.22023 133.65397,605.22023 132.98918,604.83583 C 132.3244,604.45143 131.9156,603.74118 131.91714,602.97326 C 131.9156,602.20534 132.3244,601.4951 132.98918,601.11069 C 133.65397,600.72629 134.47345,600.72629 135.13824,601.11069 C 135.80302,601.4951 136.21182,602.20534 136.21028,602.97326 L 136.21028,602.97326 z "
       style="fill:#ffffff;fill-opacity:1;fill-rule:evenodd;stroke:#ffffff;stroke-width:3.70000005;stroke-linecap:round;stroke-miterlimit:4;stroke-dasharray:none;stroke-opacity:1"
       id="path3619" />
    <path
       d="M 136.21028,637.25896 C 136.21182,638.02688 135.80302,638.73712 135.13824,639.12153 C 134.47345,639.50593 133.65397,639.50593 132.98918,639.12153 C 132.3244,638.73712 131.9156,638.02688 131.91714,637.25896 C 131.9156,636.49104 132.3244,635.7808 132.98918,635.39639 C 133.65397,635.01199 134.47345,635.01199 135.13824,635.39639 C 135.80302,635.7808 136.21182,636.49104 136.21028,637.25896 L 136.21028,637.25896 z "
       style="fill:#ffffff;fill-opacity:1;fill-rule:evenodd;stroke:#ffffff;stroke-width:3.70000005;stroke-linecap:round;stroke-miterlimit:4;stroke-dasharray:none;stroke-opacity:1"
       id="path3621" />
    <path
       d="M 136.21028,671.54466 C 136.21182,672.31258 135.80302,673.02283 135.13824,673.40723 C 134.47345,673.79163 133.65397,673.79163 132.98918,673.40723 C 132.3244,673.02283 131.9156,672.31258 131.91714,671.54466 C 131.9156,670.77674 132.3244,670.0665 132.98918,669.68209 C 133.65397,669.29769 134.47345,669.29769 135.13824,669.68209 C 135.80302,670.0665 136.21182,670.77674 136.21028,671.54466 L 136.21028,671.54466 z "
       style="fill:#ffffff;fill-opacity:1;fill-rule:evenodd;stroke:#ffffff;stroke-width:3.70000005;stroke-linecap:round;stroke-miterlimit:4;stroke-dasharray:none;stroke-opacity:1"
       id="path3623" />
    <path
       d="M 136.21028,706.18756 C 136.21182,706.95548 135.80302,707.66573 135.13824,708.05013 C 134.47345,708.43453 133.65397,708.43453 132.98918,708.05013 C 132.3244,707.66573 131.9156,706.95548 131.91714,706.18756 C 131.9156,705.41964 132.3244,704.7094 132.98918,704.32499 C 133.65397,703.94059 134.47345,703.94059 135.13824,704.32499 C 135.80302,704.7094 136.21182,705.41964 136.21028,706.18756 L 136.21028,706.18756 z "
       style="fill:#ffffff;fill-opacity:1;fill-rule:evenodd;stroke:#ffffff;stroke-width:3.70000005;stroke-linecap:round;stroke-miterlimit:4;stroke-dasharray:none;stroke-opacity:1"
       id="path3625" />
    <rect
       width="30.526741"
       height="30.526741"
       rx="3.2829957"
       ry="3.2829957"
       x="118.02013"
       y="-4.6075683"
       style="fill:#ee953a;fill-opacity:1;fill-rule:evenodd;stroke:none;stroke-width:1;stroke-linecap:round;stroke-miterlimit:4;stroke-dasharray:none;stroke-opacity:1"
       id="rect4044" />
    <text
       x="124.41631"
       y="21.952673"
       style="font-size:32px;font-style:normal;font-weight:bold;fill:#ffffff;fill-opacity:1;stroke:none;stroke-width:1px;stroke-linecap:butt;stroke-linejoin:miter;stroke-opacity:1;font-family:Arial"
       id="text4046"
       xml:space="preserve"><tspan
         x="124.41631"
         y="21.952673"
         id="tspan4048">7</tspan></text>
    <rect
       width="30.526741"
       height="30.526741"
       rx="3.2829957"
       ry="3.2829957"
       x="119.99838"
       y="725.94806"
       style="fill:#ee953a;fill-opacity:1;fill-rule:evenodd;stroke:none;stroke-width:1;stroke-linecap:round;stroke-miterlimit:4;stroke-dasharray:none;stroke-opacity:1"
       id="rect4068" />
    <text
       x="126.39458"
       y="752.5083"
       style="font-size:32px;font-style:normal;font-weight:bold;fill:#ffffff;fill-opacity:1;stroke:none;stroke-width:1px;stroke-linecap:butt;stroke-linejoin:miter;stroke-opacity:1;font-family:Arial"
       id="text4070"
       xml:space="preserve"><tspan
         x="126.39458"
         y="752.5083"
         id="tspan4072">7</tspan></text>
    <text
       x="202.46326"
       y="81.70182"
       style="font-size:15px;font-style:normal;font-weight:normal;text-align:end;text-anchor:end;fill:#ee953a;fill-opacity:1;stroke:none;stroke-width:1px;stroke-linecap:butt;stroke-linejoin:miter;stroke-opacity:1;font-family:Sans"
       id="text4601"
       xml:space="preserve"><tspan
         x="202.46326"
         y="81.70182"
         id="tspan4603">Aquiles</tspan><tspan
         x="202.46326"
         y="100.45182"
         id="tspan4605">Serdan</tspan></text>
    <text
       x="232.44128"
       y="129.70181"
       style="font-size:15px;font-style:normal;font-weight:normal;text-align:end;text-anchor:end;fill:#ee953a;fill-opacity:1;stroke:none;stroke-width:1px;stroke-linecap:butt;stroke-linejoin:miter;stroke-opacity:1;font-family:Sans"
       id="text4607"
       xml:space="preserve"><tspan
         x="232.44128"
         y="129.70181"
         id="tspan4611">Camarones</tspan></text>
    <text
       x="235.72253"
       y="295.70181"
       style="font-size:15px;font-style:normal;font-weight:normal;text-align:end;text-anchor:end;fill:#ee953a;fill-opacity:1;stroke:none;stroke-width:1px;stroke-linecap:butt;stroke-linejoin:miter;stroke-opacity:1;font-family:Sans"
       id="text4615"
       xml:space="preserve"><tspan
         x="235.72253"
         y="295.70181"
         id="tspan4617">San Joaquin</tspan></text>
    <text
       x="216.0863"
       y="424.71198"
       style="font-size:15px;font-style:normal;font-weight:normal;text-align:end;text-anchor:end;fill:#ee953a;fill-opacity:1;stroke:none;stroke-width:1px;stroke-linecap:butt;stroke-linejoin:miter;stroke-opacity:1;font-family:Sans"
       id="text4623"
       xml:space="preserve"><tspan
         x="216.0863"
         y="424.71198"
         id="tspan4625">Auditorio</tspan></text>
    <text
       x="260.36121"
       y="486.71198"
       style="font-size:15px;font-style:normal;font-weight:normal;text-align:end;text-anchor:end;fill:#ee953a;fill-opacity:1;stroke:none;stroke-width:1px;stroke-linecap:butt;stroke-linejoin:miter;stroke-opacity:1;font-family:Sans"
       id="text4627"
       xml:space="preserve"><tspan
         x="260.36121"
         y="486.71198"
         id="tspan4629">Constituyentes</tspan></text>
    <text
       x="147.34851"
       y="598.3338"
       style="font-size:15px;font-style:normal;font-weight:normal;text-align:start;text-anchor:start;fill:#ee953a;fill-opacity:1;stroke:none;stroke-width:1px;stroke-linecap:butt;stroke-linejoin:miter;stroke-opacity:1;font-family:Sans"
       id="text4631"
       xml:space="preserve"><tspan
         x="147.34851"
         y="598.3338"
         id="tspan4633">San Pedro</tspan><tspan
         x="147.34851"
         y="617.0838"
         id="tspan4635">de los Pinos</tspan></text>
    <text
       x="147.18738"
       y="644.3338"
       style="font-size:15px;font-style:normal;font-weight:normal;text-align:start;text-anchor:start;fill:#ee953a;fill-opacity:1;stroke:none;stroke-width:1px;stroke-linecap:butt;stroke-linejoin:miter;stroke-opacity:1;font-family:Sans"
       id="text4637"
       xml:space="preserve"><tspan
         x="147.18738"
         y="644.3338"
         id="tspan4641">San Antonio</tspan></text>
    <text
       x="146.70398"
       y="676.3338"
       style="font-size:15px;font-style:normal;font-weight:normal;text-align:start;text-anchor:start;fill:#ee953a;fill-opacity:1;stroke:none;stroke-width:1px;stroke-linecap:butt;stroke-linejoin:miter;stroke-opacity:1;font-family:Sans"
       id="text4645"
       xml:space="preserve"><tspan
         x="146.70398"
         y="676.3338"
         id="tspan4647">Mixcoac</tspan></text>
    <text
       x="147.34851"
       y="704.3338"
       style="font-size:15px;font-style:normal;font-weight:normal;text-align:start;text-anchor:start;fill:#ee953a;fill-opacity:1;stroke:none;stroke-width:1px;stroke-linecap:butt;stroke-linejoin:miter;stroke-opacity:1;font-family:Sans"
       id="text4649"
       xml:space="preserve"><tspan
         x="147.34851"
         y="704.3338"
         id="tspan4651">Barranca</tspan><tspan
         x="147.34851"
         y="723.0838"
         id="tspan4653">del Muerto</tspan></text>
    <text
       x="146.70398"
       y="45.555294"
       style="font-size:15px;font-style:normal;font-weight:normal;text-align:start;text-anchor:start;fill:#000000;fill-opacity:1;stroke:none;stroke-width:1px;stroke-linecap:butt;stroke-linejoin:miter;stroke-opacity:1;font-family:Sans"
       id="text4689"
       xml:space="preserve"><tspan
         x="146.70398"
         y="45.555294"
         id="tspan4691">El Rosario</tspan></text>
    <text
       x="148.22009"
       y="547.36475"
       style="font-size:15px;font-style:normal;font-weight:normal;text-align:start;text-anchor:start;fill:#000000;fill-opacity:1;stroke:none;stroke-width:1px;stroke-linecap:butt;stroke-linejoin:miter;stroke-opacity:1;font-family:Sans"
       id="text4759"
       xml:space="preserve"><tspan
         x="148.22009"
         y="547.36475"
         id="tspan4761">Tacubaya</tspan></text>
    <text
       x="148.22009"
       y="221.36475"
       style="font-size:15px;font-style:normal;font-weight:normal;text-align:start;text-anchor:start;fill:#000000;fill-opacity:1;stroke:none;stroke-width:1px;stroke-linecap:butt;stroke-linejoin:miter;stroke-opacity:1;font-family:Sans"
       id="text4612"
       xml:space="preserve"><tspan
         x="148.22009"
         y="221.36475"
         id="tspan4614">Tacuba</tspan></text>
    <text
       x="213.41296"
       y="182.55896"
       style="font-size:15px;font-style:normal;font-weight:normal;text-align:end;text-anchor:end;fill:#ee953a;fill-opacity:1;stroke:none;stroke-width:1px;stroke-linecap:butt;stroke-linejoin:miter;stroke-opacity:1;font-family:Sans"
       id="text4616"
       xml:space="preserve"><tspan
         x="213.41296"
         y="182.55896"
         id="tspan4618">Refineria</tspan></text>
  </g>
</svg>
