<?xml version="1.0" encoding="UTF-8" standalone="no"?>
<!-- Created with Inkscape (http://www.inkscape.org/) -->
<svg
   xmlns:svg="http://www.w3.org/2000/svg"
   xmlns="http://www.w3.org/2000/svg"
   version="1.0"
   width="901.5"
   height="331.18875"
   id="svg1901">
  <defs
     id="defs1903" />
  <g
     transform="translate(278.68021,-135.33923)"
     style="opacity:1"
     id="layer1">
    <path
       d="M 15.609718,255.49354 L 28.5381,270.80995"
       style="fill:#d35590;fill-opacity:1;fill-rule:evenodd;stroke:#000000;stroke-width:1;stroke-linecap:round;stroke-miterlimit:4;stroke-dasharray:none;stroke-opacity:1"
       id="path4360" />
    <path
       d="M -186.07835,442.01663 L -17.294636,273.30031 L 263.22153,273.30031 L 349.64489,186.91148 L 385.11147,186.91148 L 461.92754,263.69686 L 461.92754,320.51381 L 503.76372,362.33329 L 542.89123,362.33329"
       style="fill:none;fill-opacity:1;fill-rule:evenodd;stroke:#d35590;stroke-width:9;stroke-linecap:round;stroke-miterlimit:4;stroke-dasharray:none;stroke-opacity:1"
       id="path3453" />
    <path
       d="M 391.49043,185.49278 C 391.49203,188.99648 388.65104,191.83763 385.14594,191.83763 C 381.64085,191.83763 378.79986,188.99648 378.80146,185.49278 C 378.79986,181.98908 381.64085,179.14793 385.14594,179.14793 C 388.65104,179.14793 391.49203,181.98908 391.49043,185.49278 z "
       style="fill:#ffffff;fill-opacity:1;fill-rule:evenodd;stroke:#000000;stroke-width:3.69999981;stroke-linecap:round;stroke-miterlimit:4;stroke-dasharray:none;stroke-opacity:1"
       id="path3485" />
    <path
       d="M 355.57826,186.92869 C 355.57986,190.43239 352.73887,193.27354 349.23377,193.27354 C 345.72868,193.27354 342.88769,190.43239 342.88929,186.92869 C 342.88769,183.425 345.72868,180.58385 349.23377,180.58385 C 352.73887,180.58385 355.57986,183.425 355.57826,186.92869 z "
       style="fill:#ffffff;fill-opacity:1;fill-rule:evenodd;stroke:#000000;stroke-width:3.69999981;stroke-linecap:round;stroke-miterlimit:4;stroke-dasharray:none;stroke-opacity:1"
       id="path3487" />
    <path
       d="M 549.9828,362.58874 C 549.98441,366.09243 547.14342,368.93359 543.63832,368.93359 C 540.13323,368.93359 537.29224,366.09243 537.29384,362.58874 C 537.29224,359.08504 540.13323,356.24389 543.63832,356.24389 C 547.14342,356.24389 549.98441,359.08504 549.9828,362.58874 z "
       style="fill:#ffffff;fill-opacity:1;fill-rule:evenodd;stroke:#000000;stroke-width:3.69999981;stroke-linecap:round;stroke-miterlimit:4;stroke-dasharray:none;stroke-opacity:1"
       id="path3491" />
    <path
       d="M 248.32057,272.12621 C 248.32218,275.62991 245.48119,278.47106 241.97609,278.47106 C 238.471,278.47106 235.63001,275.62991 235.63161,272.12621 C 235.63001,268.62251 238.471,265.78136 241.97609,265.78136 C 245.48119,265.78136 248.32218,268.62251 248.32057,272.12621 z "
       style="fill:#ffffff;fill-opacity:1;fill-rule:evenodd;stroke:#000000;stroke-width:3.69999981;stroke-linecap:round;stroke-miterlimit:4;stroke-dasharray:none;stroke-opacity:1"
       id="path3499" />
    <path
       d="M 151.59714,272.60484 C 151.59874,276.10854 148.75775,278.94969 145.25266,278.94969 C 141.74756,278.94969 138.90657,276.10854 138.90817,272.60484 C 138.90657,269.10114 141.74756,266.25999 145.25266,266.25999 C 148.75775,266.25999 151.59874,269.10114 151.59714,272.60484 z "
       style="fill:#ffffff;fill-opacity:1;fill-rule:evenodd;stroke:#000000;stroke-width:3.69999981;stroke-linecap:round;stroke-miterlimit:4;stroke-dasharray:none;stroke-opacity:1"
       id="path3501" />
    <path
       d="M 76.899827,272.60484 C 76.90143,276.10854 74.06044,278.94969 70.555345,278.94969 C 67.050249,278.94969 64.20926,276.10854 64.210862,272.60484 C 64.20926,269.10114 67.050249,266.25999 70.555345,266.25999 C 74.06044,266.25999 76.90143,269.10114 76.899827,272.60484 z "
       style="fill:#ffffff;fill-opacity:1;fill-rule:evenodd;stroke:#000000;stroke-width:3.69999981;stroke-linecap:round;stroke-miterlimit:4;stroke-dasharray:none;stroke-opacity:1"
       id="path3503" />
    <path
       d="M -178.86419,437.94258 C -178.86273,438.6703 -179.25028,439.34336 -179.88052,439.70765 C -180.51076,440.07193 -181.28765,440.07193 -181.9179,439.70765 C -182.54813,439.34336 -182.93569,438.6703 -182.93423,437.94258 C -182.93569,437.21486 -182.54813,436.54179 -181.9179,436.17751 C -181.28765,435.81323 -180.51076,435.81323 -179.88052,436.17751 C -179.25028,436.54179 -178.86273,437.21486 -178.86419,437.94258 L -178.86419,437.94258 z "
       style="fill:#ffffff;fill-opacity:1;fill-rule:evenodd;stroke:#ffffff;stroke-width:3.69999981;stroke-linecap:round;stroke-miterlimit:4;stroke-dasharray:none;stroke-opacity:1"
       id="path3627" />
    <path
       d="M -108.4389,366.19161 C -108.43744,366.91933 -108.825,367.5924 -109.45523,367.95668 C -110.08547,368.32096 -110.86237,368.32096 -111.49261,367.95668 C -112.12284,367.5924 -112.5104,366.91933 -112.50894,366.19161 C -112.5104,365.46388 -112.12284,364.79082 -111.49261,364.42653 C -110.86237,364.06226 -110.08547,364.06226 -109.45523,364.42653 C -108.825,364.79082 -108.43744,365.46388 -108.4389,366.19161 L -108.4389,366.19161 z "
       style="fill:#ffffff;fill-opacity:1;fill-rule:evenodd;stroke:#ffffff;stroke-width:3.69999981;stroke-linecap:round;stroke-miterlimit:4;stroke-dasharray:none;stroke-opacity:1"
       id="path3629" />
    <path
       d="M -77.289286,335.0544 C -77.287826,335.78212 -77.675382,336.45518 -78.305615,336.81947 C -78.935858,337.18375 -79.712752,337.18375 -80.342995,336.81947 C -80.973228,336.45518 -81.360784,335.78212 -81.359324,335.0544 C -81.360784,334.32667 -80.973228,333.65361 -80.342995,333.28932 C -79.712752,332.92505 -78.935858,332.92505 -78.305615,333.28932 C -77.675382,333.65361 -77.287826,334.32667 -77.289286,335.0544 L -77.289286,335.0544 z "
       style="fill:#ffffff;fill-opacity:1;fill-rule:evenodd;stroke:#ffffff;stroke-width:3.69999981;stroke-linecap:round;stroke-miterlimit:4;stroke-dasharray:none;stroke-opacity:1"
       id="path3631" />
    <path
       d="M -42.753775,300.53271 C -42.752315,301.26043 -43.139871,301.93349 -43.770104,302.29778 C -44.400347,302.66206 -45.177241,302.66206 -45.807484,302.29778 C -46.437717,301.93349 -46.825273,301.26043 -46.823813,300.53271 C -46.825273,299.80498 -46.437717,299.13192 -45.807484,298.76763 C -45.177241,298.40336 -44.400347,298.40336 -43.770104,298.76763 C -43.139871,299.13192 -42.752315,299.80498 -42.753775,300.53271 L -42.753775,300.53271 z "
       style="fill:#ffffff;fill-opacity:1;fill-rule:evenodd;stroke:#ffffff;stroke-width:3.69999981;stroke-linecap:round;stroke-miterlimit:4;stroke-dasharray:none;stroke-opacity:1"
       id="path3633" />
    <path
       d="M -6.863998,272.77998 C -6.862538,273.5077 -7.250094,274.18077 -7.880328,274.54505 C -8.5105703,274.90933 -9.2874644,274.90933 -9.9177072,274.54505 C -10.54794,274.18077 -10.935496,273.5077 -10.934036,272.77998 C -10.935496,272.05225 -10.54794,271.37919 -9.9177072,271.0149 C -9.2874644,270.65063 -8.5105703,270.65063 -7.880328,271.0149 C -7.250094,271.37919 -6.862538,272.05225 -6.863998,272.77998 L -6.863998,272.77998 z "
       style="fill:#ffffff;fill-opacity:1;fill-rule:evenodd;stroke:#ffffff;stroke-width:3.69999981;stroke-linecap:round;stroke-miterlimit:4;stroke-dasharray:none;stroke-opacity:1"
       id="path3635" />
    <path
       d="M 31.057317,272.77998 C 31.058777,273.5077 30.671221,274.18077 30.040988,274.54505 C 29.410745,274.90933 28.633851,274.90933 28.003609,274.54505 C 27.373375,274.18077 26.985819,273.5077 26.987279,272.77998 C 26.985819,272.05225 27.373375,271.37919 28.003609,271.0149 C 28.633851,270.65063 29.410745,270.65063 30.040988,271.0149 C 30.671221,271.37919 31.058777,272.05225 31.057317,272.77998 L 31.057317,272.77998 z "
       style="fill:#ffffff;fill-opacity:1;fill-rule:evenodd;stroke:#ffffff;stroke-width:3.69999981;stroke-linecap:round;stroke-miterlimit:4;stroke-dasharray:none;stroke-opacity:1"
       id="path3637" />
    <path
       d="M 195.94725,272.77998 C 195.94871,273.5077 195.56116,274.18077 194.93093,274.54505 C 194.30068,274.90933 193.52379,274.90933 192.89355,274.54505 C 192.26331,274.18077 191.87576,273.5077 191.87722,272.77998 C 191.87576,272.05225 192.26331,271.37919 192.89355,271.0149 C 193.52379,270.65063 194.30068,270.65063 194.93093,271.0149 C 195.56116,271.37919 195.94871,272.05225 195.94725,272.77998 L 195.94725,272.77998 z "
       style="fill:#ffffff;fill-opacity:1;fill-rule:evenodd;stroke:#ffffff;stroke-width:3.69999981;stroke-linecap:round;stroke-miterlimit:4;stroke-dasharray:none;stroke-opacity:1"
       id="path3639" />
    <path
       d="M 280.59305,257.88826 C 280.59451,258.61599 280.20695,259.28906 279.57672,259.65333 C 278.94647,260.01761 278.16958,260.01761 277.53934,259.65333 C 276.9091,259.28906 276.52155,258.61599 276.52301,257.88826 C 276.52155,257.16054 276.9091,256.48748 277.53934,256.12319 C 278.16958,255.75891 278.94647,255.75891 279.57672,256.12319 C 280.20695,256.48748 280.59451,257.16054 280.59305,257.88826 L 280.59305,257.88826 z "
       style="fill:#ffffff;fill-opacity:1;fill-rule:evenodd;stroke:#ffffff;stroke-width:3.69999981;stroke-linecap:round;stroke-miterlimit:4;stroke-dasharray:none;stroke-opacity:1"
       id="path3641" />
    <path
       d="M 426.18381,226.75105 C 426.18527,227.47878 425.79772,228.15185 425.16748,228.51612 C 424.53724,228.8804 423.76035,228.8804 423.1301,228.51612 C 422.49987,228.15185 422.11232,227.47878 422.11378,226.75105 C 422.11232,226.02333 422.49987,225.35027 423.1301,224.98598 C 423.76035,224.6217 424.53724,224.6217 425.16748,224.98598 C 425.79772,225.35027 426.18527,226.02333 426.18381,226.75105 L 426.18381,226.75105 z "
       style="fill:#ffffff;fill-opacity:1;fill-rule:evenodd;stroke:#ffffff;stroke-width:3.69999981;stroke-linecap:round;stroke-miterlimit:4;stroke-dasharray:none;stroke-opacity:1"
       id="path3643" />
    <path
       d="M 454.6248,254.50378 C 454.62626,255.2315 454.2387,255.90457 453.60847,256.26885 C 452.97823,256.63313 452.20133,256.63313 451.57109,256.26885 C 450.94086,255.90457 450.5533,255.2315 450.55476,254.50378 C 450.5533,253.77606 450.94086,253.103 451.57109,252.73871 C 452.20133,252.37443 452.97823,252.37443 453.60847,252.73871 C 454.2387,253.103 454.62626,253.77606 454.6248,254.50378 L 454.6248,254.50378 z "
       style="fill:#ffffff;fill-opacity:1;fill-rule:evenodd;stroke:#ffffff;stroke-width:3.69999981;stroke-linecap:round;stroke-miterlimit:4;stroke-dasharray:none;stroke-opacity:1"
       id="path3645" />
    <path
       d="M 464.44371,292.07151 C 464.44517,292.79923 464.05761,293.47229 463.42738,293.83658 C 462.79714,294.20086 462.02024,294.20086 461.39,293.83658 C 460.75977,293.47229 460.37221,292.79923 460.37367,292.07151 C 460.37221,291.34379 460.75977,290.67072 461.39,290.30644 C 462.02024,289.94216 462.79714,289.94216 463.42738,290.30644 C 464.05761,290.67072 464.44517,291.34379 464.44371,292.07151 L 464.44371,292.07151 z "
       style="fill:#ffffff;fill-opacity:1;fill-rule:evenodd;stroke:#ffffff;stroke-width:3.69999981;stroke-linecap:round;stroke-miterlimit:4;stroke-dasharray:none;stroke-opacity:1"
       id="path3647" />
    <path
       d="M 472.90829,329.63923 C 472.90975,330.36696 472.52219,331.04003 471.89196,331.40431 C 471.26172,331.76859 470.48482,331.76859 469.85458,331.40431 C 469.22435,331.04003 468.83679,330.36696 468.83825,329.63923 C 468.83679,328.91151 469.22435,328.23845 469.85458,327.87416 C 470.48482,327.50988 471.26172,327.50988 471.89196,327.87416 C 472.52219,328.23845 472.90975,328.91151 472.90829,329.63923 L 472.90829,329.63923 z "
       style="fill:#ffffff;fill-opacity:1;fill-rule:evenodd;stroke:#ffffff;stroke-width:3.69999981;stroke-linecap:round;stroke-miterlimit:4;stroke-dasharray:none;stroke-opacity:1"
       id="path3649" />
    <path
       d="M 495.59336,353.33059 C 495.59482,354.05832 495.20726,354.73139 494.57703,355.09566 C 493.94679,355.45994 493.16989,355.45994 492.53965,355.09566 C 491.90942,354.73139 491.52186,354.05832 491.52332,353.33059 C 491.52186,352.60287 491.90942,351.92981 492.53965,351.56552 C 493.16989,351.20124 493.94679,351.20124 494.57703,351.56552 C 495.20726,351.92981 495.59482,352.60287 495.59336,353.33059 L 495.59336,353.33059 z "
       style="fill:#ffffff;fill-opacity:1;fill-rule:evenodd;stroke:#ffffff;stroke-width:3.69999981;stroke-linecap:round;stroke-miterlimit:4;stroke-dasharray:none;stroke-opacity:1"
       id="path3651" />
    <rect
       width="28.940355"
       height="28.928799"
       rx="3.2829957"
       ry="3.2829957"
       x="555.69348"
       y="315.27744"
       style="fill:#d35590;fill-opacity:1;fill-rule:evenodd;stroke:none;stroke-width:1;stroke-linecap:round;stroke-miterlimit:4;stroke-dasharray:none;stroke-opacity:1"
       id="rect4008" />
    <text
       x="562.88141"
       y="340.70789"
       transform="scale(1.0001997,0.9998003)"
       style="font-size:30.33099556px;font-style:normal;font-weight:bold;fill:#ffffff;fill-opacity:1;stroke:none;stroke-width:1px;stroke-linecap:butt;stroke-linejoin:miter;stroke-opacity:1;font-family:Arial"
       id="text4010"
       xml:space="preserve"><tspan
         x="562.88141"
         y="340.70789"
         id="tspan4012">1</tspan></text>
    <rect
       width="28.940355"
       height="28.928799"
       rx="3.2829957"
       ry="3.2829957"
       x="-221.01634"
       y="414.78113"
       style="fill:#d35590;fill-opacity:1;fill-rule:evenodd;stroke:none;stroke-width:1;stroke-linecap:round;stroke-miterlimit:4;stroke-dasharray:none;stroke-opacity:1"
       id="rect4020" />
    <text
       x="-213.67302"
       y="440.23145"
       transform="scale(1.0001997,0.9998003)"
       style="font-size:30.33099556px;font-style:normal;font-weight:bold;fill:#ffffff;fill-opacity:1;stroke:none;stroke-width:1px;stroke-linecap:butt;stroke-linejoin:miter;stroke-opacity:1;font-family:Arial"
       id="text4022"
       xml:space="preserve"><tspan
         x="-213.67302"
         y="440.23145"
         id="tspan4024">1</tspan></text>
    <text
       x="-273.14249"
       y="457.74997"
       transform="scale(1.0001997,0.9998003)"
       style="font-size:14.21765423px;font-style:normal;font-weight:normal;text-align:start;text-anchor:start;fill:#d35590;fill-opacity:1;stroke:none;stroke-width:1px;stroke-linecap:butt;stroke-linejoin:miter;stroke-opacity:1;font-family:Sans"
       id="text4336"
       xml:space="preserve"><tspan
         x="-273.14249"
         y="457.74997"
         id="tspan4338">Observatorio</tspan></text>
    <text
       x="-97.926025"
       y="370.62048"
       transform="scale(1.0001997,0.9998003)"
       style="font-size:14.21765423px;font-style:normal;font-weight:normal;text-align:start;text-anchor:start;fill:#d35590;fill-opacity:1;stroke:none;stroke-width:1px;stroke-linecap:butt;stroke-linejoin:miter;stroke-opacity:1;font-family:Sans"
       id="text4340"
       xml:space="preserve"><tspan
         x="-97.926025"
         y="370.62048"
         id="tspan4342">Juanacatlan</tspan></text>
    <text
       x="-68.723328"
       y="342.37521"
       transform="scale(1.0001997,0.9998003)"
       style="font-size:14.21765423px;font-style:normal;font-weight:normal;text-align:start;text-anchor:start;fill:#d35590;fill-opacity:1;stroke:none;stroke-width:1px;stroke-linecap:butt;stroke-linejoin:miter;stroke-opacity:1;font-family:Sans"
       id="text4344"
       xml:space="preserve"><tspan
         x="-68.723328"
         y="342.37521"
         id="tspan4346">Chapultepec</tspan></text>
    <text
       x="-110.37311"
       y="273.43765"
       transform="scale(1.0001997,0.9998003)"
       style="font-size:14.21765423px;font-style:normal;font-weight:normal;text-align:start;text-anchor:start;fill:#d35590;fill-opacity:1;stroke:none;stroke-width:1px;stroke-linecap:butt;stroke-linejoin:miter;stroke-opacity:1;font-family:Sans"
       id="text4352"
       xml:space="preserve"><tspan
         x="-110.37311"
         y="273.43765"
         id="tspan4354">Insurgentes</tspan></text>
    <text
       x="-44.307961"
       y="254.76706"
       transform="scale(1.0001997,0.9998003)"
       style="font-size:14.21765423px;font-style:normal;font-weight:normal;text-align:start;text-anchor:start;fill:#d35590;fill-opacity:1;stroke:none;stroke-width:1px;stroke-linecap:butt;stroke-linejoin:miter;stroke-opacity:1;font-family:Sans"
       id="text4356"
       xml:space="preserve"><tspan
         x="-44.307961"
         y="254.76706"
         id="tspan4358">Cuauhtemoc</tspan></text>
    <text
       x="194.57993"
       y="246.62862"
       transform="scale(1.0001997,0.9998003)"
       style="font-size:14.21765423px;font-style:normal;font-weight:normal;text-align:center;text-anchor:middle;fill:#d35590;fill-opacity:1;stroke:none;stroke-width:1px;stroke-linecap:butt;stroke-linejoin:miter;stroke-opacity:1;font-family:Sans"
       id="text4362"
       xml:space="preserve"><tspan
         x="194.57993"
         y="246.62862"
         id="tspan4364">Isabel</tspan><tspan
         x="194.57993"
         y="264.4007"
         id="tspan4366">la Catolica</tspan></text>
    <text
       x="285.06055"
       y="271.04404"
       transform="scale(1.0001997,0.9998003)"
       style="font-size:14.21765423px;font-style:normal;font-weight:normal;text-align:start;text-anchor:start;fill:#d35590;fill-opacity:1;stroke:none;stroke-width:1px;stroke-linecap:butt;stroke-linejoin:miter;stroke-opacity:1;font-family:Sans"
       id="text4368"
       xml:space="preserve"><tspan
         x="285.06055"
         y="271.04404"
         id="tspan4372">Merced</tspan></text>
    <text
       x="342.02979"
       y="241.84129"
       transform="scale(1.0001997,0.9998003)"
       style="font-size:14.21765423px;font-style:normal;font-weight:normal;text-align:start;text-anchor:start;fill:#d35590;fill-opacity:1;stroke:none;stroke-width:1px;stroke-linecap:butt;stroke-linejoin:miter;stroke-opacity:1;font-family:Sans"
       id="text4376"
       xml:space="preserve"><tspan
         x="342.02979"
         y="241.84129"
         id="tspan4378">Moctezuma</tspan></text>
    <text
       x="382.72217"
       y="268.17163"
       transform="scale(1.0001997,0.9998003)"
       style="font-size:14.21765423px;font-style:normal;font-weight:normal;text-align:start;text-anchor:start;fill:#d35590;fill-opacity:1;stroke:none;stroke-width:1px;stroke-linecap:butt;stroke-linejoin:miter;stroke-opacity:1;font-family:Sans"
       id="text4380"
       xml:space="preserve"><tspan
         x="382.72217"
         y="268.17163"
         id="tspan4382">Balbuena</tspan></text>
    <text
       x="389.9032"
       y="294.98074"
       transform="scale(1.0001997,0.9998003)"
       style="font-size:14.21765423px;font-style:normal;font-weight:normal;text-align:start;text-anchor:start;fill:#d35590;fill-opacity:1;stroke:none;stroke-width:1px;stroke-linecap:butt;stroke-linejoin:miter;stroke-opacity:1;font-family:Sans"
       id="text4384"
       xml:space="preserve"><tspan
         x="389.9032"
         y="294.98074"
         id="tspan4386">Blvd. Pto.</tspan><tspan
         x="389.9032"
         y="312.75281"
         id="tspan4388">Aereo</tspan></text>
    <text
       x="372.66873"
       y="346.20514"
       transform="scale(1.0001997,0.9998003)"
       style="font-size:14.21765423px;font-style:normal;font-weight:normal;text-align:start;text-anchor:start;fill:#d35590;fill-opacity:1;stroke:none;stroke-width:1px;stroke-linecap:butt;stroke-linejoin:miter;stroke-opacity:1;font-family:Sans"
       id="text4390"
       xml:space="preserve"><tspan
         x="372.66873"
         y="346.20514"
         id="tspan4392">Gomez Farias</tspan></text>
    <text
       x="424.37192"
       y="366.79065"
       transform="scale(1.0001997,0.9998003)"
       style="font-size:14.21765423px;font-style:normal;font-weight:normal;text-align:start;text-anchor:start;fill:#d35590;fill-opacity:1;stroke:none;stroke-width:1px;stroke-linecap:butt;stroke-linejoin:miter;stroke-opacity:1;font-family:Sans"
       id="text4394"
       xml:space="preserve"><tspan
         x="424.37192"
         y="366.79065"
         id="tspan4396">Zaragoza</tspan></text>
    <text
       x="47.649609"
       y="295.70047"
       transform="scale(1.0001997,0.9998003)"
       style="font-size:14.21765423px;font-style:normal;font-weight:normal;text-align:start;text-anchor:start;fill:#000000;fill-opacity:1;stroke:none;stroke-width:1px;stroke-linecap:butt;stroke-linejoin:miter;stroke-opacity:1;font-family:Sans"
       id="text4743"
       xml:space="preserve"><tspan
         x="47.649609"
         y="295.70047"
         id="tspan4745">Balderas</tspan></text>
    <text
       x="139.49756"
       y="245.61763"
       transform="scale(1.0001997,0.9998003)"
       style="font-size:14.21765423px;font-style:normal;font-weight:normal;text-align:end;text-anchor:end;fill:#000000;fill-opacity:1;stroke:none;stroke-width:1px;stroke-linecap:butt;stroke-linejoin:miter;stroke-opacity:1;font-family:Sans"
       id="text4749"
       xml:space="preserve"><tspan
         x="139.49756"
         y="245.61763"
         id="tspan4753">Salto del</tspan><tspan
         x="139.49756"
         y="263.38968"
         id="tspan4757">Agua</tspan></text>
    <text
       x="552.16046"
       y="359.96487"
       transform="scale(1.0001997,0.9998003)"
       style="font-size:14.21765423px;font-style:normal;font-weight:normal;text-align:start;text-anchor:start;fill:#000000;fill-opacity:1;stroke:none;stroke-width:1px;stroke-linecap:butt;stroke-linejoin:miter;stroke-opacity:1;font-family:Sans"
       id="text4777"
       xml:space="preserve"><tspan
         x="552.16046"
         y="359.96487"
         id="tspan4779">Pantitlan</tspan></text>
    <text
       x="380.29544"
       y="154.5883"
       transform="scale(1.0001997,0.9998003)"
       style="font-size:14.21765423px;font-style:normal;font-weight:normal;text-align:start;text-anchor:start;fill:#000000;fill-opacity:1;stroke:none;stroke-width:1px;stroke-linecap:butt;stroke-linejoin:miter;stroke-opacity:1;font-family:Sans"
       id="text4785"
       xml:space="preserve"><tspan
         x="380.29544"
         y="154.5883"
         id="tspan4787">San</tspan><tspan
         x="380.29544"
         y="172.36038"
         id="tspan4789">Lazaro</tspan></text>
    <text
       x="262.04825"
       y="189.0571"
       transform="scale(1.0001997,0.9998003)"
       style="font-size:14.21765423px;font-style:normal;font-weight:normal;text-align:start;text-anchor:start;fill:#000000;fill-opacity:1;stroke:none;stroke-width:1px;stroke-linecap:butt;stroke-linejoin:miter;stroke-opacity:1;font-family:Sans"
       id="text4799"
       xml:space="preserve"><tspan
         x="262.04825"
         y="189.0571"
         id="tspan4801">Candelaria</tspan></text>
    <text
       x="234.17693"
       y="296.52798"
       style="font-size:14px;font-family:Sans"
       id="text5228"
       xml:space="preserve"><tspan
         x="234.17693"
         y="296.52798"
         id="tspan5230">Pino</tspan><tspan
         x="234.17693"
         y="314.02798"
         id="tspan5232">Suarez</tspan></text>
  </g>
</svg>
