<?xml version="1.0" encoding="UTF-8" standalone="no"?>
<!-- Created with Inkscape (http://www.inkscape.org/) -->
<svg
   xmlns:svg="http://www.w3.org/2000/svg"
   xmlns="http://www.w3.org/2000/svg"
   version="1.0"
   width="669.57147"
   height="142.42857"
   id="svg1901">
  <defs
     id="defs1903" />
  <g
     transform="translate(-13.785715,-13.290753)"
     style="opacity:1"
     id="layer1">
    <path
       d="M 315.83424,68.682457 L 315.83424,88.380427"
       style="fill:#000000;fill-opacity:1;fill-rule:evenodd;stroke:#000000;stroke-width:1;stroke-linecap:round;stroke-miterlimit:4;stroke-dasharray:none;stroke-opacity:1"
       id="path4699" />
    <path
       d="M 89.08324,51.420167 L 129.08324,91.420167 L 610.51181,91.420167"
       style="fill:none;fill-opacity:1;fill-rule:evenodd;stroke:#d9261a;stroke-width:9;stroke-linecap:round;stroke-miterlimit:4;stroke-dasharray:none;stroke-opacity:1"
       id="path3445" />
    <path
       d="M 95.62099,50.625987 C 95.62268,54.323217 92.62596,57.321307 88.92873,57.321307 C 85.2315,57.321307 82.23478,54.323217 82.23647,50.625987 C 82.23478,46.928757 85.2315,43.930667 88.92873,43.930667 C 92.62596,43.930667 95.62268,46.928757 95.62099,50.625987 z "
       style="fill:#ffffff;fill-opacity:1;fill-rule:evenodd;stroke:#000000;stroke-width:3.70000005;stroke-linecap:round;stroke-miterlimit:4;stroke-dasharray:none;stroke-opacity:1"
       id="path3463" />
    <path
       d="M 322.40024,91.537167 C 322.40193,95.234397 319.40521,98.232487 315.70798,98.232487 C 312.01075,98.232487 309.01403,95.234397 309.01572,91.537167 C 309.01403,87.839937 312.01075,84.841847 315.70798,84.841847 C 319.40521,84.841847 322.40193,87.839937 322.40024,91.537167 z "
       style="fill:#ffffff;fill-opacity:1;fill-rule:evenodd;stroke:#000000;stroke-width:3.70000005;stroke-linecap:round;stroke-miterlimit:4;stroke-dasharray:none;stroke-opacity:1"
       id="path3465" />
    <path
       d="M 425.94088,92.042237 C 425.94257,95.739467 422.94585,98.737557 419.24862,98.737557 C 415.55139,98.737557 412.55467,95.739467 412.55636,92.042237 C 412.55467,88.345007 415.55139,85.346917 419.24862,85.346917 C 422.94585,85.346917 425.94257,88.345007 425.94088,92.042237 z "
       style="fill:#ffffff;fill-opacity:1;fill-rule:evenodd;stroke:#000000;stroke-width:3.70000005;stroke-linecap:round;stroke-miterlimit:4;stroke-dasharray:none;stroke-opacity:1"
       id="path3467" />
    <path
       d="M 616.8597,91.789697 C 616.86139,95.486927 613.86467,98.485017 610.16744,98.485017 C 606.47021,98.485017 603.47349,95.486927 603.47518,91.789697 C 603.47349,88.092467 606.47021,85.094377 610.16744,85.094377 C 613.86467,85.094377 616.86139,88.092467 616.8597,91.789697 z "
       style="fill:#ffffff;fill-opacity:1;fill-rule:evenodd;stroke:#000000;stroke-width:3.70000005;stroke-linecap:round;stroke-miterlimit:4;stroke-dasharray:none;stroke-opacity:1"
       id="path3481" />
    <path
       d="M 111.94552,72.647287 C 111.94706,73.415207 111.53826,74.125457 110.87348,74.509857 C 110.20869,74.894257 109.38921,74.894257 108.72442,74.509857 C 108.05964,74.125457 107.65084,73.415207 107.65238,72.647287 C 107.65084,71.879367 108.05964,71.169127 108.72442,70.784717 C 109.38921,70.400317 110.20869,70.400317 110.87348,70.784717 C 111.53826,71.169127 111.94706,71.879367 111.94552,72.647287 L 111.94552,72.647287 z "
       style="fill:#ffffff;fill-opacity:1;fill-rule:evenodd;stroke:#ffffff;stroke-width:3.70000005;stroke-linecap:round;stroke-miterlimit:4;stroke-dasharray:none;stroke-opacity:1"
       id="path3733" />
    <path
       d="M 149.82622,91.840187 C 149.82776,92.608107 149.41896,93.318357 148.75418,93.702757 C 148.08939,94.087157 147.26991,94.087157 146.60512,93.702757 C 145.94034,93.318357 145.53154,92.608107 145.53308,91.840187 C 145.53154,91.072267 145.94034,90.362027 146.60512,89.977617 C 147.26991,89.593217 148.08939,89.593217 148.75418,89.977617 C 149.41896,90.362027 149.82776,91.072267 149.82622,91.840187 L 149.82622,91.840187 z "
       style="fill:#ffffff;fill-opacity:1;fill-rule:evenodd;stroke:#ffffff;stroke-width:3.70000005;stroke-linecap:round;stroke-miterlimit:4;stroke-dasharray:none;stroke-opacity:1"
       id="path3735" />
    <path
       d="M 187.70692,91.840187 C 187.70846,92.608107 187.29966,93.318357 186.63488,93.702757 C 185.97009,94.087157 185.15061,94.087157 184.48582,93.702757 C 183.82104,93.318357 183.41224,92.608107 183.41378,91.840187 C 183.41224,91.072267 183.82104,90.362027 184.48582,89.977617 C 185.15061,89.593217 185.97009,89.593217 186.63488,89.977617 C 187.29966,90.362027 187.70846,91.072267 187.70692,91.840187 L 187.70692,91.840187 z "
       style="fill:#ffffff;fill-opacity:1;fill-rule:evenodd;stroke:#ffffff;stroke-width:3.70000005;stroke-linecap:round;stroke-miterlimit:4;stroke-dasharray:none;stroke-opacity:1"
       id="path3737" />
    <path
       d="M 236.69932,91.840187 C 236.70086,92.608107 236.29206,93.318357 235.62728,93.702757 C 234.96249,94.087157 234.14301,94.087157 233.47822,93.702757 C 232.81344,93.318357 232.40464,92.608107 232.40618,91.840187 C 232.40464,91.072267 232.81344,90.362027 233.47822,89.977617 C 234.14301,89.593217 234.96249,89.593217 235.62728,89.977617 C 236.29206,90.362027 236.70086,91.072267 236.69932,91.840187 L 236.69932,91.840187 z "
       style="fill:#ffffff;fill-opacity:1;fill-rule:evenodd;stroke:#ffffff;stroke-width:3.70000005;stroke-linecap:round;stroke-miterlimit:4;stroke-dasharray:none;stroke-opacity:1"
       id="path3739" />
    <path
       d="M 269.52932,91.840187 C 269.53086,92.608107 269.12206,93.318357 268.45728,93.702757 C 267.79249,94.087157 266.97301,94.087157 266.30822,93.702757 C 265.64344,93.318357 265.23464,92.608107 265.23618,91.840187 C 265.23464,91.072267 265.64344,90.362027 266.30822,89.977617 C 266.97301,89.593217 267.79249,89.593217 268.45728,89.977617 C 269.12206,90.362027 269.53086,91.072267 269.52932,91.840187 L 269.52932,91.840187 z "
       style="fill:#ffffff;fill-opacity:1;fill-rule:evenodd;stroke:#ffffff;stroke-width:3.70000005;stroke-linecap:round;stroke-miterlimit:4;stroke-dasharray:none;stroke-opacity:1"
       id="path3741" />
    <path
       d="M 385.69682,91.840187 C 385.69836,92.608107 385.28956,93.318357 384.62478,93.702757 C 383.95999,94.087157 383.14051,94.087157 382.47572,93.702757 C 381.81094,93.318357 381.40214,92.608107 381.40368,91.840187 C 381.40214,91.072267 381.81094,90.362027 382.47572,89.977617 C 383.14051,89.593217 383.95999,89.593217 384.62478,89.977617 C 385.28956,90.362027 385.69836,91.072267 385.69682,91.840187 L 385.69682,91.840187 z "
       style="fill:#ffffff;fill-opacity:1;fill-rule:evenodd;stroke:#ffffff;stroke-width:3.70000005;stroke-linecap:round;stroke-miterlimit:4;stroke-dasharray:none;stroke-opacity:1"
       id="path3743" />
    <path
       d="M 510.45066,91.840187 C 510.4522,92.608107 510.0434,93.318357 509.37862,93.702757 C 508.71383,94.087157 507.89435,94.087157 507.22956,93.702757 C 506.56478,93.318357 506.15598,92.608107 506.15752,91.840187 C 506.15598,91.072267 506.56478,90.362027 507.22956,89.977617 C 507.89435,89.593217 508.71383,89.593217 509.37862,89.977617 C 510.0434,90.362027 510.4522,91.072267 510.45066,91.840187 L 510.45066,91.840187 z "
       style="fill:#ffffff;fill-opacity:1;fill-rule:evenodd;stroke:#ffffff;stroke-width:3.70000005;stroke-linecap:round;stroke-miterlimit:4;stroke-dasharray:none;stroke-opacity:1"
       id="path3745" />
    <rect
       width="30.526741"
       height="30.526741"
       rx="3.2829957"
       ry="3.2829957"
       x="42.716999"
       y="34.183144"
       style="fill:#d9261a;fill-opacity:1;fill-rule:evenodd;stroke:none;stroke-width:1;stroke-linecap:round;stroke-miterlimit:4;stroke-dasharray:none;stroke-opacity:1"
       id="rect4038" />
    <text
       x="48.972553"
       y="60.751198"
       style="font-size:32px;font-style:normal;font-weight:bold;fill:#ffffff;fill-opacity:1;stroke:none;stroke-width:1px;stroke-linecap:butt;stroke-linejoin:miter;stroke-opacity:1;font-family:Arial"
       id="text4040"
       xml:space="preserve"><tspan
         x="48.972553"
         y="60.751198"
         id="tspan4042">6</tspan></text>
    <rect
       width="30.526741"
       height="30.526741"
       rx="3.2829957"
       ry="3.2829957"
       x="622.23633"
       y="74.435181"
       style="fill:#d9261a;fill-opacity:1;fill-rule:evenodd;stroke:none;stroke-width:1;stroke-linecap:round;stroke-miterlimit:4;stroke-dasharray:none;stroke-opacity:1"
       id="rect4074" />
    <text
       x="628.49194"
       y="101.00324"
       style="font-size:32px;font-style:normal;font-weight:bold;fill:#ffffff;fill-opacity:1;stroke:none;stroke-width:1px;stroke-linecap:butt;stroke-linejoin:miter;stroke-opacity:1;font-family:Arial"
       id="text4076"
       xml:space="preserve"><tspan
         x="628.49194"
         y="101.00324"
         id="tspan4078">6</tspan></text>
    <text
       x="23.000437"
       y="90.278244"
       style="font-size:15px;font-style:normal;font-weight:normal;text-align:start;text-anchor:start;fill:#d9261a;fill-opacity:1;stroke:none;stroke-width:1px;stroke-linecap:butt;stroke-linejoin:miter;stroke-opacity:1;font-family:Sans"
       id="text4655"
       xml:space="preserve"><tspan
         x="23.000437"
         y="90.278244"
         id="tspan4657">Tezozomoc</tspan></text>
    <text
       x="159.429"
       y="80.635384"
       style="font-size:15px;font-style:normal;font-weight:normal;text-align:start;text-anchor:start;fill:#d9261a;fill-opacity:1;stroke:none;stroke-width:1px;stroke-linecap:butt;stroke-linejoin:miter;stroke-opacity:1;font-family:Sans"
       id="text4659"
       xml:space="preserve"><tspan
         x="159.429"
         y="80.635384"
         id="tspan4661">Ferreria</tspan></text>
    <text
       x="82.286148"
       y="134.56396"
       style="font-size:15px;font-style:normal;font-weight:normal;text-align:start;text-anchor:start;fill:#d9261a;fill-opacity:1;stroke:none;stroke-width:1px;stroke-linecap:butt;stroke-linejoin:miter;stroke-opacity:1;font-family:Sans"
       id="text4663"
       xml:space="preserve"><tspan
         x="82.286148"
         y="134.56396"
         id="tspan4665">Azcapotzalco</tspan></text>
    <path
       d="M 148.01181,119.63445 L 148.01181,101.42017"
       style="fill:#d9261a;fill-opacity:1;fill-rule:evenodd;stroke:#000000;stroke-width:1;stroke-linecap:round;stroke-miterlimit:4;stroke-dasharray:none;stroke-opacity:1"
       id="path4667" />
    <text
       x="209.07185"
       y="113.84966"
       style="font-size:15px;font-style:normal;font-weight:normal;text-align:start;text-anchor:start;fill:#d9261a;fill-opacity:1;stroke:none;stroke-width:1px;stroke-linecap:butt;stroke-linejoin:miter;stroke-opacity:1;font-family:Sans"
       id="text4669"
       xml:space="preserve"><tspan
         x="209.07185"
         y="113.84966"
         id="tspan4671">Norte 45</tspan></text>
    <text
       x="241.92899"
       y="81.349678"
       style="font-size:15px;font-style:normal;font-weight:normal;text-align:start;text-anchor:start;fill:#d9261a;fill-opacity:1;stroke:none;stroke-width:1px;stroke-linecap:butt;stroke-linejoin:miter;stroke-opacity:1;font-family:Sans"
       id="text4673"
       xml:space="preserve"><tspan
         x="241.92899"
         y="81.349678"
         id="tspan4675">Vallejo</tspan></text>
    <text
       x="331.92899"
       y="81.706795"
       style="font-size:15px;font-style:normal;font-weight:normal;text-align:start;text-anchor:start;fill:#d9261a;fill-opacity:1;stroke:none;stroke-width:1px;stroke-linecap:butt;stroke-linejoin:miter;stroke-opacity:1;font-family:Sans"
       id="text4677"
       xml:space="preserve"><tspan
         x="331.92899"
         y="81.706795"
         id="tspan4679">Lindavista</tspan></text>
    <text
       x="481.13675"
       y="59.01173"
       style="font-size:15px;font-style:normal;font-weight:normal;text-align:start;text-anchor:start;fill:#d9261a;fill-opacity:1;stroke:none;stroke-width:1px;stroke-linecap:butt;stroke-linejoin:miter;stroke-opacity:1;font-family:Sans"
       id="text4683"
       xml:space="preserve"><tspan
         x="481.13675"
         y="59.01173"
         id="tspan4685">La Villa -</tspan><tspan
         x="481.13675"
         y="77.761726"
         id="tspan4687">Basilica</tspan></text>
    <text
       x="82.919922"
       y="39.488865"
       style="font-size:15px;font-style:normal;font-weight:normal;text-align:start;text-anchor:start;fill:#000000;fill-opacity:1;stroke:none;stroke-width:1px;stroke-linecap:butt;stroke-linejoin:miter;stroke-opacity:1;font-family:Sans"
       id="text4689"
       xml:space="preserve"><tspan
         x="82.919922"
         y="39.488865"
         id="tspan4691">El Rosario</tspan></text>
    <text
       x="333.94281"
       y="46.054874"
       style="font-size:15px;font-style:normal;font-weight:normal;text-align:center;text-anchor:middle;fill:#000000;fill-opacity:1;stroke:none;stroke-width:1px;stroke-linecap:butt;stroke-linejoin:miter;stroke-opacity:1;font-family:Sans"
       id="text4693"
       xml:space="preserve"><tspan
         x="333.94281"
         y="46.054874"
         id="tspan4695">Instituto del</tspan><tspan
         x="333.94281"
         y="64.804878"
         id="tspan4697">Petroleo</tspan></text>
    <text
       x="389.50116"
       y="118.28079"
       style="font-size:15px;font-style:normal;font-weight:normal;text-align:start;text-anchor:start;fill:#000000;fill-opacity:1;stroke:none;stroke-width:1px;stroke-linecap:butt;stroke-linejoin:miter;stroke-opacity:1;font-family:Sans"
       id="text4701"
       xml:space="preserve"><tspan
         x="389.50116"
         y="118.28079"
         id="tspan4705">Deportivo</tspan><tspan
         x="389.50116"
         y="137.03079"
         id="tspan4709">18 de Marzo</tspan></text>
    <text
       x="563.7525"
       y="121.31123"
       style="font-size:15px;font-style:normal;font-weight:normal;text-align:start;text-anchor:start;fill:#000000;fill-opacity:1;stroke:none;stroke-width:1px;stroke-linecap:butt;stroke-linejoin:miter;stroke-opacity:1;font-family:Sans"
       id="text4711"
       xml:space="preserve"><tspan
         x="563.7525"
         y="121.31123"
         id="tspan4715">Martin Carrera</tspan></text>
  </g>
</svg>
