<?xml version="1.0" encoding="UTF-8" standalone="no"?>
<!-- Created with Inkscape (http://www.inkscape.org/) -->
<svg
   xmlns:svg="http://www.w3.org/2000/svg"
   xmlns="http://www.w3.org/2000/svg"
   version="1.0"
   width="699.53998"
   height="697.35999"
   id="svg1901">
  <defs
     id="defs1903" />
  <g
     transform="translate(-19.231052,-38.394207)"
     style="opacity:1"
     id="layer1">
    <path
       d="M 287.67337,183.47121 L 287.67337,139.18549"
       style="fill:#017cc0;fill-opacity:1;fill-rule:evenodd;stroke:#000000;stroke-width:1;stroke-linecap:round;stroke-miterlimit:4;stroke-dasharray:none;stroke-opacity:1"
       id="path4484" />
    <path
       d="M 364.10195,123.11406 L 374.10195,133.11406"
       style="fill:#017cc0;fill-opacity:1;fill-rule:evenodd;stroke:#000000;stroke-width:1;stroke-linecap:round;stroke-miterlimit:4;stroke-dasharray:none;stroke-opacity:1"
       id="path4482" />
    <path
       d="M 66.601937,68.114063 L 181.2448,68.114063 L 249.10195,135.97121 L 545.17338,135.97121 L 589.81623,180.61406 L 589.81623,690.61406"
       style="fill:none;fill-opacity:1;fill-rule:evenodd;stroke:#017cc0;stroke-width:9;stroke-linecap:round;stroke-miterlimit:4;stroke-dasharray:none;stroke-opacity:1"
       id="path3451" />
    <path
       d="M 187.48669,67.877223 C 187.48838,71.574453 184.49166,74.572543 180.79443,74.572543 C 177.0972,74.572543 174.10048,71.574453 174.10217,67.877223 C 174.10048,64.179993 177.0972,61.181903 180.79443,61.181903 C 184.49166,61.181903 187.48838,64.179993 187.48669,67.877223 z "
       style="fill:#ffffff;fill-opacity:1;fill-rule:evenodd;stroke:#000000;stroke-width:3.70000005;stroke-linecap:round;stroke-miterlimit:4;stroke-dasharray:none;stroke-opacity:1"
       id="path3461" />
    <path
       d="M 414.77102,136.56759 C 414.77271,140.26482 411.77599,143.26291 408.07876,143.26291 C 404.38153,143.26291 401.38481,140.26482 401.3865,136.56759 C 401.38481,132.87036 404.38153,129.87227 408.07876,129.87227 C 411.77599,129.87227 414.77271,132.87036 414.77102,136.56759 z "
       style="fill:#ffffff;fill-opacity:1;fill-rule:evenodd;stroke:#000000;stroke-width:3.70000005;stroke-linecap:round;stroke-miterlimit:4;stroke-dasharray:none;stroke-opacity:1"
       id="path3473" />
    <path
       d="M 494.06799,136.56759 C 494.06968,140.26482 491.07296,143.26291 487.37573,143.26291 C 483.6785,143.26291 480.68178,140.26482 480.68347,136.56759 C 480.68178,132.87036 483.6785,129.87227 487.37573,129.87227 C 491.07296,129.87227 494.06968,132.87036 494.06799,136.56759 z "
       style="fill:#ffffff;fill-opacity:1;fill-rule:evenodd;stroke:#000000;stroke-width:3.70000005;stroke-linecap:round;stroke-miterlimit:4;stroke-dasharray:none;stroke-opacity:1"
       id="path3475" />
    <path
       d="M 596.59847,394.91411 C 596.60016,398.61134 593.60344,401.60943 589.90621,401.60943 C 586.20898,401.60943 583.21226,398.61134 583.21395,394.91411 C 583.21226,391.21688 586.20898,388.21879 589.90621,388.21879 C 593.60344,388.21879 596.60016,391.21688 596.59847,394.91411 z "
       style="fill:#ffffff;fill-opacity:1;fill-rule:evenodd;stroke:#000000;stroke-width:3.70000005;stroke-linecap:round;stroke-miterlimit:4;stroke-dasharray:none;stroke-opacity:1"
       id="path3497" />
    <path
       d="M 596.59847,259.55367 C 596.60016,263.2509 593.60344,266.24899 589.90621,266.24899 C 586.20898,266.24899 583.21226,263.2509 583.21395,259.55367 C 583.21226,255.85644 586.20898,252.85835 589.90621,252.85835 C 593.60344,252.85835 596.60016,255.85644 596.59847,259.55367 z "
       style="fill:#ffffff;fill-opacity:1;fill-rule:evenodd;stroke:#000000;stroke-width:3.70000005;stroke-linecap:round;stroke-miterlimit:4;stroke-dasharray:none;stroke-opacity:1"
       id="path3499" />
    <path
       d="M 592.06847,683.81516 C 592.07001,684.58308 591.66121,685.29333 590.99643,685.67773 C 590.33164,686.06213 589.51216,686.06213 588.84737,685.67773 C 588.18259,685.29333 587.77379,684.58308 587.77533,683.81516 C 587.77379,683.04724 588.18259,682.337 588.84737,681.95259 C 589.51216,681.56819 590.33164,681.56819 590.99643,681.95259 C 591.66121,682.337 592.07001,683.04724 592.06847,683.81516 L 592.06847,683.81516 z "
       style="fill:#ffffff;fill-opacity:1;fill-rule:evenodd;stroke:#ffffff;stroke-width:3.70000005;stroke-linecap:round;stroke-miterlimit:4;stroke-dasharray:none;stroke-opacity:1"
       id="path3567" />
    <path
       d="M 592.06847,648.81516 C 592.07001,649.58308 591.66121,650.29333 590.99643,650.67773 C 590.33164,651.06213 589.51216,651.06213 588.84737,650.67773 C 588.18259,650.29333 587.77379,649.58308 587.77533,648.81516 C 587.77379,648.04724 588.18259,647.337 588.84737,646.95259 C 589.51216,646.56819 590.33164,646.56819 590.99643,646.95259 C 591.66121,647.337 592.07001,648.04724 592.06847,648.81516 L 592.06847,648.81516 z "
       style="fill:#ffffff;fill-opacity:1;fill-rule:evenodd;stroke:#ffffff;stroke-width:3.70000005;stroke-linecap:round;stroke-miterlimit:4;stroke-dasharray:none;stroke-opacity:1"
       id="path3569" />
    <path
       d="M 592.06847,614.52946 C 592.07001,615.29738 591.66121,616.00762 590.99643,616.39203 C 590.33164,616.77643 589.51216,616.77643 588.84737,616.39203 C 588.18259,616.00762 587.77379,615.29738 587.77533,614.52946 C 587.77379,613.76154 588.18259,613.0513 588.84737,612.66689 C 589.51216,612.28249 590.33164,612.28249 590.99643,612.66689 C 591.66121,613.0513 592.07001,613.76154 592.06847,614.52946 L 592.06847,614.52946 z "
       style="fill:#ffffff;fill-opacity:1;fill-rule:evenodd;stroke:#ffffff;stroke-width:3.70000005;stroke-linecap:round;stroke-miterlimit:4;stroke-dasharray:none;stroke-opacity:1"
       id="path3571" />
    <path
       d="M 592.06847,579.88656 C 592.07001,580.65448 591.66121,581.36473 590.99643,581.74913 C 590.33164,582.13353 589.51216,582.13353 588.84737,581.74913 C 588.18259,581.36473 587.77379,580.65448 587.77533,579.88656 C 587.77379,579.11864 588.18259,578.4084 588.84737,578.02399 C 589.51216,577.63959 590.33164,577.63959 590.99643,578.02399 C 591.66121,578.4084 592.07001,579.11864 592.06847,579.88656 L 592.06847,579.88656 z "
       style="fill:#ffffff;fill-opacity:1;fill-rule:evenodd;stroke:#ffffff;stroke-width:3.70000005;stroke-linecap:round;stroke-miterlimit:4;stroke-dasharray:none;stroke-opacity:1"
       id="path3573" />
    <path
       d="M 592.06847,545.24366 C 592.07001,546.01158 591.66121,546.72183 590.99643,547.10623 C 590.33164,547.49063 589.51216,547.49063 588.84737,547.10623 C 588.18259,546.72183 587.77379,546.01158 587.77533,545.24366 C 587.77379,544.47574 588.18259,543.7655 588.84737,543.38109 C 589.51216,542.99669 590.33164,542.99669 590.99643,543.38109 C 591.66121,543.7655 592.07001,544.47574 592.06847,545.24366 L 592.06847,545.24366 z "
       style="fill:#ffffff;fill-opacity:1;fill-rule:evenodd;stroke:#ffffff;stroke-width:3.70000005;stroke-linecap:round;stroke-miterlimit:4;stroke-dasharray:none;stroke-opacity:1"
       id="path3575" />
    <path
       d="M 592.06847,510.60076 C 592.07001,511.36868 591.66121,512.07892 590.99643,512.46333 C 590.33164,512.84773 589.51216,512.84773 588.84737,512.46333 C 588.18259,512.07892 587.77379,511.36868 587.77533,510.60076 C 587.77379,509.83284 588.18259,509.1226 588.84737,508.73819 C 589.51216,508.35379 590.33164,508.35379 590.99643,508.73819 C 591.66121,509.1226 592.07001,509.83284 592.06847,510.60076 L 592.06847,510.60076 z "
       style="fill:#ffffff;fill-opacity:1;fill-rule:evenodd;stroke:#ffffff;stroke-width:3.70000005;stroke-linecap:round;stroke-miterlimit:4;stroke-dasharray:none;stroke-opacity:1"
       id="path3577" />
    <path
       d="M 592.06847,475.95786 C 592.07001,476.72578 591.66121,477.43602 590.99643,477.82043 C 590.33164,478.20483 589.51216,478.20483 588.84737,477.82043 C 588.18259,477.43602 587.77379,476.72578 587.77533,475.95786 C 587.77379,475.18994 588.18259,474.4797 588.84737,474.09529 C 589.51216,473.71089 590.33164,473.71089 590.99643,474.09529 C 591.66121,474.4797 592.07001,475.18994 592.06847,475.95786 L 592.06847,475.95786 z "
       style="fill:#ffffff;fill-opacity:1;fill-rule:evenodd;stroke:#ffffff;stroke-width:3.70000005;stroke-linecap:round;stroke-miterlimit:4;stroke-dasharray:none;stroke-opacity:1"
       id="path3579" />
    <path
       d="M 592.06847,442.02926 C 592.07001,442.79718 591.66121,443.50742 590.99643,443.89183 C 590.33164,444.27623 589.51216,444.27623 588.84737,443.89183 C 588.18259,443.50742 587.77379,442.79718 587.77533,442.02926 C 587.77379,441.26134 588.18259,440.5511 588.84737,440.16669 C 589.51216,439.78229 590.33164,439.78229 590.99643,440.16669 C 591.66121,440.5511 592.07001,441.26134 592.06847,442.02926 L 592.06847,442.02926 z "
       style="fill:#ffffff;fill-opacity:1;fill-rule:evenodd;stroke:#ffffff;stroke-width:3.70000005;stroke-linecap:round;stroke-miterlimit:4;stroke-dasharray:none;stroke-opacity:1"
       id="path3581" />
    <path
       d="M 592.06847,344.8864 C 592.07001,345.65432 591.66121,346.36457 590.99643,346.74897 C 590.33164,347.13337 589.51216,347.13337 588.84737,346.74897 C 588.18259,346.36457 587.77379,345.65432 587.77533,344.8864 C 587.77379,344.11848 588.18259,343.40824 588.84737,343.02383 C 589.51216,342.63943 590.33164,342.63943 590.99643,343.02383 C 591.66121,343.40824 592.07001,344.11848 592.06847,344.8864 L 592.06847,344.8864 z "
       style="fill:#ffffff;fill-opacity:1;fill-rule:evenodd;stroke:#ffffff;stroke-width:3.70000005;stroke-linecap:round;stroke-miterlimit:4;stroke-dasharray:none;stroke-opacity:1"
       id="path3583" />
    <path
       d="M 592.06847,195.95783 C 592.07001,196.72575 591.66121,197.43599 590.99643,197.8204 C 590.33164,198.2048 589.51216,198.2048 588.84737,197.8204 C 588.18259,197.43599 587.77379,196.72575 587.77533,195.95783 C 587.77379,195.18991 588.18259,194.47967 588.84737,194.09526 C 589.51216,193.71086 590.33164,193.71086 590.99643,194.09526 C 591.66121,194.47967 592.07001,195.18991 592.06847,195.95783 L 592.06847,195.95783 z "
       style="fill:#ffffff;fill-opacity:1;fill-rule:evenodd;stroke:#ffffff;stroke-width:3.70000005;stroke-linecap:round;stroke-miterlimit:4;stroke-dasharray:none;stroke-opacity:1"
       id="path3585" />
    <path
       d="M 561.71137,150.60069 C 561.71291,151.36861 561.30411,152.07885 560.63933,152.46326 C 559.97454,152.84766 559.15506,152.84766 558.49027,152.46326 C 557.82549,152.07885 557.41669,151.36861 557.41823,150.60069 C 557.41669,149.83277 557.82549,149.12253 558.49027,148.73812 C 559.15506,148.35372 559.97454,148.35372 560.63933,148.73812 C 561.30411,149.12253 561.71291,149.83277 561.71137,150.60069 L 561.71137,150.60069 z "
       style="fill:#ffffff;fill-opacity:1;fill-rule:evenodd;stroke:#ffffff;stroke-width:3.70000005;stroke-linecap:round;stroke-miterlimit:4;stroke-dasharray:none;stroke-opacity:1"
       id="path3587" />
    <path
       d="M 375.63997,136.67212 C 375.64151,137.44004 375.23271,138.15029 374.56793,138.53469 C 373.90314,138.91909 373.08366,138.91909 372.41887,138.53469 C 371.75409,138.15029 371.34529,137.44004 371.34683,136.67212 C 371.34529,135.9042 371.75409,135.19396 372.41887,134.80955 C 373.08366,134.42515 373.90314,134.42515 374.56793,134.80955 C 375.23271,135.19396 375.64151,135.9042 375.63997,136.67212 L 375.63997,136.67212 z "
       style="fill:#ffffff;fill-opacity:1;fill-rule:evenodd;stroke:#ffffff;stroke-width:3.70000005;stroke-linecap:round;stroke-miterlimit:4;stroke-dasharray:none;stroke-opacity:1"
       id="path3589" />
    <path
       d="M 328.85427,136.67212 C 328.85581,137.44004 328.44701,138.15029 327.78223,138.53469 C 327.11744,138.91909 326.29796,138.91909 325.63317,138.53469 C 324.96839,138.15029 324.55959,137.44004 324.56113,136.67212 C 324.55959,135.9042 324.96839,135.19396 325.63317,134.80955 C 326.29796,134.42515 327.11744,134.42515 327.78223,134.80955 C 328.44701,135.19396 328.85581,135.9042 328.85427,136.67212 L 328.85427,136.67212 z "
       style="fill:#ffffff;fill-opacity:1;fill-rule:evenodd;stroke:#ffffff;stroke-width:3.70000005;stroke-linecap:round;stroke-miterlimit:4;stroke-dasharray:none;stroke-opacity:1"
       id="path3591" />
    <path
       d="M 289.56857,136.67212 C 289.57011,137.44004 289.16131,138.15029 288.49653,138.53469 C 287.83174,138.91909 287.01226,138.91909 286.34747,138.53469 C 285.68269,138.15029 285.27389,137.44004 285.27543,136.67212 C 285.27389,135.9042 285.68269,135.19396 286.34747,134.80955 C 287.01226,134.42515 287.83174,134.42515 288.49653,134.80955 C 289.16131,135.19396 289.57011,135.9042 289.56857,136.67212 L 289.56857,136.67212 z "
       style="fill:#ffffff;fill-opacity:1;fill-rule:evenodd;stroke:#ffffff;stroke-width:3.70000005;stroke-linecap:round;stroke-miterlimit:4;stroke-dasharray:none;stroke-opacity:1"
       id="path3593" />
    <path
       d="M 256.71147,136.67212 C 256.71301,137.44004 256.30421,138.15029 255.63943,138.53469 C 254.97464,138.91909 254.15516,138.91909 253.49037,138.53469 C 252.82559,138.15029 252.41679,137.44004 252.41833,136.67212 C 252.41679,135.9042 252.82559,135.19396 253.49037,134.80955 C 254.15516,134.42515 254.97464,134.42515 255.63943,134.80955 C 256.30421,135.19396 256.71301,135.9042 256.71147,136.67212 L 256.71147,136.67212 z "
       style="fill:#ffffff;fill-opacity:1;fill-rule:evenodd;stroke:#ffffff;stroke-width:3.70000005;stroke-linecap:round;stroke-miterlimit:4;stroke-dasharray:none;stroke-opacity:1"
       id="path3595" />
    <path
       d="M 229.21147,113.10069 C 229.21301,113.86861 228.80421,114.57885 228.13943,114.96326 C 227.47464,115.34766 226.65516,115.34766 225.99037,114.96326 C 225.32559,114.57885 224.91679,113.86861 224.91833,113.10069 C 224.91679,112.33277 225.32559,111.62253 225.99037,111.23812 C 226.65516,110.85372 227.47464,110.85372 228.13943,111.23812 C 228.80421,111.62253 229.21301,112.33277 229.21147,113.10069 L 229.21147,113.10069 z "
       style="fill:#ffffff;fill-opacity:1;fill-rule:evenodd;stroke:#ffffff;stroke-width:3.70000005;stroke-linecap:round;stroke-miterlimit:4;stroke-dasharray:none;stroke-opacity:1"
       id="path3597" />
    <path
       d="M 205.99717,89.529263 C 205.99871,90.297183 205.58991,91.007433 204.92513,91.391833 C 204.26034,91.776233 203.44086,91.776233 202.77607,91.391833 C 202.11129,91.007433 201.70249,90.297183 201.70403,89.529263 C 201.70249,88.761343 202.11129,88.051103 202.77607,87.666693 C 203.44086,87.282293 204.26034,87.282293 204.92513,87.666693 C 205.58991,88.051103 205.99871,88.761343 205.99717,89.529263 L 205.99717,89.529263 z "
       style="fill:#ffffff;fill-opacity:1;fill-rule:evenodd;stroke:#ffffff;stroke-width:3.70000005;stroke-linecap:round;stroke-miterlimit:4;stroke-dasharray:none;stroke-opacity:1"
       id="path3599" />
    <path
       d="M 133.49717,67.743553 C 133.49871,68.511473 133.08991,69.221723 132.42513,69.606123 C 131.76034,69.990523 130.94086,69.990523 130.27607,69.606123 C 129.61129,69.221723 129.20249,68.511473 129.20403,67.743553 C 129.20249,66.975633 129.61129,66.265393 130.27607,65.880983 C 130.94086,65.496583 131.76034,65.496583 132.42513,65.880983 C 133.08991,66.265393 133.49871,66.975633 133.49717,67.743553 L 133.49717,67.743553 z "
       style="fill:#ffffff;fill-opacity:1;fill-rule:evenodd;stroke:#ffffff;stroke-width:3.70000005;stroke-linecap:round;stroke-miterlimit:4;stroke-dasharray:none;stroke-opacity:1"
       id="path3601" />
    <path
       d="M 75.640067,67.743553 C 75.641607,68.511473 75.232807,69.221723 74.568027,69.606123 C 73.903237,69.990523 73.083757,69.990523 72.418967,69.606123 C 71.754187,69.221723 71.345387,68.511473 71.346927,67.743553 C 71.345387,66.975633 71.754187,66.265393 72.418967,65.880983 C 73.083757,65.496583 73.903237,65.496583 74.568027,65.880983 C 75.232807,66.265393 75.641607,66.975633 75.640067,67.743553 L 75.640067,67.743553 z "
       style="fill:#ffffff;fill-opacity:1;fill-rule:evenodd;stroke:#ffffff;stroke-width:3.70000005;stroke-linecap:round;stroke-miterlimit:4;stroke-dasharray:none;stroke-opacity:1"
       id="path3603" />
    <rect
       width="30.526741"
       height="30.526741"
       rx="3.2829957"
       ry="3.2829957"
       x="575.65967"
       y="697.23199"
       style="fill:#017cc0;fill-opacity:1;fill-rule:evenodd;stroke:none;stroke-width:1;stroke-linecap:round;stroke-miterlimit:4;stroke-dasharray:none;stroke-opacity:1"
       id="rect4098" />
    <text
       x="582.43085"
       y="723.99536"
       style="font-size:32px;font-style:normal;font-weight:bold;fill:#ffffff;fill-opacity:1;stroke:none;stroke-width:1px;stroke-linecap:butt;stroke-linejoin:miter;stroke-opacity:1;font-family:Arial"
       id="text4100"
       xml:space="preserve"><tspan
         x="582.43085"
         y="723.99536"
         id="tspan4102">2</tspan></text>
    <rect
       width="30.526741"
       height="30.526741"
       rx="3.2829957"
       ry="3.2829957"
       x="29.231052"
       y="51.517651"
       style="fill:#017cc0;fill-opacity:1;fill-rule:evenodd;stroke:none;stroke-width:1;stroke-linecap:round;stroke-miterlimit:4;stroke-dasharray:none;stroke-opacity:1"
       id="rect4104" />
    <text
       x="36.002232"
       y="78.281013"
       style="font-size:32px;font-style:normal;font-weight:bold;fill:#ffffff;fill-opacity:1;stroke:none;stroke-width:1px;stroke-linecap:butt;stroke-linejoin:miter;stroke-opacity:1;font-family:Arial"
       id="text4106"
       xml:space="preserve"><tspan
         x="36.002232"
         y="78.281013"
         id="tspan4108">2</tspan></text>
    <text
       x="601.16205"
       y="688.82928"
       style="font-size:15px;font-style:normal;font-weight:normal;fill:#017cc0;fill-opacity:1;stroke:none;stroke-width:1px;stroke-linecap:butt;stroke-linejoin:miter;stroke-opacity:1;font-family:Sans"
       id="text4422"
       xml:space="preserve"><tspan
         x="601.16205"
         y="688.82928"
         id="tspan4424">Tasqueña</tspan></text>
    <text
       x="601.16205"
       y="654.82928"
       style="font-size:15px;font-style:normal;font-weight:normal;fill:#017cc0;fill-opacity:1;stroke:none;stroke-width:1px;stroke-linecap:butt;stroke-linejoin:miter;stroke-opacity:1;font-family:Sans"
       id="text4426"
       xml:space="preserve"><tspan
         x="601.16205"
         y="654.82928"
         id="tspan4428">General Anaya</tspan></text>
    <text
       x="601.16205"
       y="618.82928"
       style="font-size:15px;font-style:normal;font-weight:normal;fill:#017cc0;fill-opacity:1;stroke:none;stroke-width:1px;stroke-linecap:butt;stroke-linejoin:miter;stroke-opacity:1;font-family:Sans"
       id="text4430"
       xml:space="preserve"><tspan
         x="601.16205"
         y="618.82928"
         id="tspan4432">Ermita</tspan></text>
    <text
       x="601.16205"
       y="586.82928"
       style="font-size:15px;font-style:normal;font-weight:normal;fill:#017cc0;fill-opacity:1;stroke:none;stroke-width:1px;stroke-linecap:butt;stroke-linejoin:miter;stroke-opacity:1;font-family:Sans"
       id="text4434"
       xml:space="preserve"><tspan
         x="601.16205"
         y="586.82928"
         id="tspan4436">Portales</tspan></text>
    <text
       x="601.16205"
       y="550.82928"
       style="font-size:15px;font-style:normal;font-weight:normal;fill:#017cc0;fill-opacity:1;stroke:none;stroke-width:1px;stroke-linecap:butt;stroke-linejoin:miter;stroke-opacity:1;font-family:Sans"
       id="text4438"
       xml:space="preserve"><tspan
         x="601.16205"
         y="550.82928"
         id="tspan4440">Nativitas</tspan></text>
    <text
       x="601.16205"
       y="508.82925"
       style="font-size:15px;font-style:normal;font-weight:normal;fill:#017cc0;fill-opacity:1;stroke:none;stroke-width:1px;stroke-linecap:butt;stroke-linejoin:miter;stroke-opacity:1;font-family:Sans"
       id="text4442"
       xml:space="preserve"><tspan
         x="601.16205"
         y="508.82925"
         id="tspan4444">Villa de</tspan><tspan
         x="601.16205"
         y="527.57928"
         id="tspan4446">Cortes</tspan></text>
    <text
       x="581.16205"
       y="482.82925"
       style="font-size:15px;font-style:normal;font-weight:normal;text-align:end;text-anchor:end;fill:#017cc0;fill-opacity:1;stroke:none;stroke-width:1px;stroke-linecap:butt;stroke-linejoin:miter;stroke-opacity:1;font-family:Sans"
       id="text4448"
       xml:space="preserve"><tspan
         x="581.16205"
         y="482.82925"
         id="tspan4452">Xola</tspan></text>
    <text
       x="581.16205"
       y="447.18637"
       style="font-size:15px;font-style:normal;font-weight:normal;text-align:end;text-anchor:end;fill:#017cc0;fill-opacity:1;stroke:none;stroke-width:1px;stroke-linecap:butt;stroke-linejoin:miter;stroke-opacity:1;font-family:Sans"
       id="text4456"
       xml:space="preserve"><tspan
         x="581.16205"
         y="447.18637"
         id="tspan4458">Viaducta</tspan></text>
    <text
       x="602.59064"
       y="202.90068"
       style="font-size:15px;font-style:normal;font-weight:normal;text-align:start;text-anchor:start;fill:#017cc0;fill-opacity:1;stroke:none;stroke-width:1px;stroke-linecap:butt;stroke-linejoin:miter;stroke-opacity:1;font-family:Sans"
       id="text4466"
       xml:space="preserve"><tspan
         x="602.59064"
         y="202.90068"
         id="tspan4470">Zocalo</tspan></text>
    <text
       x="571.87628"
       y="147.18642"
       style="font-size:15px;font-style:normal;font-weight:normal;text-align:start;text-anchor:start;fill:#017cc0;fill-opacity:1;stroke:none;stroke-width:1px;stroke-linecap:butt;stroke-linejoin:miter;stroke-opacity:1;font-family:Sans"
       id="text4474"
       xml:space="preserve"><tspan
         x="571.87628"
         y="147.18642"
         id="tspan4476">Allende</tspan></text>
    <text
       x="314.37625"
       y="121.11497"
       style="font-size:15px;font-style:normal;font-weight:normal;text-align:start;text-anchor:start;fill:#017cc0;fill-opacity:1;stroke:none;stroke-width:1px;stroke-linecap:butt;stroke-linejoin:miter;stroke-opacity:1;font-family:Sans"
       id="text4478"
       xml:space="preserve"><tspan
         x="314.37625"
         y="121.11497"
         id="tspan4480">Revolucion</tspan></text>
    <text
       x="260.51913"
       y="196.47212"
       style="font-size:15px;font-style:normal;font-weight:normal;text-align:start;text-anchor:start;fill:#017cc0;fill-opacity:1;stroke:none;stroke-width:1px;stroke-linecap:butt;stroke-linejoin:miter;stroke-opacity:1;font-family:Sans"
       id="text4486"
       xml:space="preserve"><tspan
         x="260.51913"
         y="196.47212"
         id="tspan4488">Normal</tspan></text>
    <text
       x="305.51913"
       y="154.82927"
       style="font-size:15px;font-style:normal;font-weight:normal;text-align:start;text-anchor:start;fill:#017cc0;fill-opacity:1;stroke:none;stroke-width:1px;stroke-linecap:butt;stroke-linejoin:miter;stroke-opacity:1;font-family:Sans"
       id="text4490"
       xml:space="preserve"><tspan
         x="305.51913"
         y="154.82927"
         id="tspan4492">San</tspan><tspan
         x="305.51913"
         y="173.57927"
         id="tspan4494">Cosme</tspan></text>
    <text
       x="237.66196"
       y="109.82926"
       style="font-size:15px;font-style:normal;font-weight:normal;text-align:start;text-anchor:start;fill:#017cc0;fill-opacity:1;stroke:none;stroke-width:1px;stroke-linecap:butt;stroke-linejoin:miter;stroke-opacity:1;font-family:Sans"
       id="text4496"
       xml:space="preserve"><tspan
         x="237.66196"
         y="109.82926"
         id="tspan4500">Popotla</tspan></text>
    <text
       x="207.30484"
       y="155.18642"
       style="font-size:15px;font-style:normal;font-weight:normal;text-align:start;text-anchor:start;fill:#017cc0;fill-opacity:1;stroke:none;stroke-width:1px;stroke-linecap:butt;stroke-linejoin:miter;stroke-opacity:1;font-family:Sans"
       id="text4504"
       xml:space="preserve"><tspan
         x="207.30484"
         y="155.18642"
         id="tspan4506">Colegio</tspan><tspan
         x="207.30484"
         y="173.93642"
         id="tspan4508">Militar</tspan></text>
    <text
       x="205.51913"
       y="82.186409"
       style="font-size:15px;font-style:normal;font-weight:normal;text-align:start;text-anchor:start;fill:#017cc0;fill-opacity:1;stroke:none;stroke-width:1px;stroke-linecap:butt;stroke-linejoin:miter;stroke-opacity:1;font-family:Sans"
       id="text4510"
       xml:space="preserve"><tspan
         x="205.51913"
         y="82.186409"
         id="tspan4514">Cuitlahuac</tspan></text>
    <text
       x="94.090553"
       y="59.329266"
       style="font-size:15px;font-style:normal;font-weight:normal;text-align:start;text-anchor:start;fill:#017cc0;fill-opacity:1;stroke:none;stroke-width:1px;stroke-linecap:butt;stroke-linejoin:miter;stroke-opacity:1;font-family:Sans"
       id="text4518"
       xml:space="preserve"><tspan
         x="94.090553"
         y="59.329266"
         id="tspan4520">Panteones</tspan></text>
    <text
       x="63.376255"
       y="87.900673"
       style="font-size:15px;font-style:normal;font-weight:normal;text-align:start;text-anchor:start;fill:#017cc0;fill-opacity:1;stroke:none;stroke-width:1px;stroke-linecap:butt;stroke-linejoin:miter;stroke-opacity:1;font-family:Sans"
       id="text4522"
       xml:space="preserve"><tspan
         x="63.376255"
         y="87.900673"
         id="tspan4524">Cuatro</tspan><tspan
         x="63.376255"
         y="106.65067"
         id="tspan4526">Caminos</tspan></text>
    <text
       x="406.83969"
       y="119.74335"
       style="font-size:15px;font-style:normal;font-weight:normal;text-align:start;text-anchor:start;fill:#000000;fill-opacity:1;stroke:none;stroke-width:1px;stroke-linecap:butt;stroke-linejoin:miter;stroke-opacity:1;font-family:Sans"
       id="text4733"
       xml:space="preserve"><tspan
         x="406.83969"
         y="119.74335"
         id="tspan4735">Hidalgo</tspan></text>
    <text
       x="509.33966"
       y="157.60049"
       style="font-size:15px;font-style:normal;font-weight:normal;text-align:end;text-anchor:end;fill:#000000;fill-opacity:1;stroke:none;stroke-width:1px;stroke-linecap:butt;stroke-linejoin:miter;stroke-opacity:1;font-family:Sans"
       id="text4737"
       xml:space="preserve"><tspan
         x="509.33966"
         y="157.60049"
         id="tspan4739">Bellas</tspan><tspan
         x="509.33966"
         y="176.35049"
         id="tspan4741">Artes</tspan></text>
    <text
       x="649.14313"
       y="351.82095"
       style="font-size:15px;font-style:normal;font-weight:normal;text-align:center;text-anchor:middle;fill:#017cc0;fill-opacity:1;stroke:none;stroke-width:1px;stroke-linecap:butt;stroke-linejoin:miter;stroke-opacity:1;font-family:Sans"
       id="text4460"
       xml:space="preserve"><tspan
         x="649.14313"
         y="351.82095"
         id="tspan4462">San Antonio</tspan><tspan
         x="649.14313"
         y="370.57095"
         id="tspan4464">Abad</tspan></text>
    <text
       x="605.73798"
       y="399.44293"
       style="font-size:15px;font-style:normal;font-weight:normal;text-align:start;text-anchor:start;fill:#000000;fill-opacity:1;stroke:none;stroke-width:1px;stroke-linecap:butt;stroke-linejoin:miter;stroke-opacity:1;font-family:Sans"
       id="text4813"
       xml:space="preserve"><tspan
         x="605.73798"
         y="399.44293"
         id="tspan4815">Chabacano</tspan></text>
    <text
       x="190.41112"
       y="59.02906"
       style="font-size:15px;font-style:normal;font-weight:normal;text-align:start;text-anchor:start;fill:#000000;fill-opacity:1;stroke:none;stroke-width:1px;stroke-linecap:butt;stroke-linejoin:miter;stroke-opacity:1;font-family:Sans"
       id="text5322"
       xml:space="preserve"><tspan
         x="190.41112"
         y="59.02906"
         id="tspan5324">Tacuba</tspan></text>
    <text
       x="603.98254"
       y="266.17191"
       style="font-size:15px;font-style:normal;font-weight:normal;text-align:start;text-anchor:start;fill:#000000;fill-opacity:1;stroke:none;stroke-width:1px;stroke-linecap:butt;stroke-linejoin:miter;stroke-opacity:1;font-family:Sans"
       id="text5326"
       xml:space="preserve"><tspan
         x="603.98254"
         y="266.17191"
         id="tspan5328">Pino Suarez</tspan></text>
  </g>
</svg>
