<?xml version="1.0" encoding="UTF-8" standalone="no"?>
<!-- Created with Inkscape (http://www.inkscape.org/) -->
<svg
   xmlns:svg="http://www.w3.org/2000/svg"
   xmlns="http://www.w3.org/2000/svg"
   version="1.0"
   width="305"
   height="963.33002"
   id="svg1901">
  <defs
     id="defs1903" />
  <g
     style="opacity:1"
     id="layer1">
    <path
       d="M 191.55393,50.485957 L 191.55393,152.98596 L 87.62536,256.91453 L 87.62536,917.27167"
       style="fill:none;fill-opacity:1;fill-rule:evenodd;stroke:#9e9a3a;stroke-width:9;stroke-linecap:round;stroke-miterlimit:4;stroke-dasharray:none;stroke-opacity:1"
       id="path3436" />
    <path
       d="M 94.76633,598.00029 C 94.76802,601.69752 91.7713,604.69561 88.07407,604.69561 C 84.37684,604.69561 81.38012,601.69752 81.38181,598.00029 C 81.38012,594.30306 84.37684,591.30497 88.07407,591.30497 C 91.7713,591.30497 94.76802,594.30306 94.76633,598.00029 z "
       style="fill:#ffffff;fill-opacity:1;fill-rule:evenodd;stroke:#000000;stroke-width:3.70000005;stroke-linecap:round;stroke-miterlimit:4;stroke-dasharray:none;stroke-opacity:1"
       id="path3457" />
    <path
       d="M 198.05443,136.10803 C 198.05612,139.80526 195.0594,142.80335 191.36217,142.80335 C 187.66494,142.80335 184.66822,139.80526 184.66991,136.10803 C 184.66822,132.4108 187.66494,129.41271 191.36217,129.41271 C 195.0594,129.41271 198.05612,132.4108 198.05443,136.10803 z "
       style="fill:#ffffff;fill-opacity:1;fill-rule:evenodd;stroke:#000000;stroke-width:3.70000005;stroke-linecap:round;stroke-miterlimit:4;stroke-dasharray:none;stroke-opacity:1"
       id="path3467" />
    <path
       d="M 155.12295,196.71719 C 155.12464,200.41442 152.12792,203.41251 148.43069,203.41251 C 144.73346,203.41251 141.73674,200.41442 141.73843,196.71719 C 141.73674,193.01996 144.73346,190.02187 148.43069,190.02187 C 152.12792,190.02187 155.12464,193.01996 155.12295,196.71719 z "
       style="fill:#ffffff;fill-opacity:1;fill-rule:evenodd;stroke:#000000;stroke-width:3.70000005;stroke-linecap:round;stroke-miterlimit:4;stroke-dasharray:none;stroke-opacity:1"
       id="path3469" />
    <path
       d="M 94.00872,303.79336 C 94.01041,307.49059 91.01369,310.48868 87.31646,310.48868 C 83.61923,310.48868 80.62251,307.49059 80.6242,303.79336 C 80.62251,300.09613 83.61923,297.09804 87.31646,297.09804 C 91.01369,297.09804 94.01041,300.09613 94.00872,303.79336 z "
       style="fill:#ffffff;fill-opacity:1;fill-rule:evenodd;stroke:#000000;stroke-width:3.70000005;stroke-linecap:round;stroke-miterlimit:4;stroke-dasharray:none;stroke-opacity:1"
       id="path3471" />
    <path
       d="M 94.00872,339.65377 C 94.01041,343.351 91.01369,346.34909 87.31646,346.34909 C 83.61923,346.34909 80.62251,343.351 80.6242,339.65377 C 80.62251,335.95654 83.61923,332.95845 87.31646,332.95845 C 91.01369,332.95845 94.01041,335.95654 94.00872,339.65377 z "
       style="fill:#ffffff;fill-opacity:1;fill-rule:evenodd;stroke:#000000;stroke-width:3.70000005;stroke-linecap:round;stroke-miterlimit:4;stroke-dasharray:none;stroke-opacity:1"
       id="path3473" />
    <path
       d="M 95.01887,463.14492 C 95.02056,466.84215 92.02384,469.84024 88.32661,469.84024 C 84.62938,469.84024 81.63266,466.84215 81.63435,463.14492 C 81.63266,459.44769 84.62938,456.4496 88.32661,456.4496 C 92.02384,456.4496 95.02056,459.44769 95.01887,463.14492 z "
       style="fill:#ffffff;fill-opacity:1;fill-rule:evenodd;stroke:#000000;stroke-width:3.70000005;stroke-linecap:round;stroke-miterlimit:4;stroke-dasharray:none;stroke-opacity:1"
       id="path3503" />
    <path
       d="M 193.67077,58.124227 C 193.67231,58.892147 193.26351,59.602387 192.59873,59.986797 C 191.93394,60.371197 191.11446,60.371197 190.44967,59.986797 C 189.78489,59.602387 189.37609,58.892147 189.37763,58.124227 C 189.37609,57.356307 189.78489,56.646067 190.44967,56.261657 C 191.11446,55.877257 191.93394,55.877257 192.59873,56.261657 C 193.26351,56.646067 193.67231,57.356307 193.67077,58.124227 L 193.67077,58.124227 z "
       style="fill:#ffffff;fill-opacity:1;fill-rule:evenodd;stroke:#ffffff;stroke-width:3.70000005;stroke-linecap:round;stroke-miterlimit:4;stroke-dasharray:none;stroke-opacity:1"
       id="path3686" />
    <path
       d="M 180.53877,166.71563 C 180.54031,167.48355 180.13151,168.19379 179.46673,168.5782 C 178.80194,168.9626 177.98246,168.9626 177.31767,168.5782 C 176.65289,168.19379 176.24409,167.48355 176.24563,166.71563 C 176.24409,165.94771 176.65289,165.23747 177.31767,164.85306 C 177.98246,164.46866 178.80194,164.46866 179.46673,164.85306 C 180.13151,165.23747 180.54031,165.94771 180.53877,166.71563 L 180.53877,166.71563 z "
       style="fill:#ffffff;fill-opacity:1;fill-rule:evenodd;stroke:#ffffff;stroke-width:3.70000005;stroke-linecap:round;stroke-miterlimit:4;stroke-dasharray:none;stroke-opacity:1"
       id="path3688" />
    <path
       d="M 123.97027,222.7791 C 123.97181,223.54702 123.56301,224.25727 122.89823,224.64167 C 122.23344,225.02607 121.41396,225.02607 120.74917,224.64167 C 120.08439,224.25727 119.67559,223.54702 119.67713,222.7791 C 119.67559,222.01118 120.08439,221.30094 120.74917,220.91653 C 121.41396,220.53213 122.23344,220.53213 122.89823,220.91653 C 123.56301,221.30094 123.97181,222.01118 123.97027,222.7791 L 123.97027,222.7791 z "
       style="fill:#ffffff;fill-opacity:1;fill-rule:evenodd;stroke:#ffffff;stroke-width:3.70000005;stroke-linecap:round;stroke-miterlimit:4;stroke-dasharray:none;stroke-opacity:1"
       id="path3690" />
    <path
       d="M 90.13017,399.05072 C 90.13171,399.81864 89.72291,400.52888 89.05813,400.91329 C 88.39334,401.29769 87.57386,401.29769 86.90907,400.91329 C 86.24429,400.52888 85.83549,399.81864 85.83703,399.05072 C 85.83549,398.2828 86.24429,397.57256 86.90907,397.18815 C 87.57386,396.80375 88.39334,396.80375 89.05813,397.18815 C 89.72291,397.57256 90.13171,398.2828 90.13017,399.05072 L 90.13017,399.05072 z "
       style="fill:#ffffff;fill-opacity:1;fill-rule:evenodd;stroke:#ffffff;stroke-width:3.70000005;stroke-linecap:round;stroke-miterlimit:4;stroke-dasharray:none;stroke-opacity:1"
       id="path3692" />
    <path
       d="M 90.13017,496.53044 C 90.13171,497.29836 89.72291,498.0086 89.05813,498.39301 C 88.39334,498.77741 87.57386,498.77741 86.90907,498.39301 C 86.24429,498.0086 85.83549,497.29836 85.83703,496.53044 C 85.83549,495.76252 86.24429,495.05228 86.90907,494.66787 C 87.57386,494.28347 88.39334,494.28347 89.05813,494.66787 C 89.72291,495.05228 90.13171,495.76252 90.13017,496.53044 L 90.13017,496.53044 z "
       style="fill:#ffffff;fill-opacity:1;fill-rule:evenodd;stroke:#ffffff;stroke-width:3.70000005;stroke-linecap:round;stroke-miterlimit:4;stroke-dasharray:none;stroke-opacity:1"
       id="path3694" />
    <path
       d="M 90.13017,532.89593 C 90.13171,533.66385 89.72291,534.3741 89.05813,534.7585 C 88.39334,535.1429 87.57386,535.1429 86.90907,534.7585 C 86.24429,534.3741 85.83549,533.66385 85.83703,532.89593 C 85.83549,532.12801 86.24429,531.41777 86.90907,531.03336 C 87.57386,530.64896 88.39334,530.64896 89.05813,531.03336 C 89.72291,531.41777 90.13171,532.12801 90.13017,532.89593 L 90.13017,532.89593 z "
       style="fill:#ffffff;fill-opacity:1;fill-rule:evenodd;stroke:#ffffff;stroke-width:3.70000005;stroke-linecap:round;stroke-miterlimit:4;stroke-dasharray:none;stroke-opacity:1"
       id="path3696" />
    <path
       d="M 90.13017,632.90104 C 90.13171,633.66896 89.72291,634.3792 89.05813,634.76361 C 88.39334,635.14801 87.57386,635.14801 86.90907,634.76361 C 86.24429,634.3792 85.83549,633.66896 85.83703,632.90104 C 85.83549,632.13312 86.24429,631.42288 86.90907,631.03847 C 87.57386,630.65407 88.39334,630.65407 89.05813,631.03847 C 89.72291,631.42288 90.13171,632.13312 90.13017,632.90104 L 90.13017,632.90104 z "
       style="fill:#ffffff;fill-opacity:1;fill-rule:evenodd;stroke:#ffffff;stroke-width:3.70000005;stroke-linecap:round;stroke-miterlimit:4;stroke-dasharray:none;stroke-opacity:1"
       id="path3698" />
    <path
       d="M 90.13017,667.24624 C 90.13171,668.01416 89.72291,668.72441 89.05813,669.10881 C 88.39334,669.49321 87.57386,669.49321 86.90907,669.10881 C 86.24429,668.72441 85.83549,668.01416 85.83703,667.24624 C 85.83549,666.47832 86.24429,665.76808 86.90907,665.38367 C 87.57386,664.99927 88.39334,664.99927 89.05813,665.38367 C 89.72291,665.76808 90.13171,666.47832 90.13017,667.24624 L 90.13017,667.24624 z "
       style="fill:#ffffff;fill-opacity:1;fill-rule:evenodd;stroke:#ffffff;stroke-width:3.70000005;stroke-linecap:round;stroke-miterlimit:4;stroke-dasharray:none;stroke-opacity:1"
       id="path3700" />
    <path
       d="M 90.13017,702.60154 C 90.13171,703.36946 89.72291,704.07971 89.05813,704.46411 C 88.39334,704.84851 87.57386,704.84851 86.90907,704.46411 C 86.24429,704.07971 85.83549,703.36946 85.83703,702.60154 C 85.83549,701.83362 86.24429,701.12338 86.90907,700.73897 C 87.57386,700.35457 88.39334,700.35457 89.05813,700.73897 C 89.72291,701.12338 90.13171,701.83362 90.13017,702.60154 L 90.13017,702.60154 z "
       style="fill:#ffffff;fill-opacity:1;fill-rule:evenodd;stroke:#ffffff;stroke-width:3.70000005;stroke-linecap:round;stroke-miterlimit:4;stroke-dasharray:none;stroke-opacity:1"
       id="path3702" />
    <path
       d="M 90.13017,736.44164 C 90.13171,737.20956 89.72291,737.9198 89.05813,738.30421 C 88.39334,738.68861 87.57386,738.68861 86.90907,738.30421 C 86.24429,737.9198 85.83549,737.20956 85.83703,736.44164 C 85.83549,735.67372 86.24429,734.96348 86.90907,734.57907 C 87.57386,734.19467 88.39334,734.19467 89.05813,734.57907 C 89.72291,734.96348 90.13171,735.67372 90.13017,736.44164 L 90.13017,736.44164 z "
       style="fill:#ffffff;fill-opacity:1;fill-rule:evenodd;stroke:#ffffff;stroke-width:3.70000005;stroke-linecap:round;stroke-miterlimit:4;stroke-dasharray:none;stroke-opacity:1"
       id="path3704" />
    <path
       d="M 90.13017,771.79694 C 90.13171,772.56486 89.72291,773.27511 89.05813,773.65951 C 88.39334,774.04391 87.57386,774.04391 86.90907,773.65951 C 86.24429,773.27511 85.83549,772.56486 85.83703,771.79694 C 85.83549,771.02902 86.24429,770.31878 86.90907,769.93437 C 87.57386,769.54997 88.39334,769.54997 89.05813,769.93437 C 89.72291,770.31878 90.13171,771.02902 90.13017,771.79694 L 90.13017,771.79694 z "
       style="fill:#ffffff;fill-opacity:1;fill-rule:evenodd;stroke:#ffffff;stroke-width:3.70000005;stroke-linecap:round;stroke-miterlimit:4;stroke-dasharray:none;stroke-opacity:1"
       id="path3706" />
    <path
       d="M 90.13017,807.15224 C 90.13171,807.92016 89.72291,808.63041 89.05813,809.01481 C 88.39334,809.39921 87.57386,809.39921 86.90907,809.01481 C 86.24429,808.63041 85.83549,807.92016 85.83703,807.15224 C 85.83549,806.38432 86.24429,805.67408 86.90907,805.28967 C 87.57386,804.90527 88.39334,804.90527 89.05813,805.28967 C 89.72291,805.67408 90.13171,806.38432 90.13017,807.15224 L 90.13017,807.15224 z "
       style="fill:#ffffff;fill-opacity:1;fill-rule:evenodd;stroke:#ffffff;stroke-width:3.70000005;stroke-linecap:round;stroke-miterlimit:4;stroke-dasharray:none;stroke-opacity:1"
       id="path3708" />
    <path
       d="M 90.13017,841.49744 C 90.13171,842.26536 89.72291,842.97561 89.05813,843.36001 C 88.39334,843.74441 87.57386,843.74441 86.90907,843.36001 C 86.24429,842.97561 85.83549,842.26536 85.83703,841.49744 C 85.83549,840.72952 86.24429,840.01928 86.90907,839.63487 C 87.57386,839.25047 88.39334,839.25047 89.05813,839.63487 C 89.72291,840.01928 90.13171,840.72952 90.13017,841.49744 L 90.13017,841.49744 z "
       style="fill:#ffffff;fill-opacity:1;fill-rule:evenodd;stroke:#ffffff;stroke-width:3.70000005;stroke-linecap:round;stroke-miterlimit:4;stroke-dasharray:none;stroke-opacity:1"
       id="path3710" />
    <path
       d="M 90.13017,876.34774 C 90.13171,877.11566 89.72291,877.82591 89.05813,878.21031 C 88.39334,878.59471 87.57386,878.59471 86.90907,878.21031 C 86.24429,877.82591 85.83549,877.11566 85.83703,876.34774 C 85.83549,875.57982 86.24429,874.86958 86.90907,874.48517 C 87.57386,874.10077 88.39334,874.10077 89.05813,874.48517 C 89.72291,874.86958 90.13171,875.57982 90.13017,876.34774 L 90.13017,876.34774 z "
       style="fill:#ffffff;fill-opacity:1;fill-rule:evenodd;stroke:#ffffff;stroke-width:3.70000005;stroke-linecap:round;stroke-miterlimit:4;stroke-dasharray:none;stroke-opacity:1"
       id="path3712" />
    <path
       d="M 90.13017,910.18784 C 90.13171,910.95576 89.72291,911.666 89.05813,912.05041 C 88.39334,912.43481 87.57386,912.43481 86.90907,912.05041 C 86.24429,911.666 85.83549,910.95576 85.83703,910.18784 C 85.83549,909.41992 86.24429,908.70968 86.90907,908.32527 C 87.57386,907.94087 88.39334,907.94087 89.05813,908.32527 C 89.72291,908.70968 90.13171,909.41992 90.13017,910.18784 L 90.13017,910.18784 z "
       style="fill:#ffffff;fill-opacity:1;fill-rule:evenodd;stroke:#ffffff;stroke-width:3.70000005;stroke-linecap:round;stroke-miterlimit:4;stroke-dasharray:none;stroke-opacity:1"
       id="path3714" />
    <rect
       width="30.526741"
       height="30.526741"
       rx="3.2829957"
       ry="3.2829957"
       x="176.68307"
       y="13.022313"
       style="fill:#9e9a3a;fill-opacity:1;fill-rule:evenodd;stroke:none;stroke-width:1;stroke-linecap:round;stroke-miterlimit:4;stroke-dasharray:none;stroke-opacity:1"
       id="rect4032" />
    <text
       x="183.13394"
       y="39.590366"
       style="font-size:32px;font-style:normal;font-weight:bold;fill:#ffffff;fill-opacity:1;stroke:none;stroke-width:1px;stroke-linecap:butt;stroke-linejoin:miter;stroke-opacity:1;font-family:Arial"
       id="text4034"
       xml:space="preserve"><tspan
         x="183.13394"
         y="39.590366"
         id="tspan4036">3</tspan></text>
    <rect
       width="30.526741"
       height="30.526741"
       rx="3.2829957"
       ry="3.2829957"
       x="73.825928"
       y="924.03247"
       style="fill:#9e9a3a;fill-opacity:1;fill-rule:evenodd;stroke:none;stroke-width:1;stroke-linecap:round;stroke-miterlimit:4;stroke-dasharray:none;stroke-opacity:1"
       id="rect4080" />
    <text
       x="80.276794"
       y="950.60046"
       style="font-size:32px;font-style:normal;font-weight:bold;fill:#ffffff;fill-opacity:1;stroke:none;stroke-width:1px;stroke-linecap:butt;stroke-linejoin:miter;stroke-opacity:1;font-family:Arial"
       id="text4082"
       xml:space="preserve"><tspan
         x="80.276794"
         y="950.60046"
         id="tspan4084">3</tspan></text>
    <text
       x="185.95297"
       y="178.0502"
       style="font-size:15px;font-style:normal;font-weight:normal;fill:#9e9a3a;fill-opacity:1;stroke:none;stroke-width:1px;stroke-linecap:butt;stroke-linejoin:miter;stroke-opacity:1;font-family:Sans"
       id="text4130"
       xml:space="preserve"><tspan
         x="185.95297"
         y="178.0502"
         id="tspan4132">Potrero</tspan></text>
    <text
       x="133.93011"
       y="232.59845"
       style="font-size:15px;font-style:normal;font-weight:normal;fill:#9e9a3a;fill-opacity:1;stroke:none;stroke-width:1px;stroke-linecap:butt;stroke-linejoin:miter;stroke-opacity:1;font-family:Sans"
       id="text4134"
       xml:space="preserve"><tspan
         x="133.93011"
         y="232.59845"
         id="tspan4136">Tlatelolco</tspan></text>
    <text
       x="102.34064"
       y="405.83963"
       style="font-size:15px;font-style:normal;font-weight:normal;fill:#9e9a3a;fill-opacity:1;stroke:none;stroke-width:1px;stroke-linecap:butt;stroke-linejoin:miter;stroke-opacity:1;font-family:Sans"
       id="text4138"
       xml:space="preserve"><tspan
         x="102.34064"
         y="405.83963"
         id="tspan4140">Juarez</tspan></text>
    <text
       x="100.0921"
       y="493.7229"
       style="font-size:15px;font-style:normal;font-weight:normal;fill:#9e9a3a;fill-opacity:1;stroke:none;stroke-width:1px;stroke-linecap:butt;stroke-linejoin:miter;stroke-opacity:1;font-family:Sans"
       id="text4142"
       xml:space="preserve"><tspan
         x="100.0921"
         y="493.7229"
         id="tspan4144">Niños</tspan><tspan
         x="100.0921"
         y="512.4729"
         id="tspan4146">Heroes</tspan></text>
    <text
       x="100.72198"
       y="531.7229"
       style="font-size:15px;font-style:normal;font-weight:normal;fill:#9e9a3a;fill-opacity:1;stroke:none;stroke-width:1px;stroke-linecap:butt;stroke-linejoin:miter;stroke-opacity:1;font-family:Sans"
       id="text4148"
       xml:space="preserve"><tspan
         x="100.72198"
         y="531.7229"
         id="tspan4152">Hospital</tspan><tspan
         x="100.72198"
         y="550.4729"
         id="tspan4156">General</tspan></text>
    <text
       x="99.564636"
       y="637.7229"
       style="font-size:15px;font-style:normal;font-weight:normal;fill:#9e9a3a;fill-opacity:1;stroke:none;stroke-width:1px;stroke-linecap:butt;stroke-linejoin:miter;stroke-opacity:1;font-family:Sans"
       id="text4158"
       xml:space="preserve"><tspan
         x="99.564636"
         y="637.7229"
         id="tspan4162">Etiopia</tspan></text>
    <text
       x="100.0921"
       y="673.7229"
       style="font-size:15px;font-style:normal;font-weight:normal;fill:#9e9a3a;fill-opacity:1;stroke:none;stroke-width:1px;stroke-linecap:butt;stroke-linejoin:miter;stroke-opacity:1;font-family:Sans"
       id="text4166"
       xml:space="preserve"><tspan
         x="100.0921"
         y="673.7229"
         id="tspan4168">Eugenia</tspan></text>
    <text
       x="100.73663"
       y="701.7229"
       style="font-size:15px;font-style:normal;font-weight:normal;fill:#9e9a3a;fill-opacity:1;stroke:none;stroke-width:1px;stroke-linecap:butt;stroke-linejoin:miter;stroke-opacity:1;font-family:Sans"
       id="text4170"
       xml:space="preserve"><tspan
         x="100.73663"
         y="701.7229"
         id="tspan4172">Division</tspan><tspan
         x="100.73663"
         y="720.4729"
         id="tspan4174">del Norte</tspan></text>
    <text
       x="100.89044"
       y="741.7229"
       style="font-size:15px;font-style:normal;font-weight:normal;fill:#9e9a3a;fill-opacity:1;stroke:none;stroke-width:1px;stroke-linecap:butt;stroke-linejoin:miter;stroke-opacity:1;font-family:Sans"
       id="text4176"
       xml:space="preserve"><tspan
         x="100.89044"
         y="741.7229"
         id="tspan4180">Zapata</tspan></text>
    <text
       x="100.72198"
       y="777.7229"
       style="font-size:15px;font-style:normal;font-weight:normal;fill:#9e9a3a;fill-opacity:1;stroke:none;stroke-width:1px;stroke-linecap:butt;stroke-linejoin:miter;stroke-opacity:1;font-family:Sans"
       id="text4184"
       xml:space="preserve"><tspan
         x="100.72198"
         y="777.7229"
         id="tspan4186">Coyoacan</tspan></text>
    <text
       x="101.44708"
       y="811.7229"
       style="font-size:15px;font-style:normal;font-weight:normal;fill:#9e9a3a;fill-opacity:1;stroke:none;stroke-width:1px;stroke-linecap:butt;stroke-linejoin:miter;stroke-opacity:1;font-family:Sans"
       id="text4188"
       xml:space="preserve"><tspan
         x="101.44708"
         y="811.7229"
         id="tspan4190">Viveros</tspan></text>
    <text
       x="100.0921"
       y="845.7229"
       style="font-size:15px;font-style:normal;font-weight:normal;fill:#9e9a3a;fill-opacity:1;stroke:none;stroke-width:1px;stroke-linecap:butt;stroke-linejoin:miter;stroke-opacity:1;font-family:Sans"
       id="text4192"
       xml:space="preserve"><tspan
         x="100.0921"
         y="845.7229"
         id="tspan4194">M. A. De Quevedo</tspan></text>
    <text
       x="100.72198"
       y="881.7229"
       style="font-size:15px;font-style:normal;font-weight:normal;fill:#9e9a3a;fill-opacity:1;stroke:none;stroke-width:1px;stroke-linecap:butt;stroke-linejoin:miter;stroke-opacity:1;font-family:Sans"
       id="text4196"
       xml:space="preserve"><tspan
         x="100.72198"
         y="881.7229"
         id="tspan4198">Copilco</tspan></text>
    <text
       x="100.26056"
       y="917.7229"
       style="font-size:15px;font-style:normal;font-weight:normal;fill:#9e9a3a;fill-opacity:1;stroke:none;stroke-width:1px;stroke-linecap:butt;stroke-linejoin:miter;stroke-opacity:1;font-family:Sans"
       id="text4200"
       xml:space="preserve"><tspan
         x="100.26056"
         y="917.7229"
         id="tspan4202">Universidad</tspan></text>
    <text
       x="204.04114"
       y="130.02167"
       style="font-size:15px;font-style:normal;font-weight:normal;text-align:start;text-anchor:start;fill:#000000;fill-opacity:1;stroke:none;stroke-width:1px;stroke-linecap:butt;stroke-linejoin:miter;stroke-opacity:1;font-family:Sans"
       id="text4701"
       xml:space="preserve"><tspan
         x="204.04114"
         y="130.02167"
         id="tspan4705">Deportivo</tspan><tspan
         x="204.04114"
         y="148.77167"
         id="tspan4709">18 de Marzo</tspan></text>
    <text
       x="100.0921"
       y="346.12613"
       style="font-size:15px;font-style:normal;font-weight:normal;text-align:start;text-anchor:start;fill:#000000;fill-opacity:1;stroke:none;stroke-width:1px;stroke-linecap:butt;stroke-linejoin:miter;stroke-opacity:1;font-family:Sans"
       id="text4733"
       xml:space="preserve"><tspan
         x="100.0921"
         y="346.12613"
         id="tspan4735">Hidalgo</tspan></text>
    <text
       x="100.0921"
       y="466.8071"
       style="font-size:15px;font-style:normal;font-weight:normal;text-align:start;text-anchor:start;fill:#000000;fill-opacity:1;stroke:none;stroke-width:1px;stroke-linecap:butt;stroke-linejoin:miter;stroke-opacity:1;font-family:Sans"
       id="text4743"
       xml:space="preserve"><tspan
         x="100.0921"
         y="466.8071"
         id="tspan4745">Balderas</tspan></text>
    <text
       x="100.72198"
       y="594.14984"
       style="font-size:15px;font-style:normal;font-weight:normal;text-align:start;text-anchor:start;fill:#000000;fill-opacity:1;stroke:none;stroke-width:1px;stroke-linecap:butt;stroke-linejoin:miter;stroke-opacity:1;font-family:Sans"
       id="text4763"
       xml:space="preserve"><tspan
         x="100.72198"
         y="594.14984"
         id="tspan4765">Centro</tspan><tspan
         x="100.72198"
         y="612.89984"
         id="tspan4767">Medico</tspan></text>
    <text
       x="164.48599"
       y="202.17757"
       style="font-size:15px;font-style:normal;font-weight:normal;text-align:start;text-anchor:start;fill:#000000;fill-opacity:1;stroke:none;stroke-width:1px;stroke-linecap:butt;stroke-linejoin:miter;stroke-opacity:1;font-family:Sans"
       id="text4803"
       xml:space="preserve"><tspan
         x="164.48599"
         y="202.17757"
         id="tspan4805">La Raza</tspan></text>
    <text
       x="198.82184"
       y="63.666313"
       style="font-size:15px;font-style:normal;font-weight:normal;fill:#9e9a3a;fill-opacity:1;stroke:none;stroke-width:1px;stroke-linecap:butt;stroke-linejoin:miter;stroke-opacity:1;font-family:Sans"
       id="text4126"
       xml:space="preserve"><tspan
         x="198.82184"
         y="63.666313"
         id="tspan4128">Indios Verdes</tspan></text>
    <text
       x="100.72198"
       y="308.13983"
       style="font-size:15px;font-style:normal;font-weight:normal;text-align:start;text-anchor:start;fill:#000000;fill-opacity:1;stroke:none;stroke-width:1px;stroke-linecap:butt;stroke-linejoin:miter;stroke-opacity:1;font-family:Sans"
       id="text4725"
       xml:space="preserve"><tspan
         x="100.72198"
         y="308.13983"
         id="tspan4727">Guerrero</tspan></text>
  </g>
</svg>
