<?xml version="1.0" encoding="UTF-8" standalone="no"?>
<!-- Created with Inkscape (http://www.inkscape.org/) -->
<svg
   xmlns:svg="http://www.w3.org/2000/svg"
   xmlns="http://www.w3.org/2000/svg"
   version="1.0"
   width="869.7312"
   height="144.44167"
   id="svg1901">
  <defs
     id="defs1903" />
  <g
     transform="translate(-41.926407,29.001041)"
     style="opacity:1"
     id="layer1">
    <path
       d="M 100.02972,55.865579 L 789.6398,55.865579 L 827.07142,18.433959"
       style="fill:none;fill-opacity:1;fill-rule:evenodd;stroke:#8d5544;stroke-width:9;stroke-linecap:round;stroke-miterlimit:4;stroke-dasharray:none;stroke-opacity:1"
       id="path3438" />
    <path
       d="M 334.31355,55.879909 C 334.31524,59.577139 331.31852,62.575229 327.62129,62.575229 C 323.92406,62.575229 320.92734,59.577139 320.92903,55.879909 C 320.92734,52.182679 323.92406,49.184589 327.62129,49.184589 C 331.31852,49.184589 334.31524,52.182679 334.31355,55.879909 z "
       style="fill:#ffffff;fill-opacity:1;fill-rule:evenodd;stroke:#000000;stroke-width:3.70000005;stroke-linecap:round;stroke-miterlimit:4;stroke-dasharray:none;stroke-opacity:1"
       id="path3457" />
    <path
       d="M 107.02923,55.879909 C 107.03092,59.577139 104.0342,62.575229 100.33697,62.575229 C 96.63974,62.575229 93.64302,59.577139 93.64471,55.879909 C 93.64302,52.182679 96.63974,49.184589 100.33697,49.184589 C 104.0342,49.184589 107.03092,52.182679 107.02923,55.879909 z "
       style="fill:#ffffff;fill-opacity:1;fill-rule:evenodd;stroke:#000000;stroke-width:3.70000005;stroke-linecap:round;stroke-miterlimit:4;stroke-dasharray:none;stroke-opacity:1"
       id="path3459" />
    <path
       d="M 833.58145,15.978889 C 833.58314,19.676119 830.58642,22.674209 826.88919,22.674209 C 823.19196,22.674209 820.19524,19.676119 820.19693,15.978889 C 820.19524,12.281659 823.19196,9.2835686 826.88919,9.2835686 C 830.58642,9.2835686 833.58314,12.281659 833.58145,15.978889 z "
       style="fill:#ffffff;fill-opacity:1;fill-rule:evenodd;stroke:#000000;stroke-width:3.70000005;stroke-linecap:round;stroke-miterlimit:4;stroke-dasharray:none;stroke-opacity:1"
       id="path3491" />
    <path
       d="M 628.52048,56.384989 C 628.52217,60.082219 625.52545,63.080309 621.82822,63.080309 C 618.13099,63.080309 615.13427,60.082219 615.13596,56.384989 C 615.13427,52.687759 618.13099,49.689669 621.82822,49.689669 C 625.52545,49.689669 628.52217,52.687759 628.52048,56.384989 z "
       style="fill:#ffffff;fill-opacity:1;fill-rule:evenodd;stroke:#000000;stroke-width:3.70000005;stroke-linecap:round;stroke-miterlimit:4;stroke-dasharray:none;stroke-opacity:1"
       id="path3495" />
    <path
       d="M 515.38339,55.879909 C 515.38508,59.577139 512.38836,62.575229 508.69113,62.575229 C 504.9939,62.575229 501.99718,59.577139 501.99887,55.879909 C 501.99718,52.182679 504.9939,49.184589 508.69113,49.184589 C 512.38836,49.184589 515.38508,52.182679 515.38339,55.879909 z "
       style="fill:#ffffff;fill-opacity:1;fill-rule:evenodd;stroke:#000000;stroke-width:3.70000005;stroke-linecap:round;stroke-miterlimit:4;stroke-dasharray:none;stroke-opacity:1"
       id="path3497" />
    <path
       d="M 807.63918,40.137919 C 807.64072,40.905839 807.23192,41.616079 806.56714,42.000489 C 805.90235,42.384889 805.08287,42.384889 804.41808,42.000489 C 803.7533,41.616079 803.3445,40.905839 803.34604,40.137919 C 803.3445,39.369999 803.7533,38.659759 804.41808,38.275349 C 805.08287,37.890949 805.90235,37.890949 806.56714,38.275349 C 807.23192,38.659759 807.64072,39.369999 807.63918,40.137919 L 807.63918,40.137919 z "
       style="fill:#ffffff;fill-opacity:1;fill-rule:evenodd;stroke:#ffffff;stroke-width:3.70000005;stroke-linecap:round;stroke-miterlimit:4;stroke-dasharray:none;stroke-opacity:1"
       id="path3671" />
    <path
       d="M 776.21061,56.209359 C 776.21215,56.977279 775.80335,57.687529 775.13857,58.071929 C 774.47378,58.456329 773.6543,58.456329 772.98951,58.071929 C 772.32473,57.687529 771.91593,56.977279 771.91747,56.209359 C 771.91593,55.441439 772.32473,54.731199 772.98951,54.346789 C 773.6543,53.962389 774.47378,53.962389 775.13857,54.346789 C 775.80335,54.731199 776.21215,55.441439 776.21061,56.209359 L 776.21061,56.209359 z "
       style="fill:#ffffff;fill-opacity:1;fill-rule:evenodd;stroke:#ffffff;stroke-width:3.70000005;stroke-linecap:round;stroke-miterlimit:4;stroke-dasharray:none;stroke-opacity:1"
       id="path3673" />
    <path
       d="M 729.06775,56.209359 C 729.06929,56.977279 728.66049,57.687529 727.99571,58.071929 C 727.33092,58.456329 726.51144,58.456329 725.84665,58.071929 C 725.18187,57.687529 724.77307,56.977279 724.77461,56.209359 C 724.77307,55.441439 725.18187,54.731199 725.84665,54.346789 C 726.51144,53.962389 727.33092,53.962389 727.99571,54.346789 C 728.66049,54.731199 729.06929,55.441439 729.06775,56.209359 L 729.06775,56.209359 z "
       style="fill:#ffffff;fill-opacity:1;fill-rule:evenodd;stroke:#ffffff;stroke-width:3.70000005;stroke-linecap:round;stroke-miterlimit:4;stroke-dasharray:none;stroke-opacity:1"
       id="path3675" />
    <path
       d="M 685.85346,56.209359 C 685.855,56.977279 685.4462,57.687529 684.78142,58.071929 C 684.11663,58.456329 683.29715,58.456329 682.63236,58.071929 C 681.96758,57.687529 681.55878,56.977279 681.56032,56.209359 C 681.55878,55.441439 681.96758,54.731199 682.63236,54.346789 C 683.29715,53.962389 684.11663,53.962389 684.78142,54.346789 C 685.4462,54.731199 685.855,55.441439 685.85346,56.209359 L 685.85346,56.209359 z "
       style="fill:#ffffff;fill-opacity:1;fill-rule:evenodd;stroke:#ffffff;stroke-width:3.70000005;stroke-linecap:round;stroke-miterlimit:4;stroke-dasharray:none;stroke-opacity:1"
       id="path3677" />
    <path
       d="M 422.99629,56.209359 C 422.99783,56.977279 422.58903,57.687529 421.92425,58.071929 C 421.25946,58.456329 420.43998,58.456329 419.77519,58.071929 C 419.11041,57.687529 418.70161,56.977279 418.70315,56.209359 C 418.70161,55.441439 419.11041,54.731199 419.77519,54.346789 C 420.43998,53.962389 421.25946,53.962389 421.92425,54.346789 C 422.58903,54.731199 422.99783,55.441439 422.99629,56.209359 L 422.99629,56.209359 z "
       style="fill:#ffffff;fill-opacity:1;fill-rule:evenodd;stroke:#ffffff;stroke-width:3.70000005;stroke-linecap:round;stroke-miterlimit:4;stroke-dasharray:none;stroke-opacity:1"
       id="path3680" />
    <path
       d="M 272.99629,56.209359 C 272.99783,56.977279 272.58903,57.687529 271.92425,58.071929 C 271.25946,58.456329 270.43998,58.456329 269.77519,58.071929 C 269.11041,57.687529 268.70161,56.977279 268.70315,56.209359 C 268.70161,55.441439 269.11041,54.731199 269.77519,54.346789 C 270.43998,53.962389 271.25946,53.962389 271.92425,54.346789 C 272.58903,54.731199 272.99783,55.441439 272.99629,56.209359 L 272.99629,56.209359 z "
       style="fill:#ffffff;fill-opacity:1;fill-rule:evenodd;stroke:#ffffff;stroke-width:3.70000005;stroke-linecap:round;stroke-miterlimit:4;stroke-dasharray:none;stroke-opacity:1"
       id="path3682" />
    <path
       d="M 181.92489,56.209359 C 181.92643,56.977279 181.51763,57.687529 180.85285,58.071929 C 180.18806,58.456329 179.36858,58.456329 178.70379,58.071929 C 178.03901,57.687529 177.63021,56.977279 177.63175,56.209359 C 177.63021,55.441439 178.03901,54.731199 178.70379,54.346789 C 179.36858,53.962389 180.18806,53.962389 180.85285,54.346789 C 181.51763,54.731199 181.92643,55.441439 181.92489,56.209359 L 181.92489,56.209359 z "
       style="fill:#ffffff;fill-opacity:1;fill-rule:evenodd;stroke:#ffffff;stroke-width:3.70000005;stroke-linecap:round;stroke-miterlimit:4;stroke-dasharray:none;stroke-opacity:1"
       id="path3684" />
    <rect
       width="30.526741"
       height="30.526741"
       rx="3.2829957"
       ry="3.2829957"
       x="838.46222"
       y="-13.231496"
       style="fill:#8d5544;fill-opacity:1;fill-rule:evenodd;stroke:none;stroke-width:1;stroke-linecap:round;stroke-miterlimit:4;stroke-dasharray:none;stroke-opacity:1"
       id="rect3996" />
    <text
       x="845.06158"
       y="13.328744"
       style="font-size:32px;font-style:normal;font-weight:bold;fill:#ffffff;fill-opacity:1;stroke:none;stroke-width:1px;stroke-linecap:butt;stroke-linejoin:miter;stroke-opacity:1;font-family:Arial"
       id="text3998"
       xml:space="preserve"><tspan
         x="845.06158"
         y="13.328744"
         id="tspan4000">9</tspan></text>
    <rect
       width="30.526741"
       height="30.526741"
       rx="3.2829957"
       ry="3.2829957"
       x="57.033745"
       y="38.911335"
       style="fill:#8d5544;fill-opacity:1;fill-rule:evenodd;stroke:none;stroke-width:1;stroke-linecap:round;stroke-miterlimit:4;stroke-dasharray:none;stroke-opacity:1"
       id="rect4014" />
    <text
       x="63.633049"
       y="65.471581"
       style="font-size:32px;font-style:normal;font-weight:bold;fill:#ffffff;fill-opacity:1;stroke:none;stroke-width:1px;stroke-linecap:butt;stroke-linejoin:miter;stroke-opacity:1;font-family:Arial"
       id="text4016"
       xml:space="preserve"><tspan
         x="63.633049"
         y="65.471581"
         id="tspan4018">9</tspan></text>
    <text
       x="746.92126"
       y="39.871418"
       style="font-size:15px;font-style:normal;font-weight:normal;fill:#8d5544;fill-opacity:1;stroke:none;stroke-width:1px;stroke-linecap:butt;stroke-linejoin:miter;stroke-opacity:1;font-family:Sans"
       id="text4298"
       xml:space="preserve"><tspan
         x="746.92126"
         y="39.871418"
         id="tspan4300">Puebla</tspan></text>
    <text
       x="769.06421"
       y="76.800003"
       style="font-size:15px;font-style:normal;font-weight:normal;fill:#8d5544;fill-opacity:1;stroke:none;stroke-width:1px;stroke-linecap:butt;stroke-linejoin:miter;stroke-opacity:1;font-family:Sans"
       id="text4302"
       xml:space="preserve"><tspan
         x="769.06421"
         y="76.800003"
         id="tspan4304">Ciudad</tspan><tspan
         x="769.06421"
         y="95.550003"
         id="tspan4306">Deportiva</tspan></text>
    <text
       x="674.20703"
       y="95.585709"
       style="font-size:15px;font-style:normal;font-weight:normal;fill:#8d5544;fill-opacity:1;stroke:none;stroke-width:1px;stroke-linecap:butt;stroke-linejoin:miter;stroke-opacity:1;font-family:Sans"
       id="text4308"
       xml:space="preserve"><tspan
         x="674.20703"
         y="95.585709"
         id="tspan4310">Velodromo</tspan></text>
    <path
       d="M 715.74401,81.937009 L 727.88687,58.722719"
       style="fill:none;fill-opacity:1;fill-rule:evenodd;stroke:#000000;stroke-width:1;stroke-linecap:round;stroke-miterlimit:4;stroke-dasharray:none;stroke-opacity:1"
       id="path4312" />
    <text
       x="646.70703"
       y="47.014301"
       style="font-size:15px;font-style:normal;font-weight:normal;fill:#8d5544;fill-opacity:1;stroke:none;stroke-width:1px;stroke-linecap:butt;stroke-linejoin:miter;stroke-opacity:1;font-family:Sans"
       id="text4314"
       xml:space="preserve"><tspan
         x="646.70703"
         y="47.014301"
         id="tspan4316">Mixiuhca</tspan></text>
    <text
       x="422.06418"
       y="80.585754"
       style="font-size:15px;font-style:normal;font-weight:normal;text-align:center;text-anchor:middle;fill:#8d5544;fill-opacity:1;stroke:none;stroke-width:1px;stroke-linecap:butt;stroke-linejoin:miter;stroke-opacity:1;font-family:Sans"
       id="text4318"
       xml:space="preserve"><tspan
         x="422.06418"
         y="80.585754"
         id="tspan4320">Lazaro</tspan><tspan
         x="422.06418"
         y="99.335754"
         id="tspan4322">Cardenas</tspan></text>
    <text
       x="220.99274"
       y="44.514362"
       style="font-size:15px;font-style:normal;font-weight:normal;text-align:start;text-anchor:start;fill:#8d5544;fill-opacity:1;stroke:none;stroke-width:1px;stroke-linecap:butt;stroke-linejoin:miter;stroke-opacity:1;font-family:Sans"
       id="text4324"
       xml:space="preserve"><tspan
         x="220.99274"
         y="44.514362"
         id="tspan4328">Chilpancingo</tspan></text>
    <text
       x="141.70702"
       y="82.728653"
       style="font-size:15px;font-style:normal;font-weight:normal;text-align:start;text-anchor:start;fill:#8d5544;fill-opacity:1;stroke:none;stroke-width:1px;stroke-linecap:butt;stroke-linejoin:miter;stroke-opacity:1;font-family:Sans"
       id="text4332"
       xml:space="preserve"><tspan
         x="141.70702"
         y="82.728653"
         id="tspan4334">Patriotismo</tspan></text>
    <text
       x="58.912071"
       y="83.243721"
       style="font-size:15px;font-style:normal;font-weight:normal;text-align:start;text-anchor:start;fill:#000000;fill-opacity:1;stroke:none;stroke-width:1px;stroke-linecap:butt;stroke-linejoin:miter;stroke-opacity:1;font-family:Sans"
       id="text4759"
       xml:space="preserve"><tspan
         x="58.912071"
         y="83.243721"
         id="tspan4761">Tacubaya</tspan></text>
    <text
       x="304.2692"
       y="82.886574"
       style="font-size:15px;font-style:normal;font-weight:normal;text-align:start;text-anchor:start;fill:#000000;fill-opacity:1;stroke:none;stroke-width:1px;stroke-linecap:butt;stroke-linejoin:miter;stroke-opacity:1;font-family:Sans"
       id="text4763"
       xml:space="preserve"><tspan
         x="304.2692"
         y="82.886574"
         id="tspan4765">Centro</tspan><tspan
         x="304.2692"
         y="101.63658"
         id="tspan4767">Medico</tspan></text>
    <text
       x="832.42371"
       y="37.419949"
       style="font-size:15px;font-style:normal;font-weight:normal;text-align:start;text-anchor:start;fill:#000000;fill-opacity:1;stroke:none;stroke-width:1px;stroke-linecap:butt;stroke-linejoin:miter;stroke-opacity:1;font-family:Sans"
       id="text4777"
       xml:space="preserve"><tspan
         x="832.42371"
         y="37.419949"
         id="tspan4779">Pantitlan</tspan></text>
    <text
       x="470.47034"
       y="38.988464"
       style="font-size:15px;font-style:normal;font-weight:normal;text-align:start;text-anchor:start;fill:#000000;fill-opacity:1;stroke:none;stroke-width:1px;stroke-linecap:butt;stroke-linejoin:miter;stroke-opacity:1;font-family:Sans"
       id="text4813"
       xml:space="preserve"><tspan
         x="470.47034"
         y="38.988464"
         id="tspan4815">Chabacano</tspan></text>
    <text
       x="594.75604"
       y="78.631325"
       style="font-size:15px;font-style:normal;font-weight:normal;text-align:start;text-anchor:start;fill:#000000;fill-opacity:1;stroke:none;stroke-width:1px;stroke-linecap:butt;stroke-linejoin:miter;stroke-opacity:1;font-family:Sans"
       id="text4817"
       xml:space="preserve"><tspan
         x="594.75604"
         y="78.631325"
         id="tspan4819">Jamaica</tspan></text>
  </g>
</svg>
