<?xml version="1.0" encoding="UTF-8" standalone="no"?>
<!-- Created with Inkscape (http://www.inkscape.org/) -->

<svg
   xmlns:dc="http://purl.org/dc/elements/1.1/"
   xmlns:cc="http://creativecommons.org/ns#"
   xmlns:rdf="http://www.w3.org/1999/02/22-rdf-syntax-ns#"
   xmlns:svg="http://www.w3.org/2000/svg"
   xmlns="http://www.w3.org/2000/svg"
   xmlns:sodipodi="http://sodipodi.sourceforge.net/DTD/sodipodi-0.dtd"
   xmlns:inkscape="http://www.inkscape.org/namespaces/inkscape"
   version="1.0"
   width="867.33191"
   height="518.82477"
   id="svg1901"
   sodipodi:version="0.32"
   inkscape:version="0.92.1 r15371"
   sodipodi:docname="Linea 12.svg"
   inkscape:output_extension="org.inkscape.output.svg.inkscape">
  <metadata
     id="metadata2720">
    <rdf:RDF>
      <cc:Work
         rdf:about="">
        <dc:format>image/svg+xml</dc:format>
        <dc:type
           rdf:resource="http://purl.org/dc/dcmitype/StillImage" />
        <dc:title></dc:title>
      </cc:Work>
    </rdf:RDF>
  </metadata>
  <sodipodi:namedview
     inkscape:window-height="1001"
     inkscape:window-width="1920"
     inkscape:pageshadow="2"
     inkscape:pageopacity="0.0"
     guidetolerance="10.0"
     gridtolerance="10.0"
     objecttolerance="10.0"
     borderopacity="1.0"
     bordercolor="#666666"
     pagecolor="#ffffff"
     id="base"
     inkscape:zoom="1.0619994"
     inkscape:cx="565.72075"
     inkscape:cy="251.88529"
     inkscape:window-x="-9"
     inkscape:window-y="-9"
     inkscape:current-layer="layer2"
     showgrid="false"
     inkscape:window-maximized="1"
     fit-margin-top="0"
     fit-margin-left="0"
     fit-margin-right="0"
     fit-margin-bottom="0" />
  <defs
     id="defs1903" />
  <g
     style="display:inline"
     id="layer2"
     transform="translate(-82.058716,-726.67743)">
    <path
       inkscape:connector-curvature="0"
       d="M 154.15776,788.57404 H 380.66611 485.7035 l 15.00535,81.12263 h 60.49028 l 56.73096,39.90671 123.94229,0.13881 -0.79735,161.11991 168.47478,169.8891"
       style="display:inline;fill:none;stroke:#b89d4e;stroke-width:9;stroke-linecap:round;stroke-miterlimit:4;stroke-dasharray:none;stroke-opacity:1"
       id="path3438-1"
       sodipodi:nodetypes="ccccccccc" />
    <path
       d="m 863.3016,39.627541 c 0.002,0.767919 -0.40726,1.478164 -1.07204,1.862568 -0.66479,0.384404 -1.48427,0.384404 -2.14906,0 -0.66478,-0.384404 -1.07358,-1.094649 -1.07204,-1.862568 -0.002,-0.767919 0.40726,-1.478164 1.07204,-1.862568 0.66479,-0.384404 1.48427,-0.384404 2.14906,0 0.66478,0.384404 1.07358,1.094649 1.07204,1.862568 z"
       transform="translate(-299.62079,898.90693)"
       style="fill:#ffffff;fill-opacity:1;fill-rule:evenodd;stroke:#ffffff;stroke-width:3.70000005;stroke-linecap:round;stroke-miterlimit:4;stroke-dasharray:none;stroke-opacity:1"
       id="path3567"
       inkscape:connector-curvature="0" />
    <path
       d="m 863.3016,39.627541 c 0.002,0.767919 -0.40726,1.478164 -1.07204,1.862568 -0.66479,0.384404 -1.48427,0.384404 -2.14906,0 -0.66478,-0.384404 -1.07358,-1.094649 -1.07204,-1.862568 -0.002,-0.767919 0.40726,-1.478164 1.07204,-1.862568 0.66479,-0.384404 1.48427,-0.384404 2.14906,0 0.66478,0.384404 1.07358,1.094649 1.07204,1.862568 z"
       transform="translate(-299.62079,863.90693)"
       style="fill:#ffffff;fill-opacity:1;fill-rule:evenodd;stroke:#ffffff;stroke-width:3.70000005;stroke-linecap:round;stroke-miterlimit:4;stroke-dasharray:none;stroke-opacity:1"
       id="path3569"
       inkscape:connector-curvature="0" />
    <path
       d="m 863.3016,39.627541 c 0.002,0.767919 -0.40726,1.478164 -1.07204,1.862568 -0.66479,0.384404 -1.48427,0.384404 -2.14906,0 -0.66478,-0.384404 -1.07358,-1.094649 -1.07204,-1.862568 -0.002,-0.767919 0.40726,-1.478164 1.07204,-1.862568 0.66479,-0.384404 1.48427,-0.384404 2.14906,0 0.66478,0.384404 1.07358,1.094649 1.07204,1.862568 z"
       transform="translate(-299.62079,794.97833)"
       style="fill:#ffffff;fill-opacity:1;fill-rule:evenodd;stroke:#ffffff;stroke-width:3.70000005;stroke-linecap:round;stroke-miterlimit:4;stroke-dasharray:none;stroke-opacity:1"
       id="path3573"
       inkscape:connector-curvature="0" />
    <path
       d="m 863.3016,39.627541 c 0.002,0.767919 -0.40726,1.478164 -1.07204,1.862568 -0.66479,0.384404 -1.48427,0.384404 -2.14906,0 -0.66478,-0.384404 -1.07358,-1.094649 -1.07204,-1.862568 -0.002,-0.767919 0.40726,-1.478164 1.07204,-1.862568 0.66479,-0.384404 1.48427,-0.384404 2.14906,0 0.66478,0.384404 1.07358,1.094649 1.07204,1.862568 z"
       transform="translate(-299.62079,760.33543)"
       style="fill:#ffffff;fill-opacity:1;fill-rule:evenodd;stroke:#ffffff;stroke-width:3.70000005;stroke-linecap:round;stroke-miterlimit:4;stroke-dasharray:none;stroke-opacity:1"
       id="path3575"
       inkscape:connector-curvature="0" />
    <path
       d="m 863.3016,39.627541 c 0.002,0.767919 -0.40726,1.478164 -1.07204,1.862568 -0.66479,0.384404 -1.48427,0.384404 -2.14906,0 -0.66478,-0.384404 -1.07358,-1.094649 -1.07204,-1.862568 -0.002,-0.767919 0.40726,-1.478164 1.07204,-1.862568 0.66479,-0.384404 1.48427,-0.384404 2.14906,0 0.66478,0.384404 1.07358,1.094649 1.07204,1.862568 z"
       transform="translate(-299.62079,725.69253)"
       style="fill:#ffffff;fill-opacity:1;fill-rule:evenodd;stroke:#ffffff;stroke-width:3.70000005;stroke-linecap:round;stroke-miterlimit:4;stroke-dasharray:none;stroke-opacity:1"
       id="path3577"
       inkscape:connector-curvature="0" />
    <path
       d="m 863.3016,39.627541 c 0.002,0.767919 -0.40726,1.478164 -1.07204,1.862568 -0.66479,0.384404 -1.48427,0.384404 -2.14906,0 -0.66478,-0.384404 -1.07358,-1.094649 -1.07204,-1.862568 -0.002,-0.767919 0.40726,-1.478164 1.07204,-1.862568 0.66479,-0.384404 1.48427,-0.384404 2.14906,0 0.66478,0.384404 1.07358,1.094649 1.07204,1.862568 z"
       transform="translate(-299.62079,691.04963)"
       style="fill:#ffffff;fill-opacity:1;fill-rule:evenodd;stroke:#ffffff;stroke-width:3.70000005;stroke-linecap:round;stroke-miterlimit:4;stroke-dasharray:none;stroke-opacity:1"
       id="path3579"
       inkscape:connector-curvature="0" />
    <path
       d="m 863.3016,39.627541 c 0.002,0.767919 -0.40726,1.478164 -1.07204,1.862568 -0.66479,0.384404 -1.48427,0.384404 -2.14906,0 -0.66478,-0.384404 -1.07358,-1.094649 -1.07204,-1.862568 -0.002,-0.767919 0.40726,-1.478164 1.07204,-1.862568 0.66479,-0.384404 1.48427,-0.384404 2.14906,0 0.66478,0.384404 1.07358,1.094649 1.07204,1.862568 z"
       transform="translate(-708.19199,703.54963)"
       style="fill:#ffffff;fill-opacity:1;fill-rule:evenodd;stroke:#ffffff;stroke-width:3.70000005;stroke-linecap:round;stroke-miterlimit:4;stroke-dasharray:none;stroke-opacity:1"
       id="path3621"
       inkscape:connector-curvature="0" />
    <path
       d="m 155.10961,846.81385 c 0.002,0.76792 -0.40726,1.47817 -1.07204,1.86257 -0.66479,0.3844 -1.48427,0.3844 -2.14906,0 -0.66478,-0.3844 -1.07358,-1.09465 -1.07204,-1.86257 -0.002,-0.76792 0.40726,-1.47816 1.07204,-1.86257 0.66479,-0.3844 1.48427,-0.3844 2.14906,0 0.66478,0.38441 1.07358,1.09465 1.07204,1.86257 z"
       style="fill:#ffffff;fill-opacity:1;fill-rule:evenodd;stroke:#ffffff;stroke-width:3.70000005;stroke-linecap:round;stroke-miterlimit:4;stroke-dasharray:none;stroke-opacity:1"
       id="path3625"
       inkscape:connector-curvature="0" />
    <path
       d="m 863.3016,39.627541 c 0.002,0.767919 -0.40726,1.478164 -1.07204,1.862568 -0.66479,0.384404 -1.48427,0.384404 -2.14906,0 -0.66478,-0.384404 -1.07358,-1.094649 -1.07204,-1.862568 -0.002,-0.767919 0.40726,-1.478164 1.07204,-1.862568 0.66479,-0.384404 1.48427,-0.384404 2.14906,0 0.66478,0.384404 1.07358,1.094649 1.07204,1.862568 z"
       transform="translate(-480.79679,714.60713)"
       style="fill:#ffffff;fill-opacity:1;fill-rule:evenodd;stroke:#ffffff;stroke-width:3.70000005;stroke-linecap:round;stroke-miterlimit:4;stroke-dasharray:none;stroke-opacity:1"
       id="path3702"
       inkscape:connector-curvature="0" />
    <path
       d="m 863.3016,39.627541 c 0.002,0.767919 -0.40726,1.478164 -1.07204,1.862568 -0.66479,0.384404 -1.48427,0.384404 -2.14906,0 -0.66478,-0.384404 -1.07358,-1.094649 -1.07204,-1.862568 -0.002,-0.767919 0.40726,-1.478164 1.07204,-1.862568 0.66479,-0.384404 1.48427,-0.384404 2.14906,0 0.66478,0.384404 1.07358,1.094649 1.07204,1.862568 z"
       transform="translate(-480.79679,783.80253)"
       style="fill:#ffffff;fill-opacity:1;fill-rule:evenodd;stroke:#ffffff;stroke-width:3.70000005;stroke-linecap:round;stroke-miterlimit:4;stroke-dasharray:none;stroke-opacity:1"
       id="path3706"
       inkscape:connector-curvature="0" />
    <path
       d="m 863.3016,39.627541 c 0.002,0.767919 -0.40726,1.478164 -1.07204,1.862568 -0.66479,0.384404 -1.48427,0.384404 -2.14906,0 -0.66478,-0.384404 -1.07358,-1.094649 -1.07204,-1.862568 -0.002,-0.767919 0.40726,-1.478164 1.07204,-1.862568 0.66479,-0.384404 1.48427,-0.384404 2.14906,0 0.66478,0.384404 1.07358,1.094649 1.07204,1.862568 z"
       transform="translate(-480.79679,819.15783)"
       style="fill:#ffffff;fill-opacity:1;fill-rule:evenodd;stroke:#ffffff;stroke-width:3.70000005;stroke-linecap:round;stroke-miterlimit:4;stroke-dasharray:none;stroke-opacity:1"
       id="path3708"
       inkscape:connector-curvature="0" />
    <path
       d="m 863.3016,39.627541 c 0.002,0.767919 -0.40726,1.478164 -1.07204,1.862568 -0.66479,0.384404 -1.48427,0.384404 -2.14906,0 -0.66478,-0.384404 -1.07358,-1.094649 -1.07204,-1.862568 -0.002,-0.767919 0.40726,-1.478164 1.07204,-1.862568 0.66479,-0.384404 1.48427,-0.384404 2.14906,0 0.66478,0.384404 1.07358,1.094649 1.07204,1.862568 z"
       transform="translate(-480.79679,853.50303)"
       style="fill:#ffffff;fill-opacity:1;fill-rule:evenodd;stroke:#ffffff;stroke-width:3.70000005;stroke-linecap:round;stroke-miterlimit:4;stroke-dasharray:none;stroke-opacity:1"
       id="path3710"
       inkscape:connector-curvature="0" />
    <path
       d="m 863.3016,39.627541 c 0.002,0.767919 -0.40726,1.478164 -1.07204,1.862568 -0.66479,0.384404 -1.48427,0.384404 -2.14906,0 -0.66478,-0.384404 -1.07358,-1.094649 -1.07204,-1.862568 -0.002,-0.767919 0.40726,-1.478164 1.07204,-1.862568 0.66479,-0.384404 1.48427,-0.384404 2.14906,0 0.66478,0.384404 1.07358,1.094649 1.07204,1.862568 z"
       transform="translate(-480.79679,888.35333)"
       style="fill:#ffffff;fill-opacity:1;fill-rule:evenodd;stroke:#ffffff;stroke-width:3.70000005;stroke-linecap:round;stroke-miterlimit:4;stroke-dasharray:none;stroke-opacity:1"
       id="path3712"
       inkscape:connector-curvature="0" />
    <path
       d="m 863.3016,39.627541 c 0.002,0.767919 -0.40726,1.478164 -1.07204,1.862568 -0.66479,0.384404 -1.48427,0.384404 -2.14906,0 -0.66478,-0.384404 -1.07358,-1.094649 -1.07204,-1.862568 -0.002,-0.767919 0.40726,-1.478164 1.07204,-1.862568 0.66479,-0.384404 1.48427,-0.384404 2.14906,0 0.66478,0.384404 1.07358,1.094649 1.07204,1.862568 z"
       transform="translate(-480.79679,922.19343)"
       style="fill:#ffffff;fill-opacity:1;fill-rule:evenodd;stroke:#ffffff;stroke-width:3.70000005;stroke-linecap:round;stroke-miterlimit:4;stroke-dasharray:none;stroke-opacity:1"
       id="path3714"
       inkscape:connector-curvature="0" />
    <text
       x="372.65143"
       y="1002.2336"
       style="font-style:normal;font-weight:bold;font-size:32px;line-height:0%;font-family:Arial;fill:#ffffff;fill-opacity:1;stroke:none"
       id="text4082"
       xml:space="preserve"><tspan
         x="372.65143"
         y="1002.2336"
         id="tspan4084">3</tspan></text>
    <text
       x="554.04315"
       y="978.71466"
       style="font-style:normal;font-weight:bold;font-size:32px;line-height:0%;font-family:Arial;fill:#ffffff;fill-opacity:1;stroke:none"
       id="text4100"
       xml:space="preserve"><tspan
         x="554.04315"
         y="978.71466"
         id="tspan4102">2</tspan></text>
    <text
       x="387.93927"
       y="807.35602"
       style="font-style:normal;font-weight:normal;font-size:15px;line-height:0%;font-family:sans-serif;fill:#000000;fill-opacity:1;stroke:none"
       id="text4176"
       xml:space="preserve"><tspan
         x="387.93927"
         y="807.35602"
         id="tspan4180"
         style="font-family:sans-serif;fill:#000000;fill-opacity:1">Zapata</tspan></text>
    <text
       x="572.77435"
       y="869.54858"
       style="font-style:normal;font-weight:normal;font-size:15px;line-height:0%;font-family:sans-serif;fill:#017cc0;fill-opacity:1;stroke:none"
       id="text4430"
       xml:space="preserve"><tspan
         x="572.77435"
         y="869.54858"
         id="tspan4432"
         style="font-family:sans-serif;fill:#000000;fill-opacity:1">Ermita</tspan></text>
    <text
       x="674.52466"
       y="929.4115"
       style="font-style:normal;font-weight:normal;font-size:15px;line-height:0%;font-family:sans-serif;text-align:start;text-anchor:start;fill:#03923f;fill-opacity:1;stroke:none"
       id="text4552"
       xml:space="preserve"><tspan
         x="674.52466"
         y="929.4115"
         id="tspan4554"
         style="font-family:sans-serif;fill:#030000;fill-opacity:1">Atlalilco</tspan></text>
    <text
       x="80.593872"
       y="794.26538"
       style="font-style:normal;font-weight:normal;font-size:15px;line-height:0%;font-family:sans-serif;text-align:start;text-anchor:start;fill:#000000;fill-opacity:1;stroke:none"
       id="text4645"
       xml:space="preserve"><tspan
         x="80.593872"
         y="794.26538"
         id="tspan4647"
         style="font-family:sans-serif;fill:#000000;fill-opacity:1">Mixcoac</tspan></text>
    <path
       inkscape:connector-curvature="0"
       d="m 159.91067,789.56736 c 0.002,3.69723 -2.99503,6.69532 -6.69226,6.69532 -3.69723,0 -6.69395,-2.99809 -6.69226,-6.69532 -0.002,-3.69723 2.99503,-6.69532 6.69226,-6.69532 3.69723,0 6.69395,2.99809 6.69226,6.69532 z"
       style="display:inline;fill:#ffffff;fill-opacity:1;fill-rule:evenodd;stroke:#000000;stroke-width:3.70000005;stroke-linecap:round;stroke-miterlimit:4;stroke-dasharray:none;stroke-opacity:1"
       id="path3459-5" />
    <path
       inkscape:connector-curvature="0"
       d="m 386.53567,789.81736 c 0.002,3.69723 -2.99503,6.69532 -6.69226,6.69532 -3.69723,0 -6.69395,-2.99809 -6.69226,-6.69532 -0.002,-3.69723 2.99503,-6.69532 6.69226,-6.69532 3.69723,0 6.69395,2.99809 6.69226,6.69532 z"
       style="display:inline;fill:#ffffff;fill-opacity:1;fill-rule:evenodd;stroke:#000000;stroke-width:3.70000005;stroke-linecap:round;stroke-miterlimit:4;stroke-dasharray:none;stroke-opacity:1"
       id="path3459-51" />
    <path
       inkscape:connector-curvature="0"
       d="m 568.16067,870.56736 c 0.002,3.69723 -2.99503,6.69532 -6.69226,6.69532 -3.69723,0 -6.69395,-2.99809 -6.69226,-6.69532 -0.002,-3.69723 2.99503,-6.69532 6.69226,-6.69532 3.69723,0 6.69395,2.99809 6.69226,6.69532 z"
       style="display:inline;fill:#ffffff;fill-opacity:1;fill-rule:evenodd;stroke:#000000;stroke-width:3.70000005;stroke-linecap:round;stroke-miterlimit:4;stroke-dasharray:none;stroke-opacity:1"
       id="path3459-7" />
    <path
       inkscape:connector-curvature="0"
       d="m 748.66067,910.44236 c 0.002,3.69723 -2.99503,6.69532 -6.69226,6.69532 -3.69723,0 -6.69395,-2.99809 -6.69226,-6.69532 -0.002,-3.69723 2.99503,-6.69532 6.69226,-6.69532 3.69723,0 6.69395,2.99809 6.69226,6.69532 z"
       style="display:inline;fill:#ffffff;fill-opacity:1;fill-rule:evenodd;stroke:#000000;stroke-width:3.70000005;stroke-linecap:round;stroke-miterlimit:4;stroke-dasharray:none;stroke-opacity:1"
       id="path3459-1" />
    <path
       inkscape:connector-curvature="0"
       d="m 218.88432,788.40347 c 0.002,0.76792 -0.40726,1.47817 -1.07204,1.86257 -0.66479,0.3844 -1.48427,0.3844 -2.14906,0 -0.66478,-0.3844 -1.07358,-1.09465 -1.07204,-1.86257 -0.002,-0.76792 0.40726,-1.47816 1.07204,-1.86257 0.66479,-0.3844 1.48427,-0.3844 2.14906,0 0.66478,0.38441 1.07358,1.09465 1.07204,1.86257 z"
       style="display:inline;fill:#ffffff;fill-opacity:1;fill-rule:evenodd;stroke:#ffffff;stroke-width:3.70000005;stroke-linecap:round;stroke-miterlimit:4;stroke-dasharray:none;stroke-opacity:1"
       id="path3625-1" />
    <path
       inkscape:connector-curvature="0"
       d="m 294.31797,788.75702 c 0.002,0.76792 -0.40726,1.47817 -1.07204,1.86257 -0.66479,0.38441 -1.48427,0.38441 -2.14906,0 -0.66478,-0.3844 -1.07358,-1.09465 -1.07204,-1.86257 -0.002,-0.76791 0.40726,-1.47816 1.07204,-1.86256 0.66479,-0.38441 1.48427,-0.38441 2.14906,0 0.66478,0.3844 1.07358,1.09465 1.07204,1.86256 z"
       style="display:inline;fill:#ffffff;fill-opacity:1;fill-rule:evenodd;stroke:#ffffff;stroke-width:3.70000005;stroke-linecap:round;stroke-miterlimit:4;stroke-dasharray:none;stroke-opacity:1"
       id="path3625-7" />
    <path
       inkscape:connector-curvature="0"
       d="m 743.46819,948.42274 c 0.002,0.76792 -0.40725,1.47816 -1.07204,1.86257 -0.66479,0.3844 -1.48427,0.3844 -2.14906,0 -0.66478,-0.38441 -1.07358,-1.09465 -1.07204,-1.86257 -0.002,-0.76792 0.40726,-1.47817 1.07204,-1.86257 0.6648,-0.3844 1.48427,-0.3844 2.14906,0 0.66478,0.3844 1.07358,1.09465 1.07204,1.86257 z"
       style="display:inline;fill:#ffffff;fill-opacity:1;fill-rule:evenodd;stroke:#ffffff;stroke-width:3.70000005;stroke-linecap:round;stroke-miterlimit:4;stroke-dasharray:none;stroke-opacity:1"
       id="path3625-2" />
    <path
       inkscape:connector-curvature="0"
       d="m 670.10862,909.49175 c 0.002,0.76792 -0.40726,1.47817 -1.07204,1.86257 -0.66479,0.3844 -1.48427,0.3844 -2.14906,0 -0.66478,-0.3844 -1.07358,-1.09465 -1.07204,-1.86257 -0.002,-0.76792 0.40726,-1.47816 1.07204,-1.86257 0.66479,-0.3844 1.48427,-0.3844 2.14906,0 0.66478,0.38441 1.07358,1.09465 1.07204,1.86257 z"
       style="display:inline;fill:#ffffff;fill-opacity:1;fill-rule:evenodd;stroke:#ffffff;stroke-width:3.70000005;stroke-linecap:round;stroke-miterlimit:4;stroke-dasharray:none;stroke-opacity:1"
       id="path3625-3" />
    <rect
       width="30.526741"
       height="30.526741"
       rx="3.2829957"
       ry="3.2829957"
       x="113.41364"
       y="801.56287"
       style="display:inline;fill:#b89d4e;fill-opacity:1;fill-rule:evenodd;stroke:none"
       id="rect4068-2" />
    <text
       x="110.41138"
       y="828.12311"
       style="font-style:normal;font-weight:bold;font-size:32px;line-height:0%;font-family:Arial;display:inline;fill:#ffffff;fill-opacity:1;stroke:none"
       id="text4070-2"
       xml:space="preserve"><tspan
         x="110.41138"
         y="828.12311"
         id="tspan4072-1">12</tspan></text>
    <text
       xml:space="preserve"
       style="font-style:normal;font-variant:normal;font-weight:normal;font-stretch:normal;line-height:0%;font-family:sans-serif;-inkscape-font-specification:Sans;letter-spacing:0px;word-spacing:0px;fill:#b89d4e;fill-opacity:1;stroke:none"
       x="212.40714"
       y="758.21851"
       id="text3550"><tspan
         sodipodi:role="line"
         id="tspan3552"
         x="212.40714"
         y="758.21851"
         style="font-size:15px;line-height:1.25;font-family:sans-serif">Insurgentes</tspan><tspan
         sodipodi:role="line"
         x="212.40714"
         y="776.96851"
         id="tspan3554"
         style="font-size:15px;line-height:1.25;font-family:sans-serif">Sur</tspan></text>
    <text
       xml:space="preserve"
       style="font-style:normal;font-variant:normal;font-weight:normal;font-stretch:normal;line-height:0%;font-family:sans-serif;-inkscape-font-specification:Sans;letter-spacing:0px;word-spacing:0px;fill:#b89d4e;fill-opacity:1;stroke:none"
       x="257.89471"
       y="810.10492"
       id="text3556"><tspan
         sodipodi:role="line"
         id="tspan3558"
         x="257.89471"
         y="810.10492"
         style="font-size:15px;line-height:1.25;font-family:sans-serif">Hospital 20</tspan><tspan
         sodipodi:role="line"
         x="257.89471"
         y="828.85492"
         id="tspan3560"
         style="font-size:15px;line-height:1.25;font-family:sans-serif">de Noviembre</tspan></text>
    <path
       inkscape:connector-curvature="0"
       d="m 469.47753,788.48036 c 0.002,0.76792 -0.40726,1.47816 -1.07204,1.86257 -0.66479,0.3844 -1.48427,0.3844 -2.14906,0 -0.66478,-0.38441 -1.07358,-1.09465 -1.07204,-1.86257 -0.002,-0.76792 0.40726,-1.47817 1.07204,-1.86257 0.66479,-0.3844 1.48427,-0.3844 2.14906,0 0.66478,0.3844 1.07358,1.09465 1.07204,1.86257 z"
       style="display:inline;fill:#ffffff;fill-opacity:1;fill-rule:evenodd;stroke:#ffffff;stroke-width:3.70000005;stroke-linecap:round;stroke-miterlimit:4;stroke-dasharray:none;stroke-opacity:1"
       id="path3625-2-1" />
    <text
       xml:space="preserve"
       style="font-style:normal;font-variant:normal;font-weight:normal;font-stretch:normal;line-height:0%;font-family:sans-serif;-inkscape-font-specification:Sans;letter-spacing:0px;word-spacing:0px;fill:#b89d4e;fill-opacity:1;stroke:none"
       x="461.80835"
       y="755.08643"
       id="text3580"><tspan
         sodipodi:role="line"
         id="tspan3582"
         x="461.80835"
         y="755.08643"
         style="font-size:15px;line-height:1.25;font-family:sans-serif">Parque de</tspan><tspan
         sodipodi:role="line"
         x="461.80835"
         y="773.83643"
         id="tspan3584"
         style="font-size:15px;line-height:1.25;font-family:sans-serif">los Venados</tspan></text>
    <text
       xml:space="preserve"
       style="font-style:normal;font-variant:normal;font-weight:normal;font-stretch:normal;line-height:0%;font-family:sans-serif;-inkscape-font-specification:Sans;letter-spacing:0px;word-spacing:0px;fill:#b89d4e;fill-opacity:1;stroke:none"
       x="505.34479"
       y="836.74719"
       id="text3586"><tspan
         sodipodi:role="line"
         id="tspan3588"
         x="505.34479"
         y="836.74719"
         style="font-size:15px;line-height:1.25;font-family:sans-serif">Eje</tspan><tspan
         sodipodi:role="line"
         x="505.34479"
         y="855.49719"
         id="tspan3590"
         style="font-size:15px;line-height:1.25;font-family:sans-serif">Central</tspan></text>
    <path
       inkscape:connector-curvature="0"
       d="m 523.17362,869.74085 c 0.002,0.76792 -0.40726,1.47816 -1.07204,1.86257 -0.66479,0.3844 -1.48427,0.3844 -2.14906,0 -0.66478,-0.38441 -1.07358,-1.09465 -1.07204,-1.86257 -0.002,-0.76792 0.40726,-1.47817 1.07204,-1.86257 0.66479,-0.3844 1.48427,-0.3844 2.14906,0 0.66478,0.3844 1.07358,1.09465 1.07204,1.86257 z"
       style="display:inline;fill:#ffffff;fill-opacity:1;fill-rule:evenodd;stroke:#ffffff;stroke-width:3.70000005;stroke-linecap:round;stroke-miterlimit:4;stroke-dasharray:none;stroke-opacity:1"
       id="path3625-2-1-7" />
    <path
       style="fill:none;stroke:#000000;stroke-width:1px;stroke-linecap:butt;stroke-linejoin:miter;stroke-opacity:1"
       d="m 518.83862,869.2134 -7.35555,-8.34974"
       id="path3612"
       inkscape:connector-curvature="0"
       transform="translate(0.8434053,-4.034935)"
       sodipodi:nodetypes="cc" />
    <text
       xml:space="preserve"
       style="font-style:normal;font-variant:normal;font-weight:normal;font-stretch:normal;line-height:0%;font-family:sans-serif;-inkscape-font-specification:Sans;letter-spacing:0px;word-spacing:0px;fill:#b89d4e;fill-opacity:1;stroke:none"
       x="618.17871"
       y="897.85303"
       id="text3614"><tspan
         sodipodi:role="line"
         id="tspan3616"
         x="618.17871"
         y="897.85303"
         style="font-size:15px;line-height:1.25;font-family:sans-serif">Mexicaltzingo</tspan></text>
    <text
       xml:space="preserve"
       style="font-style:normal;font-variant:normal;font-weight:normal;font-stretch:normal;line-height:0%;font-family:sans-serif;-inkscape-font-specification:Sans;text-align:start;letter-spacing:0px;word-spacing:0px;writing-mode:lr-tb;text-anchor:start;fill:#b89d4e;fill-opacity:1;stroke:none"
       x="828.22919"
       y="1235.5251"
       id="text3618"><tspan
         sodipodi:role="line"
         id="tspan3620"
         x="828.22919"
         y="1235.5251"
         style="font-size:15px;line-height:1.25;font-family:sans-serif">Tlahuac</tspan></text>
    <text
       xml:space="preserve"
       style="font-style:normal;font-variant:normal;font-weight:normal;font-stretch:normal;line-height:0%;font-family:sans-serif;-inkscape-font-specification:Sans;text-align:start;letter-spacing:0px;word-spacing:0px;writing-mode:lr-tb;text-anchor:start;fill:#b89d4e;fill-opacity:1;stroke:none"
       x="655.28241"
       y="951.9776"
       id="text3622"><tspan
         sodipodi:role="line"
         id="tspan3624"
         x="655.28241"
         y="951.9776"
         style="font-size:15px;line-height:1.25;font-family:sans-serif">Culhuacan</tspan></text>
    <text
       xml:space="preserve"
       style="font-style:normal;font-variant:normal;font-weight:normal;font-stretch:normal;line-height:0%;font-family:sans-serif;-inkscape-font-specification:Sans;text-align:start;letter-spacing:0px;word-spacing:0px;writing-mode:lr-tb;text-anchor:start;fill:#b89d4e;fill-opacity:1;stroke:none"
       x="648.1413"
       y="978.98578"
       id="text3626"><tspan
         sodipodi:role="line"
         id="tspan3628"
         x="648.1413"
         y="978.98578"
         style="font-size:15px;line-height:1.25;font-family:sans-serif">San Andres</tspan><tspan
         sodipodi:role="line"
         x="648.1413"
         y="997.73578"
         id="tspan3630"
         style="font-size:15px;line-height:1.25;font-family:sans-serif">Tomatlan</tspan></text>
    <text
       xml:space="preserve"
       style="font-style:normal;font-variant:normal;font-weight:normal;font-stretch:normal;line-height:0%;font-family:sans-serif;-inkscape-font-specification:Sans;text-align:start;letter-spacing:0px;word-spacing:0px;writing-mode:lr-tb;text-anchor:start;fill:#b89d4e;fill-opacity:1;stroke:none"
       x="625.37714"
       y="1022.8088"
       id="text3632"><tspan
         sodipodi:role="line"
         id="tspan3634"
         x="625.37714"
         y="1022.8088"
         style="font-size:15px;line-height:1.25;font-family:sans-serif">Lomas Estrella</tspan></text>
    <text
       xml:space="preserve"
       style="font-style:normal;font-variant:normal;font-weight:normal;font-stretch:normal;line-height:0%;font-family:sans-serif;-inkscape-font-specification:Sans;text-align:start;letter-spacing:0px;word-spacing:0px;writing-mode:lr-tb;text-anchor:start;fill:#b89d4e;fill-opacity:1;stroke:none"
       x="671.70282"
       y="1059.1826"
       id="text3636"><tspan
         sodipodi:role="line"
         id="tspan3638"
         x="671.70282"
         y="1059.1826"
         style="font-size:15px;line-height:1.25;font-family:sans-serif">Calle 11</tspan></text>
    <text
       xml:space="preserve"
       style="font-style:normal;font-variant:normal;font-weight:normal;font-stretch:normal;line-height:0%;font-family:sans-serif;-inkscape-font-specification:Sans;text-align:start;letter-spacing:0px;word-spacing:0px;writing-mode:lr-tb;text-anchor:start;fill:#b89d4e;fill-opacity:1;stroke:none"
       x="616.72595"
       y="1093.4939"
       id="text3640"><tspan
         sodipodi:role="line"
         id="tspan3642"
         x="616.72595"
         y="1093.4939"
         style="font-size:15px;line-height:1.25;font-family:sans-serif">Periferico Oriente</tspan></text>
    <text
       xml:space="preserve"
       style="font-style:normal;font-variant:normal;font-weight:normal;font-stretch:normal;line-height:0%;font-family:sans-serif;-inkscape-font-specification:Sans;text-align:start;letter-spacing:0px;word-spacing:0px;writing-mode:lr-tb;text-anchor:start;fill:#b89d4e;fill-opacity:1;stroke:none"
       x="714.3299"
       y="1117.0895"
       id="text3644"><tspan
         sodipodi:role="line"
         id="tspan3646"
         x="714.3299"
         y="1117.0895"
         style="font-size:15px;line-height:1.25;font-family:sans-serif">Tezonco</tspan></text>
    <text
       xml:space="preserve"
       style="font-style:normal;font-variant:normal;font-weight:normal;font-stretch:normal;line-height:0%;font-family:sans-serif;-inkscape-font-specification:Sans;text-align:start;letter-spacing:0px;word-spacing:0px;writing-mode:lr-tb;text-anchor:start;fill:#b89d4e;fill-opacity:1;stroke:none"
       x="748.953"
       y="1140.8682"
       id="text3648"><tspan
         sodipodi:role="line"
         id="tspan3650"
         x="748.953"
         y="1140.8682"
         style="font-size:15px;line-height:1.25;font-family:sans-serif">Olivos</tspan></text>
    <text
       xml:space="preserve"
       style="font-style:normal;font-variant:normal;font-weight:normal;font-stretch:normal;line-height:0%;font-family:sans-serif;-inkscape-font-specification:Sans;text-align:start;letter-spacing:0px;word-spacing:0px;writing-mode:lr-tb;text-anchor:start;fill:#b89d4e;fill-opacity:1;stroke:none"
       x="752.58936"
       y="1163.0612"
       id="text3652"><tspan
         sodipodi:role="line"
         id="tspan3654"
         x="752.58936"
         y="1163.0612"
         style="font-size:15px;line-height:1.25;font-family:sans-serif">Nopalera</tspan></text>
    <text
       xml:space="preserve"
       style="font-style:normal;font-variant:normal;font-weight:normal;font-stretch:normal;line-height:0%;font-family:sans-serif;-inkscape-font-specification:Sans;text-align:start;letter-spacing:0px;word-spacing:0px;writing-mode:lr-tb;text-anchor:start;fill:#b89d4e;fill-opacity:1;stroke:none"
       x="764.75604"
       y="1186.7483"
       id="text3656"><tspan
         sodipodi:role="line"
         id="tspan3658"
         x="764.75604"
         y="1186.7483"
         style="font-size:15px;line-height:1.25;font-family:sans-serif">Zapotitlan</tspan></text>
    <text
       xml:space="preserve"
       style="font-style:normal;font-variant:normal;font-weight:normal;font-stretch:normal;line-height:0%;font-family:sans-serif;-inkscape-font-specification:Sans;text-align:start;letter-spacing:0px;word-spacing:0px;writing-mode:lr-tb;text-anchor:start;fill:#b89d4e;fill-opacity:1;stroke:none"
       x="798.67059"
       y="1211.838"
       id="text3660"><tspan
         sodipodi:role="line"
         id="tspan3662"
         x="798.67059"
         y="1211.838"
         style="font-size:15px;line-height:1.25;font-family:sans-serif">Tlaltenco</tspan></text>
    <rect
       width="30.526741"
       height="30.526741"
       rx="3.2829957"
       ry="3.2829957"
       x="918.39288"
       y="1214.9755"
       style="display:inline;fill:#b89d4e;fill-opacity:1;fill-rule:evenodd;stroke:none"
       id="rect4068-2-4" />
    <text
       x="915.39062"
       y="1241.5356"
       style="font-style:normal;font-weight:bold;font-size:32px;line-height:0%;font-family:Arial;display:inline;fill:#ffffff;fill-opacity:1;stroke:none"
       id="text4070-2-0"
       xml:space="preserve"><tspan
         x="915.39062"
         y="1241.5356"
         id="tspan4072-1-9">12</tspan></text>
    <path
       inkscape:connector-curvature="0"
       d="m 743.46819,983.99205 c 0.002,0.76792 -0.40726,1.47816 -1.07204,1.86257 -0.66479,0.3844 -1.48427,0.3844 -2.14906,0 -0.66478,-0.38441 -1.07358,-1.09465 -1.07204,-1.86257 -0.002,-0.76792 0.40726,-1.47817 1.07204,-1.86257 0.66479,-0.3844 1.48427,-0.3844 2.14906,0 0.66478,0.3844 1.07358,1.09465 1.07204,1.86257 z"
       style="display:inline;fill:#ffffff;fill-opacity:1;fill-rule:evenodd;stroke:#ffffff;stroke-width:3.70000005;stroke-linecap:round;stroke-miterlimit:4;stroke-dasharray:none;stroke-opacity:1"
       id="path3625-2-4" />
    <path
       inkscape:connector-curvature="0"
       d="m 743.46819,1019.5613 c 0.002,0.7679 -0.40726,1.4781 -1.07204,1.8626 -0.66479,0.3844 -1.48427,0.3844 -2.14906,0 -0.66478,-0.3845 -1.07358,-1.0947 -1.07204,-1.8626 -0.002,-0.7679 0.40726,-1.4782 1.07204,-1.8626 0.66479,-0.3844 1.48427,-0.3844 2.14906,0 0.66478,0.3844 1.07358,1.0947 1.07204,1.8626 z"
       style="display:inline;fill:#ffffff;fill-opacity:1;fill-rule:evenodd;stroke:#ffffff;stroke-width:3.70000005;stroke-linecap:round;stroke-miterlimit:4;stroke-dasharray:none;stroke-opacity:1"
       id="path3625-2-8" />
    <path
       inkscape:connector-curvature="0"
       d="m 743.46819,1055.1307 c 0.002,0.7679 -0.40725,1.4781 -1.07204,1.8625 -0.66479,0.3844 -1.48427,0.3844 -2.14906,0 -0.66477,-0.3844 -1.07358,-1.0946 -1.07204,-1.8625 -0.002,-0.768 0.40726,-1.4782 1.07204,-1.8626 0.6648,-0.3844 1.48428,-0.3844 2.14906,0 0.66478,0.3844 1.07358,1.0946 1.07204,1.8626 z"
       style="display:inline;fill:#ffffff;fill-opacity:1;fill-rule:evenodd;stroke:#ffffff;stroke-width:3.70000005;stroke-linecap:round;stroke-miterlimit:4;stroke-dasharray:none;stroke-opacity:1"
       id="path3625-2-82" />
    <path
       inkscape:connector-curvature="0"
       d="m 761.94693,1089.8201 c 0.002,0.7679 -0.40726,1.4781 -1.07204,1.8626 -0.66479,0.3844 -1.48427,0.3844 -2.14906,0 -0.66478,-0.3845 -1.07358,-1.0947 -1.07204,-1.8626 -0.002,-0.7679 0.40726,-1.4782 1.07204,-1.8626 0.66479,-0.3844 1.48427,-0.3844 2.14906,0 0.66478,0.3844 1.07358,1.0947 1.07204,1.8626 z"
       style="display:inline;fill:#ffffff;fill-opacity:1;fill-rule:evenodd;stroke:#ffffff;stroke-width:3.70000005;stroke-linecap:round;stroke-miterlimit:4;stroke-dasharray:none;stroke-opacity:1"
       id="path3625-2-45" />
    <path
       inkscape:connector-curvature="0"
       d="m 785.42931,1113.4424 c 0.002,0.7679 -0.40726,1.4782 -1.07204,1.8626 -0.66479,0.3844 -1.48427,0.3844 -2.14906,0 -0.66478,-0.3844 -1.07358,-1.0947 -1.07204,-1.8626 -0.002,-0.7679 0.40726,-1.4781 1.07204,-1.8625 0.66479,-0.3844 1.48427,-0.3844 2.14906,0 0.66478,0.3844 1.07358,1.0946 1.07204,1.8625 z"
       style="display:inline;fill:#ffffff;fill-opacity:1;fill-rule:evenodd;stroke:#ffffff;stroke-width:3.70000005;stroke-linecap:round;stroke-miterlimit:4;stroke-dasharray:none;stroke-opacity:1"
       id="path3625-2-5" />
    <path
       inkscape:connector-curvature="0"
       d="m 808.9692,1137.1224 c 0.002,0.7679 -0.40726,1.4781 -1.07204,1.8626 -0.66479,0.3844 -1.48427,0.3844 -2.14906,0 -0.66478,-0.3845 -1.07358,-1.0947 -1.07204,-1.8626 -0.002,-0.7679 0.40726,-1.4782 1.07204,-1.8626 0.66479,-0.3844 1.48427,-0.3844 2.14906,0 0.66478,0.3844 1.07358,1.0947 1.07204,1.8626 z"
       style="display:inline;fill:#ffffff;fill-opacity:1;fill-rule:evenodd;stroke:#ffffff;stroke-width:3.70000005;stroke-linecap:round;stroke-miterlimit:4;stroke-dasharray:none;stroke-opacity:1"
       id="path3625-2-17" />
    <path
       inkscape:connector-curvature="0"
       d="m 832.42421,1160.8023 c 0.002,0.7679 -0.40726,1.4781 -1.07204,1.8626 -0.66479,0.3844 -1.48427,0.3844 -2.14906,0 -0.66478,-0.3845 -1.07358,-1.0947 -1.07204,-1.8626 -0.002,-0.7679 0.40726,-1.4782 1.07204,-1.8626 0.66479,-0.3844 1.48427,-0.3844 2.14906,0 0.66478,0.3844 1.07358,1.0947 1.07204,1.8626 z"
       style="display:inline;fill:#ffffff;fill-opacity:1;fill-rule:evenodd;stroke:#ffffff;stroke-width:3.70000005;stroke-linecap:round;stroke-miterlimit:4;stroke-dasharray:none;stroke-opacity:1"
       id="path3625-2-11" />
    <path
       inkscape:connector-curvature="0"
       d="m 855.94693,1184.4821 c 0.002,0.7679 -0.40726,1.4782 -1.07204,1.8626 -0.66479,0.3844 -1.48427,0.3844 -2.14906,0 -0.66478,-0.3844 -1.07358,-1.0947 -1.07204,-1.8626 -0.002,-0.7679 0.40726,-1.4781 1.07204,-1.8625 0.66479,-0.3844 1.48427,-0.3844 2.14906,0 0.66478,0.3844 1.07358,1.0946 1.07204,1.8625 z"
       style="display:inline;fill:#ffffff;fill-opacity:1;fill-rule:evenodd;stroke:#ffffff;stroke-width:3.70000005;stroke-linecap:round;stroke-miterlimit:4;stroke-dasharray:none;stroke-opacity:1"
       id="path3625-2-52" />
    <path
       inkscape:connector-curvature="0"
       d="m 879.41824,1208.1622 c 0.002,0.7679 -0.40726,1.4781 -1.07204,1.8625 -0.66479,0.3844 -1.48427,0.3844 -2.14906,0 -0.66478,-0.3844 -1.07358,-1.0946 -1.07204,-1.8625 -0.002,-0.768 0.40726,-1.4782 1.07204,-1.8626 0.66479,-0.3844 1.48427,-0.3844 2.14906,0 0.66478,0.3844 1.07358,1.0946 1.07204,1.8626 z"
       style="display:inline;fill:#ffffff;fill-opacity:1;fill-rule:evenodd;stroke:#ffffff;stroke-width:3.70000005;stroke-linecap:round;stroke-miterlimit:4;stroke-dasharray:none;stroke-opacity:1"
       id="path3625-2-7" />
    <path
       inkscape:connector-curvature="0"
       d="m 902.88293,1231.842 c 0.002,0.7679 -0.40726,1.4781 -1.07204,1.8626 -0.66479,0.3844 -1.48427,0.3844 -2.14906,0 -0.66478,-0.3845 -1.07358,-1.0947 -1.07204,-1.8626 -0.002,-0.7679 0.40726,-1.4782 1.07204,-1.8626 0.66479,-0.3844 1.48427,-0.3844 2.14906,0 0.66478,0.3844 1.07358,1.0947 1.07204,1.8626 z"
       style="display:inline;fill:#ffffff;fill-opacity:1;fill-rule:evenodd;stroke:#ffffff;stroke-width:3.70000005;stroke-linecap:round;stroke-miterlimit:4;stroke-dasharray:none;stroke-opacity:1"
       id="path3625-2-6" />
    <path
       style="fill:none;stroke:#000000;stroke-width:1px;stroke-linecap:butt;stroke-linejoin:miter;stroke-opacity:1"
       d="m 466.74401,786.45514 2.6633,-6.32534"
       id="path4547"
       inkscape:connector-curvature="0"
       transform="translate(0.84340531,-4.034935)" />
  </g>
</svg>
